<?xml version="1.0" encoding="UTF-8" standalone="no"?>
<svg width="2100px" height="2970px" version="1.1" xmlns="http://www.w3.org/2000/svg" xmlns:xlink="http://www.w3.org/1999/xlink" overflow="visible" id="b5y96xg">
   <desc>Engraved by Verovio 6.1.0-dev-91cbb00</desc>
   <defs>
      <g id="E050-b5y96xg">
         <path transform="scale(1,-1)" d="M376 415l25 -145c3 -18 3 -18 29 -18c147 0 241 -113 241 -241c0 -113 -67 -198 -168 -238c-14 -6 -15 -5 -13 -17c11 -62 29 -157 29 -214c0 -170 -130 -200 -197 -200c-151 0 -190 98 -190 163c0 62 40 115 107 115c61 0 96 -47 96 -102c0 -58 -36 -85 -67 -94 c-23 -7 -32 -10 -32 -17c0 -13 26 -29 80 -29c59 0 159 18 159 166c0 47 -15 134 -27 201c-2 12 -4 11 -15 9c-20 -4 -46 -6 -69 -6c-245 0 -364 165 -364 339c0 202 153 345 297 464c12 10 11 12 9 24c-7 41 -14 106 -14 164c0 104 24 229 98 311c20 22 51 48 65 48 c11 0 37 -28 52 -50c41 -60 65 -146 65 -233c0 -153 -82 -280 -190 -381c-6 -6 -8 -7 -6 -19zM470 943c-61 0 -133 -96 -133 -252c0 -32 2 -66 6 -92c2 -13 6 -14 13 -8c79 69 174 159 174 270c0 55 -27 82 -60 82zM361 262l-21 128c-2 11 -4 12 -14 4 c-47 -38 -93 -75 -153 -142c-83 -94 -93 -173 -93 -232c0 -139 113 -236 288 -236c20 0 40 2 56 5c15 3 16 3 14 14l-50 298c-2 11 -4 12 -20 8c-61 -17 -100 -60 -100 -117c0 -46 30 -89 72 -107c7 -3 15 -6 15 -13c0 -6 -4 -11 -12 -11c-7 0 -19 3 -27 6 c-68 23 -115 87 -115 177c0 85 57 164 145 194c18 6 18 5 15 24zM430 103l49 -285c2 -12 4 -12 16 -6c56 28 94 79 94 142c0 88 -67 156 -148 163c-12 1 -13 -2 -11 -14z" />
      </g>
      <g id="E084-b5y96xg">
         <path transform="scale(1,-1)" d="M362 -74h73c11 0 15 -7 15 -19s-5 -19 -15 -19h-73v-59c0 -32 21 -38 31 -38s22 -6 22 -20s-10 -21 -20 -21h-213c-15 0 -19 11 -19 21s7 19 23 19c18 0 40 8 40 35v63h-186c-12 0 -20 7 -20 17c0 3 1 7 3 12l1 1v1l6 8c30 42 128 181 128 305c0 16 14 19 23 19 c8 0 53 -2 71 -2s59 2 68 2c8 0 15 -6 15 -15l-1 -3c-3 -12 -163 -239 -243 -307h135v84c0 12 5 18 9 23l95 115c6 7 11 9 20 9c11 0 12 -9 12 -17v-214z" />
      </g>
      <g id="E0A4-b5y96xg">
         <path transform="scale(1,-1)" d="M97 -125c-54 0 -97 31 -97 83c0 86 88 167 198 167c57 0 97 -32 97 -83c0 -85 -109 -167 -198 -167z" />
      </g>
      <g id="E442-b5y96xg">
         <path transform="scale(1,-1)" d="M262 315v-48c0 -4 -3 -8 -10 -10c0 0 -139 -54 -142 -55s-6 -3 -6 -10v-10l-2 -32v-10c0 -7 4 -14 11 -16c2 -1 4 -1 6 -1c4 0 15 8 22 13c13 7 24 11 36 14c6 2 13 3 19 3c46 -3 90 -38 90 -95c0 -46 -31 -108 -120 -170c-25 -17 -50 -45 -80 -61c0 0 -3 -2 -6 -2 c-2 0 -5 1 -8 5c-5 6 -8 191 -10 349c0 2 -2 4 -6 4c-2 -2 -48 -19 -50 -19c-5 0 -7 4 -7 8v50c0 5 3 7 9 8l45 17c8 3 8 12 8 15c-1 86 -1 149 -1 149c1 18 17 28 30 28c10 0 19 -6 19 -17c0 -10 -2 -79 -3 -145c0 -3 1 -6 6 -6c4 2 140 52 140 52c1 1 3 1 4 1 c5 0 6 -6 6 -9zM126 -93c47 26 91 80 91 136c0 26 -10 57 -40 57c-25 0 -65 -27 -72 -49c-1 -4 -2 -16 -2 -32c0 -40 3 -100 3 -100c0 -6 2 -15 10 -15c3 0 6 1 10 3z" />
      </g>
      <g id="E261-b5y96xg">
         <path transform="scale(1,-1)" d="M141 181l15 5c1 1 3 1 4 1c4 0 8 -3 8 -8v-502c0 -7 -6 -12 -12 -12h-13c-7 0 -12 5 -12 12v149c0 8 -7 11 -17 11c-29 0 -85 -24 -99 -30c-1 -1 -3 -1 -4 -1l-2 -1c-6 0 -9 3 -9 9v515c0 7 5 12 12 12h13c6 0 12 -5 12 -12v-167c0 -4 4 -5 10 -5c26 0 90 23 90 23 c1 0 2 1 4 1zM37 39v-103c0 -4 5 -6 12 -6c25 0 82 23 82 41v103c0 4 -3 5 -9 5c-24 0 -85 -26 -85 -40z" />
      </g>
      <g id="E260-b5y96xg">
         <path transform="scale(1,-1)" d="M12 -170c-8 10 -12 581 -12 581c1 18 17 28 31 28c10 0 19 -6 19 -17c0 -20 -6 -260 -7 -282c0 -7 4 -14 11 -17c2 -1 3 -1 5 -1c5 0 16 9 22 14c14 9 38 17 55 17c46 -3 90 -39 90 -96c0 -46 -31 -107 -120 -169c-25 -17 -49 -44 -79 -61c0 0 -3 -2 -6 -2s-6 1 -9 5z M47 -81c0 -5 2 -15 11 -15c3 0 6 1 10 3c43 27 89 81 89 135c0 25 -12 58 -41 58c-23 0 -63 -29 -70 -49c-1 -4 -2 -16 -2 -32c0 -40 3 -100 3 -100z" />
      </g>
      <g id="E282-b5y96xg">
         <path transform="scale(1,-1)" d="M179 167v-71c0 -7 -6 -14 -12 -17c0 0 -42 -16 -51 -20c-8 -3 -13 -21 -13 -29v-93c0 -11 7 -17 14 -17c4 1 50 20 50 20v-1h1l2 1c6 0 9 -3 9 -9v-71c0 -6 -6 -14 -12 -16c0 0 -45 -18 -53 -20c-4 -2 -8 -8 -9 -14c-1 -3 -1 -5 -1 -8v-138c0 -10 -2 -17 -17 -17 c-8 0 -14 5 -14 11v125c0 8 -9 21 -14 19c-9 -4 -47 -20 -48 -20l-2 -1c-6 0 -9 3 -9 9v71c0 6 6 14 12 16l52 22c6 2 10 11 10 22v100c0 8 -6 17 -13 17l-1 -1c-9 -3 -48 -20 -49 -20l-2 -1c-6 0 -9 3 -9 9v71c0 6 6 14 12 16c17 7 33 15 51 22c7 6 10 18 10 26v130 c0 8 2 17 17 17c8 0 14 -5 14 -11v-120c0 -9 4 -20 13 -20c2 0 50 18 50 18c1 1 3 1 4 1c4 0 8 -3 8 -8z" />
      </g>
      <g id="E262-b5y96xg">
         <path transform="scale(1,-1)" d="M237 118l-26 -10c-8 -3 -13 -22 -13 -29v-93c0 -12 7 -18 13 -18l26 10c2 1 3 1 5 1c4 0 7 -3 7 -8v-71c0 -6 -5 -14 -12 -17c0 0 -21 -8 -28 -11s-11 -15 -11 -23v-142c0 -6 -6 -11 -17 -11c-7 0 -13 5 -13 11v125c0 6 -5 18 -14 18l-2 -1h-1l-61 -25 c-5 -2 -10 -9 -10 -22v-139c0 -6 -7 -11 -17 -11c-7 0 -13 5 -13 11v123c0 5 -5 16 -12 16c-1 0 -2 0 -3 -1c-9 -3 -23 -9 -24 -9l-2 -1c-6 0 -9 3 -9 9v71c0 6 5 14 12 16c0 0 21 9 27 11c6 3 11 12 11 23v99c0 8 -6 18 -14 18l-1 -1c-8 -4 -23 -10 -24 -10l-2 -1 c-6 0 -9 3 -9 9v71c0 6 5 14 12 16c0 0 20 8 26 11s12 13 12 27v135c0 6 6 11 16 11c7 0 14 -5 14 -11v-120c0 -8 3 -20 12 -20c17 4 51 18 63 25c9 6 12 19 13 29v130c0 6 6 11 16 11c8 0 14 -5 14 -11v-122c0 -8 7 -13 14 -13c5 1 25 9 25 9c2 1 3 1 5 1c4 0 7 -3 7 -8 v-71c0 -6 -5 -14 -12 -17zM168 -45c2 9 4 37 4 64s-2 52 -4 57c-2 4 -8 6 -15 6c-25 0 -71 -21 -73 -38c-2 -8 -3 -43 -3 -74c0 -24 1 -46 3 -50c1 -3 6 -5 12 -5c23 0 70 20 76 40z" />
      </g>
      <g id="E30B-b5y96xg">
         <path transform="scale(1,-1)" d="M0 172l156 -209v396h32v-396l156 209v-110l-172 -234l-172 234v110z" />
      </g>
      <g id="E319-b5y96xg">
         <path transform="scale(1,-1)" d="M0 190l125 -153v322h31v-359l47 -59l47 59v359h31v-322l125 153v-112l-203 -250l-203 250v112z" />
      </g>
      <g id="E30A-b5y96xg">
         <path transform="scale(1,-1)" d="M156 37l-156 -209v110l172 234l172 -234v-110l-156 209v-396h-32v396z" />
      </g>
      <g id="E318-b5y96xg">
         <path transform="scale(1,-1)" d="M125 -37l-125 -153v112l203 250l203 -250v-112l-125 153v-322h-31v359l-47 59l-47 -59v-359h-31v322z" />
      </g>
   </defs>
   <style type="text/css">#b5y96xg g.ending, #b5y96xg g.fing, #b5y96xg g.reh, #b5y96xg g.tempo {font-weight:bold;}#b5y96xg g.dir, #b5y96xg g.dynam, #b5y96xg g.mNum {font-style:italic;}#b5y96xg g.label {font-weight:normal;}#b5y96xg ellipse, #b5y96xg path, #b5y96xg polygon, #b5y96xg polyline, #b5y96xg rect {stroke:currentColor}</style>
   <svg class="definition-scale" color="black" font-family="Times, serif" viewBox="0 0 21000 29700">
      <g class="page-margin" transform="translate(500, 500)">
         <g id="l24b4r8" class="mdiv pageMilestone" />
         <g id="m1r58plr" class="score pageMilestone" />
         <g id="uoq7t23" class="system">
            <g id="y1r6q8p4" class="label">
               <text x="1105" y="1902" text-anchor="end" font-size="0px">
                  <tspan id="z1xtfabb" class="text">
                     <tspan font-size="405px">Piano</tspan>
                  </tspan>
               </text>
            </g>
            <g id="o1vlzmzt" class="section systemMilestone" />
            <g id="p601t13" class="pb" />
            <g id="gn245nf" class="section systemMilestone" />
            <g id="meu81yc" class="measure">
               <g id="vaybx60" class="staff">
                  <path d="M1285 1452 L6621 1452" stroke-width="13" />
                  <path d="M1285 1632 L6621 1632" stroke-width="13" />
                  <path d="M1285 1812 L6621 1812" stroke-width="13" />
                  <path d="M1285 1992 L6621 1992" stroke-width="13" />
                  <path d="M1285 2172 L6621 2172" stroke-width="13" />
                  <g id="e9ai66t" class="clef">
                     <use xlink:href="#E050-b5y96xg" transform="translate(1375, 1992) scale(0.72, 0.72)" />
                  </g>
                  <g id="f1sto86y" class="keySig" />
                  <g id="g1riy2cn" class="meterSig">
                     <use xlink:href="#E084-b5y96xg" transform="translate(2024, 1632) scale(0.72, 0.72)" />
                     <use xlink:href="#E084-b5y96xg" transform="translate(2024, 1992) scale(0.72, 0.72)" />
                  </g>
                  <g class="ledgerLines below">
                     <path d="M2569 2352 L2877 2352" stroke-width="22" />
                  </g>
                  <g id="wcch46y" class="layer">
                     <g id="xvw32st" class="note">
                        <g class="notehead">
                           <use xlink:href="#E0A4-b5y96xg" transform="translate(2617, 2352) scale(0.72, 0.72)" />
                        </g>
                        <g id="bo4rm6y" class="stem">
                           <path d="M2820 2322 L2820 1722" stroke-width="18" />
                        </g>
                     </g>
                     <g id="y2htspw" class="note">
                        <g class="notehead">
                           <use xlink:href="#E0A4-b5y96xg" transform="translate(3615, 2262) scale(0.72, 0.72)" />
                        </g>
                        <g id="c6687vs" class="stem">
                           <path d="M3818 2232 L3818 1632" stroke-width="18" />
                        </g>
                     </g>
                     <g id="z3zekzl" class="note">
                        <g class="notehead">
                           <use xlink:href="#E0A4-b5y96xg" transform="translate(4613, 2172) scale(0.72, 0.72)" />
                        </g>
                        <g id="d1id6fli" class="stem">
                           <path d="M4816 2142 L4816 1542" stroke-width="18" />
                        </g>
                     </g>
                     <g id="agshwcs" class="note">
                        <g class="notehead">
                           <use xlink:href="#E0A4-b5y96xg" transform="translate(5611, 2082) scale(0.72, 0.72)" />
                        </g>
                        <g id="e1gt128g" class="stem">
                           <path d="M5814 2052 L5814 1452" stroke-width="18" />
                        </g>
                     </g>
                  </g>
               </g>
               <g id="uufox3d" class="barLine">
                  <path d="M6608 1452 L6608 2172" stroke-width="27" />
               </g>
            </g>
            <g id="bn3idiz" class="measure">
               <g id="kukxhw1" class="staff">
                  <path d="M6621 1452 L10904 1452" stroke-width="13" />
                  <path d="M6621 1632 L10904 1632" stroke-width="13" />
                  <path d="M6621 1812 L10904 1812" stroke-width="13" />
                  <path d="M6621 1992 L10904 1992" stroke-width="13" />
                  <path d="M6621 2172 L10904 2172" stroke-width="13" />
                  <g id="l1xbag4v" class="layer">
                     <g id="m1t3ar7j" class="note">
                        <g class="notehead">
                           <use xlink:href="#E0A4-b5y96xg" transform="translate(6801, 1992) scale(0.72, 0.72)" />
                        </g>
                        <g id="f1gtjipg" class="stem">
                           <path d="M7004 1962 L7004 1362" stroke-width="18" />
                        </g>
                     </g>
                     <g id="n174mfj3" class="note">
                        <g class="notehead">
                           <use xlink:href="#E0A4-b5y96xg" transform="translate(7799, 1902) scale(0.72, 0.72)" />
                        </g>
                        <g id="g131ehu7" class="stem">
                           <path d="M8002 1872 L8002 1272" stroke-width="18" />
                        </g>
                     </g>
                     <g id="o1tcqu8y" class="note">
                        <g class="notehead">
                           <use xlink:href="#E0A4-b5y96xg" transform="translate(8797, 1812) scale(0.72, 0.72)" />
                        </g>
                        <g id="hpmw6c" class="stem">
                           <path d="M8806 1842 L8806 2412" stroke-width="18" />
                        </g>
                     </g>
                     <g id="p14dtuz5" class="note">
                        <g class="notehead">
                           <use xlink:href="#E0A4-b5y96xg" transform="translate(9795, 1722) scale(0.72, 0.72)" />
                        </g>
                        <g id="ik49sao" class="stem">
                           <path d="M9804 1752 L9804 2352" stroke-width="18" />
                        </g>
                     </g>
                  </g>
               </g>
               <g id="jxkatpj" class="barLine">
                  <path d="M10792 1452 L10792 2172" stroke-width="27" />
                  <path d="M10891 1452 L10891 2172" stroke-width="27" />
               </g>
            </g>
            <g id="a5x5pa3" class="sb" />
            <g id="q1siqp1v" class="measure">
               <g id="z3hyft2" class="staff">
                  <path d="M10904 1452 L15717 1452" stroke-width="13" />
                  <path d="M10904 1632 L15717 1632" stroke-width="13" />
                  <path d="M10904 1812 L15717 1812" stroke-width="13" />
                  <path d="M10904 1992 L15717 1992" stroke-width="13" />
                  <path d="M10904 2172 L15717 2172" stroke-width="13" />
                  <g id="e8s4exm" class="keySig">
                     <g id="f1j1yomk" class="keyAccid">
                        <use xlink:href="#E442-b5y96xg" transform="translate(10994, 1812) scale(0.72, 0.72)" />
                     </g>
                     <g id="g714h33" class="keyAccid">
                        <use xlink:href="#E442-b5y96xg" transform="translate(11237, 1542) scale(0.72, 0.72)" />
                     </g>
                  </g>
                  <g class="ledgerLines below">
                     <path d="M11665 2352 L11973 2352" stroke-width="22" />
                  </g>
                  <g id="f1q73j1m" class="layer">
                     <g id="glhuapw" class="note">
                        <g class="notehead">
                           <use xlink:href="#E0A4-b5y96xg" transform="translate(11713, 2352) scale(0.72, 0.72)" />
                        </g>
                        <g id="j14aebxy" class="stem">
                           <path d="M11916 2322 L11916 1722" stroke-width="18" />
                        </g>
                     </g>
                     <g id="h1l0ut7p" class="note">
                        <g class="notehead">
                           <use xlink:href="#E0A4-b5y96xg" transform="translate(12711, 2262) scale(0.72, 0.72)" />
                        </g>
                        <g id="k104jcqb" class="stem">
                           <path d="M12914 2232 L12914 1632" stroke-width="18" />
                        </g>
                     </g>
                     <g id="i1o14lve" class="note">
                        <g class="notehead">
                           <use xlink:href="#E0A4-b5y96xg" transform="translate(13709, 2172) scale(0.72, 0.72)" />
                        </g>
                        <g id="l1vzf5f" class="stem">
                           <path d="M13912 2142 L13912 1542" stroke-width="18" />
                        </g>
                        <g id="jsb1mbk" class="accid" />
                     </g>
                     <g id="k1cm3wrb" class="note">
                        <g class="notehead">
                           <use xlink:href="#E0A4-b5y96xg" transform="translate(14707, 2082) scale(0.72, 0.72)" />
                        </g>
                        <g id="m106plox" class="stem">
                           <path d="M14910 2052 L14910 1452" stroke-width="18" />
                        </g>
                     </g>
                  </g>
               </g>
               <g id="y1pcu12p" class="barLine">
                  <path d="M15704 1452 L15704 2172" stroke-width="27" />
               </g>
            </g>
            <g id="l1l21286" class="measure">
               <g id="u14mptzf" class="staff">
                  <path d="M15717 1452 L20000 1452" stroke-width="13" />
                  <path d="M15717 1632 L20000 1632" stroke-width="13" />
                  <path d="M15717 1812 L20000 1812" stroke-width="13" />
                  <path d="M15717 1992 L20000 1992" stroke-width="13" />
                  <path d="M15717 2172 L20000 2172" stroke-width="13" />
                  <g id="vuzibv0" class="layer">
                     <g id="w1s1qjpn" class="note">
                        <g class="notehead">
                           <use xlink:href="#E0A4-b5y96xg" transform="translate(15897, 1992) scale(0.72, 0.72)" />
                        </g>
                        <g id="naw0rry" class="stem">
                           <path d="M16100 1962 L16100 1362" stroke-width="18" />
                        </g>
                     </g>
                     <g id="x4o1z80" class="note">
                        <g class="notehead">
                           <use xlink:href="#E0A4-b5y96xg" transform="translate(16895, 1902) scale(0.72, 0.72)" />
                        </g>
                        <g id="o1jr7o4s" class="stem">
                           <path d="M17098 1872 L17098 1272" stroke-width="18" />
                        </g>
                     </g>
                     <g id="y1oh3vrn" class="note">
                        <g class="notehead">
                           <use xlink:href="#E0A4-b5y96xg" transform="translate(17893, 1812) scale(0.72, 0.72)" />
                        </g>
                        <g id="pyfz23f" class="stem">
                           <path d="M17902 1842 L17902 2412" stroke-width="18" />
                        </g>
                        <g id="z18wajdo" class="accid" />
                     </g>
                     <g id="a1p1ad8u" class="note">
                        <g class="notehead">
                           <use xlink:href="#E0A4-b5y96xg" transform="translate(18891, 1722) scale(0.72, 0.72)" />
                        </g>
                        <g id="q1ye5hjg" class="stem">
                           <path d="M18900 1752 L18900 2352" stroke-width="18" />
                        </g>
                     </g>
                  </g>
               </g>
               <g id="t1e556ec" class="barLine">
                  <path d="M19888 1452 L19888 2172" stroke-width="27" />
                  <path d="M19987 1452 L19987 2172" stroke-width="27" />
               </g>
            </g>
            <g id="l1k79bfu" class="sb" />
         </g>
         <g id="x183nkxe" class="system">
            <g id="n1auobq9" class="labelAbbr">
               <text x="914" y="4062" text-anchor="end" font-size="0px">
                  <tspan id="o148neka" class="text">
                     <tspan font-size="405px">Pno.</tspan>
                  </tspan>
               </text>
            </g>
            <g id="bmhkrre" class="measure">
               <g id="h17331h" class="mNum autogenerated">
                  <text x="1094" y="3369" text-anchor="middle" font-size="0px">
                     <tspan id="i6rg1r1" class="text">
                        <tspan font-size="324px">5</tspan>
                     </tspan>
                  </text>
               </g>
               <g id="k142egqt" class="staff">
                  <path d="M1094 3612 L5733 3612" stroke-width="13" />
                  <path d="M1094 3792 L5733 3792" stroke-width="13" />
                  <path d="M1094 3972 L5733 3972" stroke-width="13" />
                  <path d="M1094 4152 L5733 4152" stroke-width="13" />
                  <path d="M1094 4332 L5733 4332" stroke-width="13" />
                  <g id="veblktg" class="clef">
                     <use xlink:href="#E050-b5y96xg" transform="translate(1184, 4152) scale(0.72, 0.72)" />
                  </g>
                  <g id="wjikbl4" class="keySig">
                     <g id="xd4ve8z" class="keyAccid">
                        <use xlink:href="#E442-b5y96xg" transform="translate(1847, 3972) scale(0.72, 0.72)" />
                     </g>
                     <g id="y1t3mcde" class="keyAccid">
                        <use xlink:href="#E442-b5y96xg" transform="translate(2090, 3702) scale(0.72, 0.72)" />
                     </g>
                  </g>
                  <g id="mmtpmqr" class="layer">
                     <g id="n1yx8h8h" class="note">
                        <g class="notehead">
                           <use xlink:href="#E0A4-b5y96xg" transform="translate(2554, 4332) scale(0.72, 0.72)" />
                        </g>
                        <g id="r3upjoj" class="stem">
                           <path d="M2757 4302 L2757 3702" stroke-width="18" />
                        </g>
                        <g id="oxplnui" class="accid" />
                     </g>
                     <g id="p1xlaeni" class="note">
                        <g class="notehead">
                           <use xlink:href="#E0A4-b5y96xg" transform="translate(3346, 4332) scale(0.72, 0.72)" />
                        </g>
                        <g id="s1um8rhd" class="stem">
                           <path d="M3549 4302 L3549 3702" stroke-width="18" />
                        </g>
                        <g id="qbw6bsk" class="accid">
                           <use xlink:href="#E261-b5y96xg" transform="translate(3181, 4332) scale(0.72, 0.72)" />
                        </g>
                     </g>
                     <g id="r3r86e9" class="note">
                        <g class="notehead">
                           <use xlink:href="#E0A4-b5y96xg" transform="translate(4137, 4332) scale(0.72, 0.72)" />
                        </g>
                        <g id="t9p64gs" class="stem">
                           <path d="M4340 4302 L4340 3702" stroke-width="18" />
                        </g>
                        <g id="s12hngev" class="accid">
                           <use xlink:href="#E442-b5y96xg" transform="translate(3886, 4332) scale(0.72, 0.72)" />
                        </g>
                     </g>
                     <g id="tylhlme" class="note">
                        <g class="notehead">
                           <use xlink:href="#E0A4-b5y96xg" transform="translate(4928, 4332) scale(0.72, 0.72)" />
                        </g>
                        <g id="u1q86xkb" class="stem">
                           <path d="M5131 4302 L5131 3702" stroke-width="18" />
                        </g>
                        <g id="u1ynfbag" class="accid">
                           <use xlink:href="#E260-b5y96xg" transform="translate(4721, 4332) scale(0.72, 0.72)" />
                        </g>
                     </g>
                  </g>
               </g>
               <g id="j1x9fm1m" class="barLine">
                  <path d="M5720 3612 L5720 4332" stroke-width="27" />
               </g>
            </g>
            <g id="v1427ti2" class="measure">
               <g id="e13x71re" class="staff">
                  <path d="M5733 3612 L9179 3612" stroke-width="13" />
                  <path d="M5733 3792 L9179 3792" stroke-width="13" />
                  <path d="M5733 3972 L9179 3972" stroke-width="13" />
                  <path d="M5733 4152 L9179 4152" stroke-width="13" />
                  <path d="M5733 4332 L9179 4332" stroke-width="13" />
                  <g id="f3djybo" class="layer">
                     <g id="gpytwtp" class="note">
                        <g class="notehead">
                           <use xlink:href="#E0A4-b5y96xg" transform="translate(5901, 4332) scale(0.72, 0.72)" />
                        </g>
                        <g id="v11pueyw" class="stem">
                           <path d="M6104 4302 L6104 3702" stroke-width="18" />
                        </g>
                        <g id="hbyqltx" class="accid" />
                     </g>
                     <g id="if2hs2a" class="note">
                        <g class="notehead">
                           <use xlink:href="#E0A4-b5y96xg" transform="translate(6693, 4332) scale(0.72, 0.72)" />
                        </g>
                        <g id="wim576g" class="stem">
                           <path d="M6896 4302 L6896 3702" stroke-width="18" />
                        </g>
                        <g id="jt7t9ls" class="accid">
                           <use xlink:href="#E282-b5y96xg" transform="translate(6520, 4332) scale(0.72, 0.72)" />
                        </g>
                     </g>
                     <g id="k4pf2i5" class="note">
                        <g class="notehead">
                           <use xlink:href="#E0A4-b5y96xg" transform="translate(7484, 4332) scale(0.72, 0.72)" />
                        </g>
                        <g id="xthwhnc" class="stem">
                           <path d="M7687 4302 L7687 3702" stroke-width="18" />
                        </g>
                        <g id="l1g0udjw" class="accid" />
                     </g>
                     <g id="mrzcz3x" class="note">
                        <g class="notehead">
                           <use xlink:href="#E0A4-b5y96xg" transform="translate(8275, 4332) scale(0.72, 0.72)" />
                        </g>
                        <g id="yveb4s8" class="stem">
                           <path d="M8478 4302 L8478 3702" stroke-width="18" />
                        </g>
                        <g id="n1625w3" class="accid">
                           <use xlink:href="#E262-b5y96xg" transform="translate(8051, 4332) scale(0.72, 0.72)" />
                        </g>
                     </g>
                  </g>
               </g>
               <g id="d1u6wngw" class="barLine">
                  <path d="M9067 3612 L9067 4332" stroke-width="27" />
                  <path d="M9166 3612 L9166 4332" stroke-width="27" />
               </g>
            </g>
            <g id="y1ubsxl3" class="sb" />
            <g id="o1xp2nbg" class="measure">
               <g id="x1wxme7h" class="staff">
                  <path d="M9179 3612 L13310 3612" stroke-width="13" />
                  <path d="M9179 3792 L13310 3792" stroke-width="13" />
                  <path d="M9179 3972 L13310 3972" stroke-width="13" />
                  <path d="M9179 4152 L13310 4152" stroke-width="13" />
                  <path d="M9179 4332 L13310 4332" stroke-width="13" />
                  <g id="y14dai4l" class="keySig">
                     <g id="z1podvgo" class="keyAccid">
                        <use xlink:href="#E260-b5y96xg" transform="translate(9269, 4152) scale(0.72, 0.72)" />
                     </g>
                     <g id="a5ky7u" class="keyAccid">
                        <use xlink:href="#E260-b5y96xg" transform="translate(9468, 3972) scale(0.72, 0.72)" />
                     </g>
                     <g id="b1ak1rrh" class="keyAccid">
                        <use xlink:href="#E442-b5y96xg" transform="translate(9667, 3702) scale(0.72, 0.72)" />
                     </g>
                  </g>
                  <g id="egfj55a" class="layer">
                     <g id="fnz6y41" class="note">
                        <g class="notehead">
                           <use xlink:href="#E0A4-b5y96xg" transform="translate(10131, 4422) scale(0.72, 0.72)" />
                        </g>
                        <g id="zatpz30" class="stem">
                           <path d="M10334 4392 L10334 3792" stroke-width="18" />
                        </g>
                     </g>
                     <g id="g4axeb2" class="note">
                        <g class="notehead">
                           <use xlink:href="#E0A4-b5y96xg" transform="translate(10923, 4332) scale(0.72, 0.72)" />
                        </g>
                        <g id="a118r9wo" class="stem">
                           <path d="M11126 4302 L11126 3702" stroke-width="18" />
                        </g>
                        <g id="h25mhjg" class="accid" />
                     </g>
                     <g id="i1floylo" class="note">
                        <g class="notehead">
                           <use xlink:href="#E0A4-b5y96xg" transform="translate(11714, 4242) scale(0.72, 0.72)" />
                        </g>
                        <g id="bou3mbx" class="stem">
                           <path d="M11917 4212 L11917 3612" stroke-width="18" />
                        </g>
                     </g>
                     <g id="j1wxuofr" class="note">
                        <g class="notehead">
                           <use xlink:href="#E0A4-b5y96xg" transform="translate(12505, 4152) scale(0.72, 0.72)" />
                        </g>
                        <g id="c18qffiq" class="stem">
                           <path d="M12708 4122 L12708 3522" stroke-width="18" />
                        </g>
                        <g id="kd7szgt" class="accid" />
                     </g>
                  </g>
               </g>
               <g id="wakpd7c" class="barLine">
                  <path d="M13297 3612 L13297 4332" stroke-width="27" />
               </g>
            </g>
            <g id="l1qhlyik" class="measure">
               <g id="ugjj2au" class="staff">
                  <path d="M13310 3612 L16657 3612" stroke-width="13" />
                  <path d="M13310 3792 L16657 3792" stroke-width="13" />
                  <path d="M13310 3972 L16657 3972" stroke-width="13" />
                  <path d="M13310 4152 L16657 4152" stroke-width="13" />
                  <path d="M13310 4332 L16657 4332" stroke-width="13" />
                  <g id="vs42cin" class="layer">
                     <g id="woo8e5i" class="note">
                        <g class="notehead">
                           <use xlink:href="#E0A4-b5y96xg" transform="translate(13478, 4062) scale(0.72, 0.72)" />
                        </g>
                        <g id="d1jjha37" class="stem">
                           <path d="M13681 4032 L13681 3432" stroke-width="18" />
                        </g>
                     </g>
                     <g id="x1fxsyji" class="note">
                        <g class="notehead">
                           <use xlink:href="#E0A4-b5y96xg" transform="translate(14270, 3972) scale(0.72, 0.72)" />
                        </g>
                        <g id="e17c2sgf" class="stem">
                           <path d="M14279 4002 L14279 4572" stroke-width="18" />
                        </g>
                        <g id="y1x811ib" class="accid" />
                     </g>
                     <g id="z1i1zqh7" class="note">
                        <g class="notehead">
                           <use xlink:href="#E0A4-b5y96xg" transform="translate(15061, 3882) scale(0.72, 0.72)" />
                        </g>
                        <g id="fv9ip6v" class="stem">
                           <path d="M15070 3912 L15070 4512" stroke-width="18" />
                        </g>
                     </g>
                     <g id="ai3qgoi" class="note">
                        <g class="notehead">
                           <use xlink:href="#E0A4-b5y96xg" transform="translate(15852, 3792) scale(0.72, 0.72)" />
                        </g>
                        <g id="gjxm0iy" class="stem">
                           <path d="M15861 3822 L15861 4422" stroke-width="18" />
                        </g>
                     </g>
                  </g>
               </g>
               <g id="t9e6at5" class="barLine">
                  <path d="M16644 3612 L16644 4332" stroke-width="27" />
               </g>
            </g>
            <g id="l18ezze3" class="sb" />
            <g id="b1sfrsx0" class="measure">
               <g id="k1sk8bgd" class="staff">
                  <path d="M16657 3612 L20004 3612" stroke-width="13" />
                  <path d="M16657 3792 L20004 3792" stroke-width="13" />
                  <path d="M16657 3972 L20004 3972" stroke-width="13" />
                  <path d="M16657 4152 L20004 4152" stroke-width="13" />
                  <path d="M16657 4332 L20004 4332" stroke-width="13" />
                  <g id="ma6f0ye" class="layer">
                     <g id="n1a0bkm" class="note">
                        <g class="notehead">
                           <use xlink:href="#E0A4-b5y96xg" transform="translate(16825, 3972) scale(0.72, 0.72)" />
                        </g>
                        <g id="ho7qio2" class="stem">
                           <path d="M16834 4002 L16834 4572" stroke-width="18" />
                        </g>
                        <g id="ojbpap8" class="accid" />
                     </g>
                     <g id="pggw213" class="note">
                        <g class="notehead">
                           <use xlink:href="#E0A4-b5y96xg" transform="translate(17617, 3972) scale(0.72, 0.72)" />
                        </g>
                        <g id="ins9whu" class="stem">
                           <path d="M17626 4002 L17626 4572" stroke-width="18" />
                        </g>
                        <g id="q1sv9yqh" class="accid">
                           <use xlink:href="#E261-b5y96xg" transform="translate(17452, 3972) scale(0.72, 0.72)" />
                        </g>
                     </g>
                     <g id="rrf719v" class="note">
                        <g class="notehead">
                           <use xlink:href="#E0A4-b5y96xg" transform="translate(18408, 3972) scale(0.72, 0.72)" />
                        </g>
                        <g id="jqsm5e8" class="stem">
                           <path d="M18417 4002 L18417 4572" stroke-width="18" />
                        </g>
                        <g id="sx46izd" class="accid" />
                     </g>
                     <g id="t1oycbz0" class="note">
                        <g class="notehead">
                           <use xlink:href="#E0A4-b5y96xg" transform="translate(19199, 3972) scale(0.72, 0.72)" />
                        </g>
                        <g id="kkijtok" class="stem">
                           <path d="M19208 4002 L19208 4572" stroke-width="18" />
                        </g>
                        <g id="u1wv71hz" class="accid">
                           <use xlink:href="#E442-b5y96xg" transform="translate(18948, 3972) scale(0.72, 0.72)" />
                        </g>
                     </g>
                  </g>
               </g>
               <g id="j1sb58nq" class="barLine">
                  <path d="M19991 3612 L19991 4332" stroke-width="27" />
               </g>
            </g>
         </g>
         <g id="ajltnew" class="system">
            <g id="i4p91b3" class="labelAbbr">
               <text x="914" y="6222" text-anchor="end" font-size="0px">
                  <tspan id="jrcm8fj" class="text">
                     <tspan font-size="405px">Pno.</tspan>
                  </tspan>
               </text>
            </g>
            <g id="vlmtm3g" class="measure">
               <g id="rgbox2u" class="mNum autogenerated">
                  <text x="1094" y="5529" text-anchor="middle" font-size="0px">
                     <tspan id="s1tnxuu5" class="text">
                        <tspan font-size="324px">10</tspan>
                     </tspan>
                  </text>
               </g>
               <g id="eftjlc8" class="staff">
                  <path d="M1094 5772 L6080 5772" stroke-width="13" />
                  <path d="M1094 5952 L6080 5952" stroke-width="13" />
                  <path d="M1094 6132 L6080 6132" stroke-width="13" />
                  <path d="M1094 6312 L6080 6312" stroke-width="13" />
                  <path d="M1094 6492 L6080 6492" stroke-width="13" />
                  <g id="sy0xuxy" class="clef">
                     <use xlink:href="#E050-b5y96xg" transform="translate(1184, 6312) scale(0.72, 0.72)" />
                  </g>
                  <g id="t1d6a1ib" class="keySig">
                     <g id="u691tbq" class="keyAccid">
                        <use xlink:href="#E260-b5y96xg" transform="translate(1847, 6312) scale(0.72, 0.72)" />
                     </g>
                     <g id="vvmx0o5" class="keyAccid">
                        <use xlink:href="#E260-b5y96xg" transform="translate(2046, 6132) scale(0.72, 0.72)" />
                     </g>
                     <g id="w1g9ts9f" class="keyAccid">
                        <use xlink:href="#E442-b5y96xg" transform="translate(2245, 5862) scale(0.72, 0.72)" />
                     </g>
                  </g>
                  <g id="f1c8xzo5" class="layer">
                     <g id="gwn89va" class="note">
                        <g class="notehead">
                           <use xlink:href="#E0A4-b5y96xg" transform="translate(2714, 6132) scale(0.72, 0.72)" />
                        </g>
                        <g id="l1f3hs1a" class="stem">
                           <path d="M2723 6162 L2723 6732" stroke-width="18" />
                        </g>
                        <g id="hi7fdxk" class="accid" />
                     </g>
                     <g id="i16ujsbk" class="note">
                        <g class="notehead">
                           <use xlink:href="#E0A4-b5y96xg" transform="translate(3528, 6132) scale(0.72, 0.72)" />
                        </g>
                        <g id="m1op1jpl" class="stem">
                           <path d="M3537 6162 L3537 6732" stroke-width="18" />
                        </g>
                        <g id="j1kggiul" class="accid">
                           <use xlink:href="#E262-b5y96xg" transform="translate(3304, 6132) scale(0.72, 0.72)" />
                        </g>
                     </g>
                     <g id="kr7mk00" class="note">
                        <g class="notehead">
                           <use xlink:href="#E0A4-b5y96xg" transform="translate(4341, 6132) scale(0.72, 0.72)" />
                        </g>
                        <g id="npeys80" class="stem">
                           <path d="M4350 6162 L4350 6732" stroke-width="18" />
                        </g>
                        <g id="l1xg33lk" class="accid">
                           <use xlink:href="#E260-b5y96xg" transform="translate(4134, 6132) scale(0.72, 0.72)" />
                        </g>
                     </g>
                     <g id="m16z98sz" class="note">
                        <g class="notehead">
                           <use xlink:href="#E0A4-b5y96xg" transform="translate(5155, 6132) scale(0.72, 0.72)" />
                        </g>
                        <g id="o106y6en" class="stem">
                           <path d="M5164 6162 L5164 6732" stroke-width="18" />
                        </g>
                        <g id="n1qvzyne" class="accid" />
                     </g>
                  </g>
               </g>
               <g id="d154enqe" class="barLine">
                  <path d="M5968 5772 L5968 6492" stroke-width="27" />
                  <path d="M6067 5772 L6067 6492" stroke-width="27" />
               </g>
            </g>
            <g id="ycgde58" class="sb" />
            <g id="o11yktj9" class="measure">
               <g id="xeq532p" class="staff">
                  <path d="M6080 5772 L9520 5772" stroke-width="13" />
                  <path d="M6080 5952 L9520 5952" stroke-width="13" />
                  <path d="M6080 6132 L9520 6132" stroke-width="13" />
                  <path d="M6080 6312 L9520 6312" stroke-width="13" />
                  <path d="M6080 6492 L9520 6492" stroke-width="13" />
                  <g id="q1ewesro" class="keySig" />
                  <g class="ledgerLines below">
                     <path d="M6205 6672 L6513 6672" stroke-width="22" />
                  </g>
                  <g id="b1x1igsc" class="layer">
                     <g id="cwodiiq" class="note">
                        <g class="notehead">
                           <use xlink:href="#E0A4-b5y96xg" transform="translate(6253, 6672) scale(0.72, 0.72)" />
                        </g>
                        <g id="pf70zs5" class="stem">
                           <path d="M6456 6642 L6456 6042" stroke-width="18" />
                        </g>
                     </g>
                     <g id="d168ocea" class="note">
                        <g class="notehead">
                           <use xlink:href="#E0A4-b5y96xg" transform="translate(7067, 6582) scale(0.72, 0.72)" />
                        </g>
                        <g id="qsk8xw4" class="stem">
                           <path d="M7270 6552 L7270 5952" stroke-width="18" />
                        </g>
                     </g>
                     <g id="e1hlbrd2" class="note">
                        <g class="notehead">
                           <use xlink:href="#E0A4-b5y96xg" transform="translate(7880, 6492) scale(0.72, 0.72)" />
                        </g>
                        <g id="rqsdcw2" class="stem">
                           <path d="M8083 6462 L8083 5862" stroke-width="18" />
                        </g>
                     </g>
                     <g id="f1xogyyz" class="note">
                        <g class="notehead">
                           <use xlink:href="#E0A4-b5y96xg" transform="translate(8694, 6402) scale(0.72, 0.72)" />
                        </g>
                        <g id="sd0lgsw" class="stem">
                           <path d="M8897 6372 L8897 5772" stroke-width="18" />
                        </g>
                     </g>
                  </g>
               </g>
               <g id="w2wppcc" class="barLine">
                  <path d="M9507 5772 L9507 6492" stroke-width="27" />
               </g>
            </g>
            <g id="g1usr5m7" class="measure">
               <g id="pglpd3i" class="staff">
                  <path d="M9520 5772 L12960 5772" stroke-width="13" />
                  <path d="M9520 5952 L12960 5952" stroke-width="13" />
                  <path d="M9520 6132 L12960 6132" stroke-width="13" />
                  <path d="M9520 6312 L12960 6312" stroke-width="13" />
                  <path d="M9520 6492 L12960 6492" stroke-width="13" />
                  <g id="qasm66h" class="layer">
                     <g id="rl8e368" class="note">
                        <g class="notehead">
                           <use xlink:href="#E0A4-b5y96xg" transform="translate(9693, 6312) scale(0.72, 0.72)" />
                        </g>
                        <g id="t112u8b" class="stem">
                           <path d="M9896 6282 L9896 5682" stroke-width="18" />
                        </g>
                     </g>
                     <g id="sk4vlbc" class="note">
                        <g class="notehead">
                           <use xlink:href="#E0A4-b5y96xg" transform="translate(10507, 6222) scale(0.72, 0.72)" />
                        </g>
                        <g id="u1muqbja" class="stem">
                           <path d="M10710 6192 L10710 5592" stroke-width="18" />
                        </g>
                     </g>
                     <g id="tmi4t4z" class="note">
                        <g class="notehead">
                           <use xlink:href="#E0A4-b5y96xg" transform="translate(11320, 6132) scale(0.72, 0.72)" />
                        </g>
                        <g id="v2xtcn" class="stem">
                           <path d="M11329 6162 L11329 6732" stroke-width="18" />
                        </g>
                     </g>
                     <g id="uirgjrl" class="note">
                        <g class="notehead">
                           <use xlink:href="#E0A4-b5y96xg" transform="translate(12134, 6042) scale(0.72, 0.72)" />
                        </g>
                        <g id="wrj9113" class="stem">
                           <path d="M12143 6072 L12143 6672" stroke-width="18" />
                        </g>
                     </g>
                  </g>
               </g>
               <g id="oue5jo0" class="barLine">
                  <path d="M12947 5772 L12947 6492" stroke-width="27" />
               </g>
            </g>
            <g id="f1ej89l6" class="sb" />
            <g id="vxn46cy" class="measure">
               <g id="e1o4pu7w" class="staff">
                  <path d="M12960 5772 L16400 5772" stroke-width="13" />
                  <path d="M12960 5952 L16400 5952" stroke-width="13" />
                  <path d="M12960 6132 L16400 6132" stroke-width="13" />
                  <path d="M12960 6312 L16400 6312" stroke-width="13" />
                  <path d="M12960 6492 L16400 6492" stroke-width="13" />
                  <g id="g1wdjr0y" class="layer">
                     <g id="hwow18u" class="note">
                        <g class="notehead">
                           <use xlink:href="#E0A4-b5y96xg" transform="translate(13133, 6132) scale(0.72, 0.72)" />
                        </g>
                        <g id="x1stpznr" class="stem">
                           <path d="M13142 6162 L13142 6732" stroke-width="18" />
                        </g>
                     </g>
                     <g id="i1kp6kqa" class="note">
                        <g class="notehead">
                           <use xlink:href="#E0A4-b5y96xg" transform="translate(13947, 6132) scale(0.72, 0.72)" />
                        </g>
                        <g id="y1v9cll1" class="stem">
                           <path d="M13956 6162 L13956 6732" stroke-width="18" />
                        </g>
                        <g id="jgvd0xx" class="accid">
                           <use xlink:href="#E30B-b5y96xg" transform="translate(13655, 6132) scale(0.72, 0.72)" />
                        </g>
                     </g>
                     <g id="kelie08" class="note">
                        <g class="notehead">
                           <use xlink:href="#E0A4-b5y96xg" transform="translate(14760, 6132) scale(0.72, 0.72)" />
                        </g>
                        <g id="z1auvpno" class="stem">
                           <path d="M14769 6162 L14769 6732" stroke-width="18" />
                        </g>
                        <g id="lbgwhd9" class="accid">
                           <use xlink:href="#E319-b5y96xg" transform="translate(14423, 6132) scale(0.72, 0.72)" />
                        </g>
                     </g>
                     <g id="m36897n" class="note">
                        <g class="notehead">
                           <use xlink:href="#E0A4-b5y96xg" transform="translate(15574, 6132) scale(0.72, 0.72)" />
                        </g>
                        <g id="a1elludr" class="stem">
                           <path d="M15583 6162 L15583 6732" stroke-width="18" />
                        </g>
                        <g id="nwgrv23" class="accid" />
                     </g>
                  </g>
               </g>
               <g id="d1m2jc8e" class="barLine">
                  <path d="M16387 5772 L16387 6492" stroke-width="27" />
               </g>
            </g>
            <g id="o14js54t" class="measure">
               <g id="xpqgycq" class="staff">
                  <path d="M16400 5772 L20002 5772" stroke-width="13" />
                  <path d="M16400 5952 L20002 5952" stroke-width="13" />
                  <path d="M16400 6132 L20002 6132" stroke-width="13" />
                  <path d="M16400 6312 L20002 6312" stroke-width="13" />
                  <path d="M16400 6492 L20002 6492" stroke-width="13" />
                  <g id="y1je3d3u" class="layer">
                     <g id="z1bwck0k" class="note">
                        <g class="notehead">
                           <use xlink:href="#E0A4-b5y96xg" transform="translate(16573, 6132) scale(0.72, 0.72)" />
                        </g>
                        <g id="bqnj7tn" class="stem">
                           <path d="M16582 6162 L16582 6732" stroke-width="18" />
                        </g>
                     </g>
                     <g id="a14jdlaw" class="note">
                        <g class="notehead">
                           <use xlink:href="#E0A4-b5y96xg" transform="translate(17387, 6132) scale(0.72, 0.72)" />
                        </g>
                        <g id="c1xgjjd9" class="stem">
                           <path d="M17396 6162 L17396 6732" stroke-width="18" />
                        </g>
                        <g id="b1m4xi1q" class="accid">
                           <use xlink:href="#E30A-b5y96xg" transform="translate(17095, 6132) scale(0.72, 0.72)" />
                        </g>
                     </g>
                     <g id="c2v4ywl" class="note">
                        <g class="notehead">
                           <use xlink:href="#E0A4-b5y96xg" transform="translate(18200, 6132) scale(0.72, 0.72)" />
                        </g>
                        <g id="d7q7uu9" class="stem">
                           <path d="M18209 6162 L18209 6732" stroke-width="18" />
                        </g>
                        <g id="ddi3xoh" class="accid">
                           <use xlink:href="#E318-b5y96xg" transform="translate(17863, 6132) scale(0.72, 0.72)" />
                        </g>
                     </g>
                     <g id="e12iivqw" class="note">
                        <g class="notehead">
                           <use xlink:href="#E0A4-b5y96xg" transform="translate(19014, 6132) scale(0.72, 0.72)" />
                        </g>
                        <g id="e1x86nhv" class="stem">
                           <path d="M19023 6162 L19023 6732" stroke-width="18" />
                        </g>
                        <g id="fp5ypjf" class="accid" />
                     </g>
                  </g>
               </g>
               <g id="w17k3xdi" class="barLine">
                  <path d="M19827 5772 L19827 6492" stroke-width="27" />
                  <path d="M19957 5772 L19957 6492" stroke-width="90" />
               </g>
            </g>
            <g id="pfo6ef0" class="systemMilestoneEnd gn245nf" />
            <g id="q1x47vr6" class="systemMilestoneEnd o1vlzmzt" />
         </g>
         <g id="rqxcke4" class="pageMilestoneEnd m1r58plr" />
         <g id="snxtv4f" class="pageMilestoneEnd l24b4r8" />
         <g id="ste96q7" class="pgHead">
            <text font-size="0px">
               <tspan id="q5tpzsn" class="rend" x="10000" y="278" text-anchor="middle">
                  <tspan id="ra2rgzs" class="text">
                     <tspan font-size="405px">Keys and accidentals</tspan>
                  </tspan>
               </tspan>
            </text>
            <text font-size="0px">
               <tspan id="tgu53dk" class="rend" x="10000" y="644" text-anchor="middle">
                  <tspan id="ur8t7kl" class="text">
                     <tspan font-size="405px">Advanced accidentals</tspan>
                  </tspan>
               </tspan>
            </text>
         </g>
         <g id="t1c8r49u" class="pgFoot autogenerated">
            <g id="u1uc8fqa" class="fig">
               <g class="svg" transform="translate(7750, 28099) scale(10.000000, 10.000000)">
                  <g>
                     <path fill="#00000" d="M 17.11278,49.26451 V 10.367554 h 12.696511 c 3.288815,7.336676 6.71267,14.610456 10.127281,21.888976 3.419998,-7.484684 6.255515,-14.204887 9.58887,-21.909915 2.436207,0.103726 4.316952,0.08453 6.484294,-0.05808 V 49.264423 H 50.274275 C 50.145222,38.35639 50.016136,27.448368 49.887066,16.540329 45.003488,27.315459 39.967448,38.433564 35.083854,49.208695 34.678996,49.343717 34.426583,49.135619 34.021726,49.270644 29.46588,39.330716 24.910049,29.390805 20.354201,19.450876 20.224341,29.388756 20.09461,39.326619 19.964815,49.264497 H 17.11278 Z M 36.754144,39.324695 C 32.721221,30.512695 28.6883,21.700679 24.655394,12.888662 22.530527,12.750737 22.656775,12.71031 20.714356,12.813974 v 0.966497 c 4.612938,9.99784 9.609439,20.748709 13.87298,30.081745 0.722248,-1.512523 1.444528,-3.025014 2.166808,-4.537521 z m 25.738417,9.939815 c 0,-12.965651 0,-25.931305 0,-38.896956 10.084388,0 20.168791,0 30.253178,0 0,0.960416 0,1.920849 0,2.881265 -6.482825,0 -12.965652,0 -19.448478,0 0,4.802097 0,9.604178 0,14.406277 5.52241,0 11.044819,0 16.567229,0 0,0.960415 0,1.920832 0,2.881248 -5.52241,0 -11.044819,0 -16.567229,0 0,5.282306 0,10.564611 0,15.846917 6.963035,0 13.926068,0 20.889103,0 0,0.960416 0,1.920832 0,2.881249 -10.564597,0 -21.129207,0 -31.693803,0 z m 4.321874,-2.160937 c 0,-11.765131 0,-23.530263 0,-35.295394 -0.720312,0 -1.440625,0 -2.160937,0 0,11.765131 0,23.530263 0,35.295394 0.720312,0 1.440625,0 2.160937,0 z m 32.41413,2.160937 c 0,-12.965651 0,-25.931305 0,-38.896956 2.401045,0 4.802095,0 7.203135,0 0,12.965651 0,25.931305 0,38.896956 -2.40104,0 -4.80209,0 -7.203135,0 z m 2.881265,-2.160937 c 0,-11.765131 0,-23.530263 0,-35.295394 -0.72031,0 -1.44064,0 -2.160953,0 0,11.765131 0,23.530263 0,35.295394 0.720313,0 1.440643,0 2.160953,0 z" />
                     <path fill="#00000" d="m 346.3,6.7 c -3.1,0.5 -4.9,4.4 -2.7,6.8 1.2,1.4 2.7,2.4 4.1,3.5 -2.4,5.3 -7.7,8.3 -11.9,12.1 -3.7,2.8 -7,6.2 -9.7,9.9 -2.2,-0.8 -0.91472,-7.718806 -0.62677,-9.5 0.28796,-1.781194 0.72677,-6.4 2.92677,-8.7 1.3,-1.9 3,-3.5 4.5,-5.2 1.2,-3.4 -3.2,-4.9 -5.8,-4.6 -7.3,-0.5 -14.6,2 -20,6.8 -5,4.6 -10,10.1 -11.5,17 -0.9,3.5 -0.2,7.5 2.8,9.9 2.5,2.8 7.4,2.9 9.8,-0.2 1.7,-2.3 3.2,-4.8 3.8,-7.6 -0.1,-2.6 -4.4,-2.3 -4.3,0.2 1.2,2.4 -0.9,4.7 -2.7,6.2 -1.7,0.9 -4.7,0.7 -4.8,-1.7 -1,-5.8 2.1,-11.3 5.2,-16.1 4,-5.8 9.8,-11.2 17.2,-11.8 1.6,0 8.1,-1.2 6.8,1.4 -2.8,2.8 -5.6,6.1 -6,10.3 -1.6,7.7 0.1,15.7 -2.3,23.2 -1.1,3.9 2,2.6 2.5,0.2 3.3,-7.4 8.9,-13.4 15.1,-18.5 4.2,-3.9 9.5,-7.1 11.9,-12.6 1.3,-3.6 1.2,-9 -2.7,-10.9 -0.50431,-0.1767056 -1.06965,-0.1654404 -1.6,-0.1 z m 66,14.5 c -2,0.8 -1.8,4.9 0.8,4.4 3.4,0.4 2.9,-6.2 -0.8,-4.4 z m 0.6,7.3 c -1.3,0.5 -7.6,0.5 -5.4,2.2 4,-0.3 0.7,4.5 0.6,6.7 -0.4,2.9 -2.4,5.9 -1.2,8.8 2.7,1.7 5.6,-0.8 6.8,-3.2 1.6,-1.4 -0.5,-3 -1.2,-0.9 -0.4,0.8 -2.4,3.5 -2.6,1.8 1.1,-5 2.7,-9.9 3.9,-14.9 l -0.1,-0.5 h -0.9 z m -65.1,0.2 c -6.5,1.6 -10.5,9.5 -8.2,15.7 2.1,3.4 7.4,2.9 10.1,0.4 2,-0.2 3.6,-5.3 1,-3.4 -1.4,2 -4,4.2 -6.5,2.8 -2.2,-1.9 -1.9,-5.7 1.7,-5.3 3.1,-0.9 6.9,-2.1 8.1,-5.5 0.9,-2.7 -1.6,-5.2 -4.3,-4.8 h -1.1 -0.7 z m 13.6,0 c -2.2,0 -8.5,1.8 -2.9,2.3 0.9,1.9 -1,4.9 -1.1,7.2 -0.5,2.9 -1.4,5.7 -1.7,8.7 3.7,0.7 3.8,-2.6 4.4,-5.3 0.9,-3.3 1.6,-7 4.1,-9.5 2.4,1.6 6.8,-0.7 3.7,-3.4 -2.9,-0.5 -4.8,2.4 -6.2,4.3 0,-1.2 2.4,-5 -0.2,-4.3 z m 15.8,0 c -6.4,1.3 -9.6,9.1 -7.7,14.9 1.9,4 7.7,3.9 11,1.7 4.1,-3 6,-8.9 4.4,-13.7 -1.3,-3 -4.8,-3.2 -7.6,-3 z m 17,0 c -2.3,0 -8.8,1.9 -3,2.4 0.4,2.5 -1,5.7 -1.4,8.4 -0.7,2.4 -1.8,7.5 2.1,7.2 3.8,-0.1 6.5,-3.5 8.5,-6.3 2,-3.2 4.5,-7 3.3,-10.9 -3.7,-3 -3.6,2.6 -3.1,5.1 -0.7,3.8 -2.7,7.9 -6.2,9.8 -3.6,0.6 -1,-4.3 -0.8,-6.1 0.6,-3.2 1.6,-6.3 1.9,-9.5 h -1.1 z m 30.6,0 c -6.3,1.2 -9.5,8.9 -7.8,14.7 1.5,4 7.2,4.2 10.5,2.4 4.6,-2.8 6.6,-9.3 4.8,-14.3 -1.4,-2.8 -4.8,-3 -7.5,-2.8 z m -75.4,1.7 c 2.1,1.5 0.2,4.7 -1.6,5.7 -1.1,0.4 -5.5,3.4 -4.6,0.7 0.8,-2.7 2.2,-6.2 5.3,-6.6 l 0.9,0.1 z m 30.8,0 c 2.6,1.5 1.3,5.2 0.8,7.6 -0.8,2.7 -1.9,5.9 -4.7,7.1 -5.1,0.8 -4,-5.8 -2.8,-8.8 1,-2.8 3,-6.8 6.7,-5.8 z m 47.1,-0.1 c 2.9,0.7 2,4.7 1.5,6.8 -0.7,3 -1.8,6.7 -5,8 -4.7,0.8 -4,-5.1 -3,-7.9 0.9,-3 2.7,-7.3 6.5,-6.8 z" />
                     <g>
                        <path d="m 116.56641,37.118164 q 0,-3.251953 2.92968,-6.298828 2.90039,-3.046875 5.99121,-3.046875 1.14258,0 1.81641,0.527344 0.67383,0.527343 0.67383,1.567382 0,2.109375 -2.47559,3.618165 -2.46093,1.49414 -5.18554,1.831054 l -0.83496,0.102539 q -0.19043,0.600586 -0.26368,0.966797 -0.0732,0.351563 -0.0732,0.893555 0,1.289062 0.83496,2.006836 0.84961,0.717773 2.00684,0.717773 1.09863,0 2.3291,-0.732422 0.70312,-0.424804 2.03613,-1.523437 l 0.38086,0.336914 q -0.65918,0.834961 -1.88965,1.713867 -2.18261,1.567383 -4.37988,1.567383 -1.55273,0 -2.72461,-1.098633 -1.17187,-1.098633 -1.17187,-3.149414 z m 3.12011,-2.358398 q 2.79786,-0.410157 4.55567,-1.962891 Q 126,31.229492 126,29.691406 q 0,-0.55664 -0.26367,-0.878906 -0.26367,-0.336914 -0.77637,-0.336914 -0.95215,0 -1.875,0.820312 -0.9082,0.805664 -1.64062,1.831055 -0.77637,1.201172 -1.23047,2.299805 -0.24903,0.585937 -0.52735,1.333008 z" />
                        <path d="m 129.47168,41 2.53418,-9.052734 q 0.32226,-1.142579 0.36621,-1.376954 0.0586,-0.249023 0.0586,-0.527343 0,-0.424805 -0.24902,-0.65918 -0.23437,-0.249023 -0.9375,-0.249023 -0.17578,0 -0.35156,0.0293 -0.16113,0.01465 -0.36621,0.04395 v -0.498047 q 0.95215,-0.146484 1.34765,-0.219727 0.41016,-0.07324 0.87891,-0.175781 l 2.62207,-0.571289 q 0.0879,0.05859 0.11719,0.131836 l -1.94824,6.298828 q 1.7871,-2.739258 2.98828,-4.072266 2.10937,-2.358398 3.77929,-2.358398 0.64453,0 1.11328,0.249023 0.89356,0.483399 0.89356,1.743165 0,0.351562 -0.0732,0.732421 -0.0732,0.38086 -0.19043,0.820313 l -1.91895,7.016601 q -0.0586,0.219727 -0.13183,0.541993 -0.0733,0.307617 -0.0733,0.439453 0,0.219726 0.10254,0.395508 0.10254,0.175781 0.33692,0.175781 0.38086,0 0.8789,-0.439453 0.49805,-0.454102 1.62598,-1.918946 l 0.4248,0.38086 q -1.20117,1.625976 -1.90429,2.285156 -1.20117,1.157227 -2.29981,1.157227 -0.49804,0 -0.96679,-0.322266 -0.45411,-0.336914 -0.45411,-1.201172 0,-0.249023 0.0293,-0.527344 0.0439,-0.27832 0.10254,-0.483398 l 1.8457,-7.119141 q 0.14649,-0.585937 0.19043,-0.952148 0.0586,-0.38086 0.0586,-0.541992 0,-0.351563 -0.17578,-0.600586 -0.16114,-0.263672 -0.58594,-0.263672 -1.09863,0 -2.76856,1.992187 -0.98144,1.186524 -1.99218,2.827149 -0.77637,1.274414 -1.23047,2.490234 Q 132.70898,37.821289 131.74219,41 Z" />
                        <path d="m 149.12988,33.5 q 0,0.908203 0.27832,1.450195 0.46875,0.893555 1.68457,0.893555 1.31836,0 2.34375,-1.669922 1.04004,-1.68457 1.04004,-3.706055 0,-0.966796 -0.4248,-1.508789 -0.42481,-0.55664 -1.27442,-0.55664 -1.64062,0 -2.65136,1.743164 -0.9961,1.743164 -0.9961,3.354492 z m 0.5127,13.066406 q 1.74316,0 2.88574,-0.834961 1.15723,-0.834961 1.15723,-1.992187 0,-0.878906 -0.60059,-1.479492 -0.32226,-0.322266 -1.04004,-0.688477 -0.60058,-0.292969 -2.03613,-0.834961 -1.4209,-0.556641 -1.64063,-0.556641 -0.38086,0 -1.47949,1.010743 -1.09863,1.02539 -1.09863,2.314453 0,1.948242 1.68457,2.680664 0.87891,0.380859 2.16797,0.380859 z m -5.47852,-2.680664 q 0,-1.098633 0.83496,-2.094726 0.84961,-0.981446 2.68067,-1.962891 -0.36621,-0.234375 -0.60059,-0.483398 -0.23437,-0.263672 -0.23437,-0.688477 0,-0.600586 0.83496,-1.376953 0.46875,-0.439453 1.52343,-1.157227 -0.9375,-0.351562 -1.61132,-0.996093 -0.82032,-0.864258 -0.82032,-2.241211 0,-2.211914 1.72852,-3.676758 1.72852,-1.464844 4.27734,-1.464844 1.33301,0 2.25586,0.424805 0.92285,0.410156 1.08399,0.688476 h 1.97754 v 1.171875 h -1.49414 q 0.0879,0.322266 0.13183,0.585938 0.0439,0.263672 0.0439,0.74707 0,2.373047 -1.84571,3.735352 -1.83105,1.362304 -3.95507,1.362304 -0.21973,0 -0.41016,-0.01465 -0.19043,-0.0293 -0.46875,-0.08789 -0.21973,0 -0.60059,0.424805 -0.3955,0.424805 -0.3955,0.761719 0,0.498047 3.22265,1.699218 3.20801,1.215821 3.20801,3.559571 0,1.757812 -1.61133,3.076172 -1.61133,1.333007 -4.86328,1.333007 -2.25586,0 -3.57422,-0.966796 -1.31836,-0.966797 -1.31836,-2.358399 z" />
                        <path d="m 165.03809,27.669922 q 0.13183,0 0.17578,0.08789 0.0586,0.07324 0.0586,0.175782 -0.0146,0.146484 -0.0293,0.219726 l -1.46484,5.668946 0.32227,-0.629883 q 1.05468,-2.06543 2.46093,-3.764649 1.4209,-1.713867 2.69532,-1.713867 0.68847,0 1.05468,0.454102 0.38086,0.454101 0.38086,1.040039 0,0.659179 -0.38086,1.098633 -0.36621,0.424804 -1.02539,0.424804 -0.4541,0 -0.68847,-0.175781 -0.23438,-0.175781 -0.36621,-0.410156 l -0.17579,-0.322266 q -0.0586,-0.08789 -0.14648,-0.131836 -0.0732,-0.05859 -0.19043,-0.05859 -0.57129,0 -1.65527,1.59668 -1.06934,1.59668 -1.91895,3.457031 -0.51269,1.12793 -1.14258,2.988282 Q 162.60645,38.84668 161.94727,41 h -2.25586 l 2.43164,-8.818359 q 0.20507,-0.761719 0.32226,-1.362305 0.13184,-0.600586 0.13184,-0.981445 0,-0.439454 -0.21973,-0.673829 -0.21972,-0.234375 -0.76172,-0.234375 -0.17578,0 -0.43945,0.0293 -0.26367,0.0293 -0.62988,0.07324 v -0.483399 l 0.58593,-0.117187 q 1.14258,-0.234375 2.49024,-0.498047 1.3623,-0.263672 1.43555,-0.263672 z" />
                        <path d="m 181.51758,30.423828 q 0,-1.054687 -0.4834,-1.552734 -0.4834,-0.498047 -1.17188,-0.498047 -2.38769,0 -4.43847,3.662109 -1.80176,3.222656 -1.80176,5.551758 0,1.171875 0.49805,1.713867 0.51269,0.527344 1.25976,0.527344 2.21192,0 4.2627,-3.55957 1.875,-3.237305 1.875,-5.844727 z m -1.83106,-2.709961 q 1.15723,0 1.78711,0.600586 0.33692,0.322266 0.52735,0.849609 l 0.0732,0.205079 0.32226,-1.113282 q 0.0586,-0.190429 0.10254,-0.249023 0.0439,-0.07324 0.20508,-0.08789 l 1.65527,-0.190429 q 0.13184,0 0.14649,0.05859 0.0293,0.04395 0,0.175782 -0.0586,0.190429 -0.0879,0.307617 -0.0293,0.102539 -0.0879,0.307617 l -1.34766,5.244141 q -0.43945,1.713867 -0.74707,2.958984 -0.54199,2.255859 -0.54199,2.578125 0,0.205078 0.10254,0.307617 0.11719,0.08789 0.27832,0.08789 0.13183,0 0.27832,-0.08789 0.16113,-0.08789 0.38086,-0.263672 l 0.24902,-0.205078 q 0.11719,-0.102539 0.26367,-0.234375 0.14649,-0.146484 0.35157,-0.351562 l 0.9082,-0.9375 0.35156,0.307617 q -1.52344,1.948242 -2.44629,2.651367 -0.92285,0.688477 -1.75781,0.688477 -0.54199,0 -0.84961,-0.38086 -0.29297,-0.380859 -0.29297,-0.952148 0,-0.527344 0.19043,-1.508789 0.20508,-0.996094 0.39551,-1.669922 -0.26367,0.439453 -0.89356,1.289062 -0.61523,0.834961 -1.52343,1.625977 -1.06934,0.952148 -2.05078,1.347656 -0.76172,0.263672 -1.46485,0.263672 -1.18652,0 -2.15332,-0.966797 -0.96679,-0.981445 -0.96679,-2.768555 0,-3.076171 2.7539,-6.416015 2.8418,-3.47168 5.88867,-3.47168 z" />
                        <path d="m 196.66406,27.772461 q 0.82031,0 1.25977,0.585937 0.43945,0.585938 0.43945,1.333008 0,1.977539 -3.91113,6.928711 -3.70606,4.702149 -4.43848,4.702149 -0.21972,0 -0.29297,-0.600586 -0.0439,-0.336914 -0.0439,-1.142578 0,-0.981446 -0.19043,-3.325196 -0.19043,-2.34375 -0.36621,-3.471679 -0.36621,-2.475586 -0.71778,-3.19336 -0.35156,-0.717773 -1.333,-0.717773 -0.16114,0 -0.38086,0.01465 -0.20508,0.01465 -0.4834,0.04395 v -0.380859 q 0.43945,-0.08789 1.8457,-0.395508 1.40625,-0.307617 1.49414,-0.336914 l 0.4834,-0.146484 q 0.20508,-0.05859 0.32227,0.234375 0.11718,0.27832 0.29296,1.054687 0.55665,2.548828 0.83497,5.024414 0.17578,1.538086 0.35156,4.555664 l 0.4834,-0.512695 q 1.50879,-1.59668 3.01757,-3.793945 1.50879,-2.197266 1.50879,-3.105469 0,-0.454101 -0.65918,-1.083984 -0.65918,-0.644532 -0.65918,-1.171875 0,-0.483399 0.32227,-0.791016 0.33691,-0.307617 0.82031,-0.307617 z" />
                        <path d="m 199.82812,37.118164 q 0,-3.251953 2.92969,-6.298828 2.90039,-3.046875 5.99121,-3.046875 1.14258,0 1.81641,0.527344 0.67383,0.527343 0.67383,1.567382 0,2.109375 -2.47559,3.618165 -2.46094,1.49414 -5.18555,1.831054 l -0.83496,0.102539 q -0.19043,0.600586 -0.26367,0.966797 -0.0732,0.351563 -0.0732,0.893555 0,1.289062 0.83496,2.006836 0.84961,0.717773 2.00684,0.717773 1.09863,0 2.3291,-0.732422 0.70312,-0.424804 2.03613,-1.523437 l 0.38086,0.336914 q -0.65918,0.834961 -1.88965,1.713867 -2.18262,1.567383 -4.37988,1.567383 -1.55274,0 -2.72461,-1.098633 -1.17188,-1.098633 -1.17188,-3.149414 z m 3.12012,-2.358398 q 2.79785,-0.410157 4.55567,-1.962891 1.75781,-1.567383 1.75781,-3.105469 0,-0.55664 -0.26367,-0.878906 -0.26368,-0.336914 -0.77637,-0.336914 -0.95215,0 -1.875,0.820312 -0.9082,0.805664 -1.64063,1.831055 -0.77636,1.201172 -1.23046,2.299805 -0.24903,0.585937 -0.52735,1.333008 z" />
                        <path d="m 215.23828,37.601562 q 0,0.893555 0.41016,1.567383 0.41015,0.65918 1.3916,0.65918 2.09473,0 4.02832,-3.369141 1.81641,-3.164062 1.81641,-5.991211 0,-0.893554 -0.29297,-1.479492 -0.29297,-0.585937 -1.18653,-0.585937 -2.22656,0 -4.30664,3.603515 -1.86035,3.222657 -1.86035,5.595703 z m 6.00586,-9.887695 q 1.15723,0 1.64063,0.556641 0.27832,0.322265 0.43945,1.098633 l 1.66992,-6.00586 q 0.0732,-0.249023 0.0879,-0.439453 0.0293,-0.205078 0.0293,-0.351562 0,-0.571289 -0.21973,-0.717774 -0.20508,-0.146484 -0.60058,-0.146484 -0.24903,0 -0.46875,0.01465 -0.20508,0.01465 -0.55665,0.04395 v -0.483399 q 1.65528,-0.219726 4.58497,-0.761719 l 0.13183,0.146485 -0.0293,0.161133 -2.8125,10.532226 -1.91894,6.972656 q -0.0586,0.234375 -0.10254,0.439453 -0.0293,0.19043 -0.0293,0.351563 0,0.395508 0.19043,0.512695 0.20508,0.117188 0.35157,0.117188 0.4248,0 1.20117,-0.747071 0.4541,-0.454101 1.24511,-1.40625 l 0.33692,0.322266 -0.20508,0.307617 q -0.54199,0.805664 -1.3916,1.640625 -1.50879,1.479492 -2.70996,1.479492 -0.39551,0 -0.71778,-0.175781 -0.60058,-0.351562 -0.60058,-1.259765 0,-0.307618 0.0879,-0.981446 0.0879,-0.673828 0.26367,-1.464843 -1.11328,1.699218 -2.44629,2.783203 -1.31836,1.083984 -2.88574,1.083984 -1.27441,0 -2.22656,-0.908203 -0.95215,-0.908203 -0.95215,-2.797852 0,-3.193359 2.92969,-6.5625 2.91504,-3.354492 5.68359,-3.354492 z" />
                        <path d="m 254.12988,29.530273 q 0,1.230469 -1.18652,3.251954 -0.65918,1.127929 -1.86035,2.739257 -1.23047,1.655274 -2.53418,3.266602 -2.06543,2.548828 -2.43164,2.548828 -0.16114,0 -0.20508,-0.131836 -0.044,-0.131836 -0.11719,-0.893555 l -0.86426,-9.125976 -6.0791,9.960937 q -0.0439,0.08789 -0.11719,0.117188 -0.0586,0.0293 -0.13183,0.0293 l -0.20508,-0.04395 -0.0293,-0.131836 -0.17578,-3.618164 q -0.0586,-1.21582 -0.17578,-2.504882 -0.10254,-1.303711 -0.20508,-2.25586 -0.30761,-2.651367 -0.65918,-3.251953 -0.33691,-0.600586 -1.25976,-0.600586 -0.17578,0 -0.35156,0.01465 -0.17579,0 -0.36622,0.0293 v -0.424804 q 0.60059,-0.102539 1.14258,-0.219727 0.55664,-0.117187 1.21582,-0.263672 l 1.37696,-0.351562 q 0.49804,0 1.01074,4.174805 0.27832,2.285156 0.49805,5.200195 l 5.75683,-9.09668 q 0.0586,-0.117187 0.14649,-0.19043 0.0879,-0.08789 0.20507,-0.08789 0.13184,0 0.17578,0.08789 0.0439,0.08789 0.0586,0.263672 l 0.98144,10.590821 q 0.10254,-0.131836 1.62598,-2.06543 1.52344,-1.948242 1.59668,-2.06543 1.09863,-1.582031 1.46484,-2.446289 0.23438,-0.55664 0.23438,-1.083984 0,-0.205078 -0.0586,-0.38086 -0.0586,-0.190429 -0.27833,-0.395507 L 251.87402,29.75 q -0.19043,-0.19043 -0.33691,-0.410156 -0.13184,-0.234375 -0.13184,-0.541992 0,-0.366211 0.24903,-0.747071 0.26367,-0.380859 0.9375,-0.380859 0.54199,0 1.04004,0.439453 0.49804,0.424805 0.49804,1.420898 z" />
                        <path d="m 261.17578,24.520508 q -0.60058,0 -1.02539,-0.46875 -0.4248,-0.46875 -0.4248,-1.12793 0,-0.673828 0.4248,-1.142578 0.42481,-0.46875 1.02539,-0.46875 0.60059,0 1.02539,0.46875 0.43945,0.46875 0.43945,1.142578 0,0.673828 -0.43945,1.142578 -0.4248,0.454102 -1.02539,0.454102 z m 0.35156,3.208008 q 0.0879,0.04395 0.0733,0.117187 l -2.95899,10.458984 q -0.20508,0.834961 -0.20508,0.996094 0,0.219727 0.0879,0.38086 0.0733,0.175781 0.36621,0.175781 0.49805,0 1.31836,-0.864258 0.4834,-0.512695 1.18653,-1.464844 l 0.38086,0.322266 -0.14649,0.205078 q -1.09863,1.538086 -1.8164,2.211914 -1.12793,1.054688 -2.19727,1.054688 -0.62988,0 -1.05469,-0.527344 -0.41015,-0.527344 -0.41015,-1.245117 0,-0.424805 0.0586,-0.732422 0.0586,-0.322266 0.21973,-0.9375 l 2.05078,-7.529297 q 0.0439,-0.175781 0.0732,-0.322266 0.0293,-0.146484 0.0293,-0.292968 0,-0.527344 -0.39551,-0.644532 -0.38086,-0.131836 -1.52344,-0.131836 v -0.483398 q 1.21582,-0.146484 1.74317,-0.219727 0.54199,-0.08789 1.08398,-0.175781 0.70313,-0.117187 1.33301,-0.263672 0.62988,-0.146484 0.70312,-0.08789 z" />
                        <path d="m 264.17871,40.033203 q 0,-0.117187 0.0146,-0.263672 0.0147,-0.161133 0.0586,-0.322265 l 2.75391,-10.239258 h -2.22656 q 0,-0.395508 0.0586,-0.498047 0.0586,-0.102539 0.29297,-0.205078 1.47949,-0.629883 2.28516,-1.215821 0.82031,-0.585937 2.22656,-2.255859 l 0.23437,-0.27832 q 0.0439,-0.05859 0.10254,-0.08789 0.0732,-0.04395 0.14649,-0.04395 0.14648,0.0293 0.20507,0.05859 0.0439,0.102539 0.0439,0.190429 0.0147,0.07324 0,0.161133 l -0.83496,3.193359 h 2.38769 l -0.17578,0.981446 h -2.49023 l -2.63672,9.858398 q -0.0732,0.263672 0.0439,0.512696 0.11718,0.234375 0.3955,0.234375 0.38086,0 1.06934,-0.761719 0.39551,-0.410156 1.33301,-1.625977 l 0.38086,0.219727 -0.20508,0.307617 q -1.25977,1.889648 -2.22656,2.636719 -0.95215,0.732422 -1.81641,0.732422 -0.74707,0 -1.08399,-0.395508 -0.33691,-0.395508 -0.33691,-0.893555 z" />
                        <path d="m 274.69629,21.356445 q 0.9375,-0.131836 1.50879,-0.205078 0.58594,-0.08789 1.01074,-0.161133 1.72852,-0.336914 1.86035,-0.366211 0.13184,-0.0293 0.20508,-0.0293 0.17578,0.08789 0.17578,0.219726 l -3.44238,13.081055 q 1.8457,-2.72461 3.01758,-3.984375 2.05078,-2.167969 3.76464,-2.167969 0.70313,0 1.34766,0.454102 0.65918,0.439453 0.65918,1.596679 0,0.278321 -0.0732,0.717774 -0.0732,0.439453 -0.17578,0.776367 l -1.97754,7.016601 q -0.0879,0.292969 -0.14649,0.57129 -0.0586,0.263671 -0.0586,0.483398 0,0.249023 0.11719,0.380859 0.11719,0.117188 0.33691,0.117188 0.4541,0 1.06934,-0.629883 0.38086,-0.395508 1.4209,-1.728516 l 0.38086,0.351563 q -1.0254,1.523437 -1.74317,2.226562 -1.27441,1.245118 -2.56348,1.245118 -0.58593,0 -0.98144,-0.366211 -0.39551,-0.366211 -0.39551,-1.054688 0,-0.19043 0.0147,-0.351562 0.0293,-0.175782 0.0879,-0.38086 l 2.25586,-8.583984 q 0.0293,-0.117188 0.0439,-0.234375 0.0293,-0.131836 0.0293,-0.263672 0,-0.366211 -0.21972,-0.571289 -0.23438,-0.205078 -0.60059,-0.205078 -0.98145,0 -2.47559,1.582031 -1.49414,1.567383 -2.51953,3.208008 -0.70312,1.157226 -1.06933,2.182617 Q 275.20898,37.308594 274.18359,41 h -2.2705 l 4.6875,-17.768555 q 0.0439,-0.190429 0.0586,-0.322265 0.0147,-0.131836 0.0147,-0.249024 0,-0.629883 -0.41016,-0.74707 -0.41015,-0.131836 -1.56738,-0.07324 z" />
                     </g>
                  </g>
               </g>
            </g>
         </g>
      </g>
   </svg>
</svg>
