<?xml version="1.0" standalone="no"?>
<!DOCTYPE svg PUBLIC "-//W3C//DTD SVG 1.1//EN" "http://www.w3.org/Graphics/SVG/1.1/DTD/svg11.dtd" >
<svg xmlns="http://www.w3.org/2000/svg" xmlns:xlink="http://www.w3.org/1999/xlink" version="1.1">
<metadata>
Created by FontForge 20251009 at Wed Sep 17 08:13:11 2025
 By Klaus Rettinghaus
Copyright \(c\) 2025, MuseScore BVBA \(http://www.musescore.org/\)
</metadata>
<defs>
<font id="Leland" horiz-adv-x="325" >
  <font-face 
    font-family="Leland"
    font-weight="400"
    font-stretch="normal"
    units-per-em="1000"
    panose-1="0 0 0 0 0 0 0 0 0 0"
    ascent="800"
    descent="-200"
    bbox="-273 -2009 2276 2002"
    underline-thickness="50"
    underline-position="-125"
    stemh="32"
    stemv="30"
    unicode-range="U+000D-F631"
  />
<missing-glyph horiz-adv-x="500" 
 />
    <glyph glyph-name="dynamicPPPPPP" unicode="&#xe520;&#xe520;&#xe520;&#xe520;&#xe520;&#xe520;" horiz-adv-x="1937" 
d="M168 14c44 21 79 131 79 179c0 10 -2 29 -14 32c-2 1 -5 1 -8 1c-38 0 -76 -71 -83 -101c-1 -2 -12 -38 -12 -69c0 -19 4 -37 19 -43c2 -1 6 -2 8 -2c3 0 8 1 11 3zM554 112h1c6 18 16 54 16 81c0 10 -2 29 -14 32c-2 1 -5 1 -8 1c-38 0 -76 -71 -83 -101
c-1 -2 -12 -38 -12 -69c0 -19 4 -37 19 -43c2 -1 5 -2 7 -2h1c3 0 8 1 11 3c25 12 49 59 62 98zM816 14c42 20 79 133 79 180c0 9 -1 17 -4 22c-2 4 -6 8 -10 9c-2 1 -5 1 -8 1c-38 0 -76 -71 -83 -101c-1 -2 -12 -38 -12 -69c0 -19 4 -37 19 -43c2 -1 5 -2 7 -2
c3 0 9 1 12 3zM1140 14c42 20 79 133 79 180c0 9 -1 17 -4 22c-2 4 -6 8 -10 9c-2 1 -5 1 -8 1c-39 0 -76 -70 -83 -101c-1 -2 -12 -38 -12 -69c0 -19 4 -37 19 -43c2 -1 5 -2 7 -2c3 0 9 1 12 3zM1464 14c42 20 79 133 79 180c0 9 -1 17 -4 22c-2 4 -6 8 -10 9
c-2 1 -5 1 -8 1c-39 0 -76 -70 -83 -101c-1 -2 -12 -38 -12 -69c0 -19 4 -37 19 -43c2 -1 5 -2 7 -2c3 0 9 1 12 3zM1788 14c42 20 79 133 79 180c0 9 -1 17 -4 22c-2 4 -6 8 -10 9c-2 1 -5 1 -8 1c-39 0 -76 -70 -83 -101c-1 -2 -12 -38 -12 -69c0 -19 4 -37 19 -43
c2 -1 5 -2 7 -2c3 0 9 1 12 3zM1867 261c46 0 70 -49 70 -90c0 -76 -55 -193 -140 -193c-6 0 -13 0 -19 2c-34 9 -44 31 -44 31l-3 7l-58 -161h76v-20h-225v20h62l99 276c12 32 23 58 23 75c0 15 -9 22 -23 22c-16 0 -35 -13 -43 -26c-10 -17 -23 -40 -38 -90
c-21 -80 -76 -136 -131 -136c-6 0 -13 0 -19 2c-34 9 -44 31 -44 31l-2 7l-59 -161h76v-20h-225v20h62l99 276c12 32 23 58 23 75c0 15 -9 22 -23 22c-16 0 -35 -13 -43 -26c-10 -17 -22 -40 -37 -90c-21 -80 -77 -136 -132 -136c-6 0 -13 0 -19 2c-34 9 -44 31 -44 31l-2 7
l-59 -161h76v-20h-225v20h62l99 276c12 32 23 58 23 75c0 15 -9 22 -23 22c-16 0 -35 -13 -43 -26c-10 -17 -22 -40 -37 -90c-21 -80 -77 -136 -132 -136c-6 0 -13 0 -19 2c-34 9 -43 31 -43 31l-3 7l-59 -161h76v-20h-225v20h62l99 276c12 32 23 58 23 75
c0 14 -8 22 -22 22c-16 0 -35 -13 -43 -26c-10 -17 -23 -40 -38 -90c-21 -80 -77 -136 -132 -136c-6 0 -13 0 -19 2c-34 9 -43 31 -43 31l-3 7l-59 -161h76v-20h-225v20h62l99 276c12 32 23 58 23 75c0 14 -8 22 -22 22c-16 0 -35 -13 -43 -26c-10 -17 -23 -40 -38 -90
c-21 -80 -76 -136 -131 -136c-6 0 -13 0 -19 2c-34 9 -44 31 -44 31l-3 7l-58 -161h75v-20h-224v20h61l99 276c5 10 23 53 23 77c0 7 -1 12 -5 15c-2 1 -5 2 -8 2h-4c-9 -2 -21 -10 -27 -19c-12 -16 -22 -47 -26 -60l-18 9c29 83 63 106 96 106c4 0 7 -1 11 -1
c35 -5 56 -43 56 -43l2 -4l3 3c17 17 48 43 79 43c36 0 62 -32 68 -65c23 54 67 67 101 67c5 0 10 0 15 -1c35 -5 56 -43 56 -43l2 -4l3 3c17 17 48 43 79 43c36 0 62 -32 68 -65c23 54 67 67 101 67c5 0 10 0 15 -1c35 -5 56 -43 56 -43l2 -4l3 3c17 17 48 43 79 43
c36 0 62 -32 68 -65c23 53 66 66 100 66c6 0 11 0 16 -1c35 -5 56 -43 56 -43l2 -3l3 3c17 17 48 43 79 43c36 0 62 -32 68 -65c23 53 66 66 100 66c6 0 11 0 16 -1c35 -5 56 -43 56 -43l2 -3l2 3c17 17 49 43 80 43c36 0 62 -32 68 -65c23 53 66 66 100 66c6 0 11 0 16 -1
c35 -5 56 -43 56 -43l2 -3l2 3c17 17 49 43 80 43z" />
    <glyph glyph-name="dynamicPPPPP" unicode="&#xe520;&#xe520;&#xe520;&#xe520;&#xe520;" horiz-adv-x="1613" 
d="M168 14c44 21 79 131 79 179c0 10 -2 29 -14 32c-2 1 -5 1 -8 1c-38 0 -76 -71 -83 -101c-1 -2 -12 -38 -12 -69c0 -19 4 -37 19 -43c2 -1 6 -2 8 -2c3 0 8 1 11 3zM492 14c44 21 79 131 79 179c0 10 -2 29 -14 32c-2 1 -5 1 -8 1c-38 0 -76 -71 -83 -101
c-1 -2 -12 -38 -12 -69c0 -19 4 -37 19 -43c2 -1 6 -2 8 -2c3 0 8 1 11 3zM879 112h-1c6 18 17 55 17 82c0 9 -1 17 -4 22c-2 4 -6 8 -10 9c-2 1 -5 1 -8 1c-38 0 -76 -71 -83 -101c-1 -2 -12 -38 -12 -69c0 -19 4 -37 19 -43c2 -1 6 -2 8 -2c3 0 8 1 11 3
c25 12 50 59 63 98zM1140 14c42 20 79 133 79 180c0 9 -1 17 -4 22c-2 4 -6 8 -10 9c-2 1 -5 1 -8 1c-38 0 -76 -71 -83 -101c-1 -2 -12 -38 -12 -69c0 -19 4 -37 19 -43c2 -1 5 -2 7 -2c3 0 9 1 12 3zM1464 14c42 20 79 133 79 180c0 9 -1 17 -4 22c-2 4 -6 8 -10 9
c-2 1 -5 1 -8 1c-38 0 -76 -71 -83 -101c-1 -2 -12 -38 -12 -69c0 -19 4 -37 19 -43c2 -1 5 -2 7 -2c3 0 9 1 12 3zM1543 261c46 0 70 -49 70 -90c0 -76 -55 -193 -140 -193c-6 0 -13 0 -19 2c-34 9 -44 31 -44 31l-2 7l-59 -161h76v-20h-225v20h62l99 276
c12 32 23 58 23 75c0 14 -8 22 -22 22c-17 0 -36 -13 -44 -26c-10 -17 -22 -40 -37 -90c-21 -80 -77 -136 -132 -136c-6 0 -13 0 -19 2c-34 9 -43 31 -43 31l-3 7l-59 -161h76v-20h-225v20h62l99 276c12 32 23 58 23 75c0 14 -8 22 -22 22c-17 0 -36 -13 -44 -26
c-10 -17 -22 -40 -37 -90c-21 -80 -77 -136 -132 -136c-6 0 -13 0 -19 2c-34 9 -43 31 -43 31l-3 7l-58 -161h75v-20h-225v20h62l99 276c12 32 23 58 23 75c0 14 -8 22 -22 22c-16 0 -35 -13 -43 -26c-10 -17 -23 -40 -38 -90c-21 -80 -77 -136 -132 -136c-6 0 -13 0 -19 2
c-34 9 -43 31 -43 31l-3 7l-58 -161h75v-20h-225v20h62l99 276c12 32 23 58 23 75c0 14 -8 22 -22 22c-16 0 -35 -13 -43 -26c-10 -17 -23 -40 -38 -90c-21 -80 -76 -136 -131 -136c-6 0 -13 0 -19 2c-34 9 -44 31 -44 31l-3 7l-58 -161h75v-20h-224v20h61l99 276
c5 10 23 53 23 77c0 7 -1 12 -5 15c-2 1 -5 2 -8 2h-4c-9 -2 -21 -10 -27 -19c-12 -16 -22 -47 -26 -60l-18 9c29 83 63 105 96 105c4 0 7 0 11 -1c35 -5 56 -43 56 -43l2 -3l3 3c17 17 48 43 79 43c36 0 62 -32 68 -65c23 53 66 66 100 66c6 0 11 0 16 -1
c35 -5 56 -43 56 -43l2 -3l3 3c17 17 48 43 79 43c36 0 62 -33 68 -66c23 54 67 67 101 67c5 0 10 0 15 -1c35 -5 56 -43 56 -43l2 -3l3 3c17 17 48 43 79 43c36 0 62 -33 68 -66c23 54 67 67 101 67c5 0 10 0 15 -1c35 -5 56 -43 56 -43l2 -3l3 3c17 17 48 43 79 43
c36 0 62 -33 68 -66c23 54 67 67 101 67c5 0 10 0 15 -1c35 -5 56 -43 56 -43l2 -3l3 3c17 17 48 43 79 43z" />
    <glyph glyph-name="dynamicPPPP" unicode="&#xe520;&#xe520;&#xe520;&#xe520;" horiz-adv-x="1289" 
d="M168 14c44 21 79 131 79 179c0 10 -2 29 -14 32c-2 1 -5 1 -8 1c-38 0 -76 -71 -83 -101c-1 -2 -12 -38 -12 -69c0 -19 4 -37 19 -43c2 -1 6 -2 8 -2c3 0 8 1 11 3zM492 14c44 21 79 131 79 179c0 10 -2 29 -14 32c-2 1 -5 1 -8 1c-38 0 -76 -71 -83 -101
c-1 -2 -12 -38 -12 -69c0 -19 4 -37 19 -43c2 -1 5 -2 7 -2h1c3 0 8 1 11 3zM816 14c42 20 79 133 79 180c0 9 -1 17 -4 22c-2 4 -6 8 -10 9c-2 1 -5 1 -8 1c-38 0 -76 -71 -83 -101c-1 -2 -12 -38 -12 -69c0 -19 4 -37 19 -43c2 -1 5 -2 7 -2c3 0 9 1 12 3zM1140 14
c42 20 79 133 79 180c0 9 -1 17 -4 22c-2 4 -6 8 -10 9c-2 1 -5 1 -8 1c-38 0 -76 -71 -83 -101c-1 -2 -12 -38 -12 -69c0 -19 4 -37 19 -43c2 -1 5 -2 7 -2c3 0 9 1 12 3zM1219 261c46 0 70 -49 70 -90c0 -76 -55 -193 -140 -193c-6 0 -13 0 -19 2c-34 9 -44 31 -44 31
l-2 7l-59 -161h76v-20h-225v20h62l99 276c12 32 23 58 23 75c0 14 -8 22 -22 22c-17 0 -36 -13 -44 -26c-10 -17 -22 -40 -37 -90c-21 -80 -77 -136 -132 -136c-6 0 -13 0 -19 2c-34 9 -43 31 -43 31l-3 7l-59 -161h76v-20h-225v20h62l99 276c12 32 23 58 23 75
c0 14 -8 22 -22 22c-17 0 -36 -13 -44 -26c-10 -17 -22 -40 -37 -90c-21 -80 -77 -136 -132 -136c-6 0 -13 0 -19 2c-34 9 -43 31 -43 31l-3 7l-58 -161h75v-20h-225v20h62l99 276c12 32 23 58 23 75c0 14 -8 22 -22 22c-16 0 -35 -13 -43 -26c-10 -17 -23 -40 -38 -90
c-21 -80 -76 -136 -131 -136c-6 0 -13 0 -19 2c-34 9 -44 31 -44 31l-3 7l-58 -161h75v-20h-224v20h61l99 276c5 10 23 53 23 77c0 7 -1 12 -5 15c-2 1 -5 2 -8 2h-4c-9 -2 -21 -10 -27 -19c-12 -16 -22 -47 -26 -60l-18 9c29 83 63 106 96 106c4 0 7 -1 11 -1
c35 -5 56 -43 56 -43l2 -4l3 3c17 17 48 43 79 43c36 0 62 -32 68 -65c23 53 66 66 100 66c6 0 11 0 16 -1c35 -5 56 -43 56 -43l2 -3l3 3c17 17 48 43 79 43c36 0 62 -32 68 -65c23 53 66 66 100 66c6 0 11 0 16 -1c35 -5 56 -43 56 -43l2 -3l3 3c17 17 48 43 79 43
c36 0 62 -32 68 -65c23 53 66 66 100 66c6 0 11 0 16 -1c35 -5 56 -43 56 -43l2 -3l3 3c17 17 48 43 79 43z" />
    <glyph glyph-name="dynamicPPP" unicode="&#xe520;&#xe520;&#xe520;" horiz-adv-x="965" 
d="M168 14c44 21 79 131 79 179c0 10 -2 29 -14 32c-2 1 -5 1 -8 1c-38 0 -76 -71 -83 -101c-1 -2 -12 -38 -12 -69c0 -19 4 -37 19 -43c2 -1 6 -1 8 -1c3 0 8 0 11 2zM492 14c44 21 79 131 79 179c0 10 -2 29 -14 32c-2 1 -5 1 -8 1c-38 0 -76 -71 -83 -101
c-1 -2 -12 -38 -12 -69c0 -19 4 -37 19 -43c2 -1 6 -1 8 -1c3 0 8 0 11 2zM879 112h-1c6 18 17 55 17 82c0 9 -1 17 -4 22c-2 4 -6 8 -10 9c-2 1 -5 1 -8 1c-38 0 -76 -71 -83 -101c-1 -2 -12 -38 -12 -69c0 -19 4 -37 19 -43c2 -1 5 -1 7 -1c3 0 9 0 12 2
c25 12 50 59 63 98zM895 261c46 0 70 -49 70 -90c0 -76 -55 -193 -140 -193c-6 0 -13 0 -19 2c-34 9 -43 31 -43 31l-3 7l-59 -161h76v-20h-225v20h62l99 276c12 32 23 58 23 75c0 14 -8 22 -22 22c-16 0 -35 -13 -43 -26c-10 -17 -23 -40 -38 -90
c-21 -80 -77 -136 -132 -136c-6 0 -13 0 -19 2c-34 9 -43 31 -43 31l-3 7l-58 -161h75v-20h-225v20h62l99 276c12 32 23 58 23 75c0 14 -8 22 -22 22c-16 0 -35 -13 -43 -26c-10 -17 -23 -40 -38 -90c-21 -80 -76 -136 -131 -136c-6 0 -13 0 -19 2c-34 9 -44 31 -44 31l-3 7
l-58 -161h75v-20h-224v20h61l99 276c5 10 23 54 23 78c0 7 -1 12 -5 15c-2 1 -5 2 -8 2h-4c-9 -2 -20 -10 -26 -19c-12 -16 -23 -48 -27 -61l-18 9c29 83 63 106 96 106c4 0 7 -1 11 -1c35 -5 56 -43 56 -43l2 -4l3 3c17 17 48 43 79 43c36 0 62 -32 68 -65
c23 54 67 67 101 67c5 0 10 0 15 -1c35 -5 56 -43 56 -43l2 -4l3 3c17 17 48 43 79 43c36 0 62 -32 68 -65c23 54 67 67 101 67c5 0 10 0 15 -1c35 -5 56 -43 56 -43l2 -4l3 3c17 17 48 43 79 43z" />
    <glyph glyph-name="dynamicPP" unicode="&#xe520;&#xe520;" horiz-adv-x="641" 
d="M168 14c44 21 79 131 79 179c0 10 -2 29 -14 32c-2 1 -5 1 -8 1c-38 0 -76 -71 -83 -101c-1 -2 -12 -38 -12 -69c0 -19 4 -37 19 -43c2 -1 6 -1 8 -1c3 0 8 0 11 2zM492 14c44 21 79 131 79 179c0 10 -2 29 -14 32c-2 1 -5 1 -8 1c-38 0 -76 -71 -83 -101
c-1 -2 -12 -38 -12 -69c0 -19 4 -37 19 -43c2 -1 6 -1 8 -1c3 0 8 0 11 2zM571 261c46 0 70 -49 70 -90c0 -76 -55 -193 -140 -193c-6 0 -13 0 -19 2c-34 9 -43 31 -43 31l-3 7l-58 -161h75v-20h-225v20h62l99 276c12 32 23 58 23 75c0 14 -8 22 -22 22
c-16 0 -35 -13 -43 -26c-10 -17 -23 -40 -38 -90c-21 -80 -76 -136 -131 -136c-6 0 -13 0 -19 2c-34 9 -44 31 -44 31l-3 7l-58 -161h75v-20h-224v20h61l99 276c5 10 23 54 23 78c0 7 -1 12 -5 15c-2 1 -5 2 -8 2h-4c-9 -2 -20 -10 -26 -19c-12 -16 -23 -48 -27 -61l-18 9
c29 83 63 106 96 106c4 0 7 -1 11 -1c35 -5 56 -43 56 -43l2 -4l3 3c17 17 48 43 79 43c36 0 62 -32 68 -65c23 54 67 67 101 67c5 0 10 0 15 -1c35 -5 56 -43 56 -43l2 -4l3 3c17 17 48 43 79 43z" />
    <glyph glyph-name="dynamicMP" unicode="&#xe521;&#xe520;" horiz-adv-x="696" 
d="M536 12c3 0 8 0 11 2c44 21 79 131 79 179c0 10 -2 29 -14 32c-2 1 -5 1 -8 1c-38 0 -76 -71 -83 -101c-1 -2 -12 -38 -12 -69c0 -19 4 -37 19 -43c2 -1 6 -1 8 -1zM339 44c7 12 18 39 18 39l17 -8c-1 -2 -1 -4 -2 -6c-13 -35 -30 -71 -75 -71c-34 0 -50 23 -50 54
c0 14 3 29 9 45c21 54 27 94 27 104c0 5 -3 8 -5 9c-1 0 -1 1 -2 1h-1c-1 0 -2 -1 -3 -1c-23 -10 -55 -52 -75 -192c0 -3 -1 -6 -1 -7c-2 -11 -7 -12 -11 -12h-55c-8 0 -10 5 -10 12v4s15 47 30 96c12 41 22 73 22 90c0 5 -1 9 -3 11c-1 2 -4 3 -6 3
c-37 0 -79 -154 -89 -200c-4 -16 -9 -16 -11 -16h-53c-4 0 -6 2 -8 4c-1 2 -2 4 -2 6s1 3 1 5c3 9 40 120 40 121c11 32 19 56 19 70c0 8 -2 13 -8 15c-2 1 -3 1 -5 1c-22 0 -39 -54 -39 -54l-15 8c11 34 33 76 74 76c4 0 9 0 14 -1c25 -5 38 -34 38 -34l1 -5l3 4
c17 23 38 34 66 34c27 0 43 -35 43 -35l2 -5l2 4c13 17 41 36 67 36c21 0 33 -13 38 -40c1 -4 1 -9 1 -14c0 -27 -7 -68 -13 -86c-4 -9 -17 -56 -17 -64c0 -5 2 -9 7 -11c2 -1 3 -1 5 -1c5 0 10 2 15 11zM508 -163h-224v20h61l99 276c5 10 23 54 23 78c0 7 -1 12 -5 15
c-2 1 -5 2 -8 2h-4c-9 -2 -21 -10 -27 -19c-12 -16 -22 -48 -26 -61l-18 9c29 83 63 106 96 106c4 0 7 -1 11 -1c35 -5 56 -43 56 -43l2 -4l3 3c17 17 48 43 79 43c46 0 70 -49 70 -90c0 -76 -54 -193 -139 -193c-6 0 -13 0 -19 2c-34 9 -44 31 -44 31l-3 7l-58 -161h75v-20
z" />
    <glyph glyph-name="dynamicMF" unicode="&#xe521;&#xe522;" horiz-adv-x="708" 
d="M339 44c7 12 18 39 18 39l17 -8c-1 -2 -1 -4 -2 -6c-13 -35 -30 -71 -75 -71c-34 0 -50 23 -50 54c0 14 3 29 9 45c21 54 27 94 27 104c0 5 -3 8 -5 9c-1 0 -1 1 -2 1h-1c-1 0 -2 -1 -3 -1c-23 -10 -55 -52 -75 -192c0 -3 -1 -6 -1 -7c-2 -11 -7 -12 -11 -12h-55
c-8 0 -10 5 -10 12v4s15 47 30 96c12 41 22 73 22 90c0 5 -1 9 -3 11c-1 2 -4 3 -6 3c-37 0 -79 -154 -89 -200c-4 -16 -9 -16 -11 -16h-53c-4 0 -6 2 -8 4c-1 2 -2 4 -2 6s1 3 1 5c3 9 40 120 40 121c11 32 19 56 19 70c0 8 -2 13 -8 15c-2 1 -3 1 -5 1
c-22 0 -39 -54 -39 -54l-15 8c11 34 33 76 74 76c4 0 9 0 14 -1c25 -5 38 -34 38 -34l1 -5l3 4c17 23 38 34 66 34c27 0 43 -35 43 -35l2 -5l2 4c13 17 41 36 67 36c21 0 33 -13 38 -40c1 -4 1 -9 1 -14c0 -27 -7 -68 -13 -86c-4 -9 -17 -56 -17 -64c0 -5 2 -9 7 -11
c2 -1 3 -1 5 -1c5 0 10 2 15 11zM289 -60c36 0 45 -26 45 -40c0 -16 -6 -34 -25 -42c-5 -2 -7 -6 -8 -10c0 -5 1 -8 5 -11s9 -5 14 -5c6 0 12 2 17 5c24 16 30 45 51 127l3 12c12 46 21 84 29 121c7 33 15 67 25 107v4h-62c-6 0 -10 4 -10 10v22c0 6 4 10 10 10h76v2
c25 74 66 169 159 169c45 0 90 -26 90 -76c0 -6 0 -12 -2 -17c-5 -20 -26 -36 -47 -36c-7 0 -14 2 -18 4c-10 4 -18 13 -21 22c-1 5 -2 9 -2 14c0 14 5 27 15 35c4 2 6 7 6 12c0 6 -5 12 -11 13c-1 0 -3 1 -5 1c-5 0 -12 -2 -20 -8c-15 -12 -23 -30 -51 -132v-3h59
c6 0 10 -4 10 -10v-22c0 -6 -4 -10 -10 -10h-72v-2c-7 -23 -16 -54 -25 -86c-24 -85 -72 -234 -116 -278c-25 -25 -48 -35 -80 -35c-46 0 -81 29 -81 81c0 27 25 52 52 52z" />
    <glyph glyph-name="dynamicPF" unicode="&#xe520;&#xe522;" horiz-adv-x="696" 
d="M157 12c3 0 8 0 11 2c44 21 79 131 79 179c0 10 -2 29 -14 32c-2 1 -5 1 -8 1c-38 0 -76 -71 -83 -101c-1 -2 -12 -38 -12 -69c0 -19 4 -37 19 -43c2 -1 6 -1 8 -1zM129 -163h-224v20h61l99 276c5 10 23 54 23 78c0 7 -1 12 -5 15c-2 1 -5 2 -8 2h-4
c-9 -2 -21 -10 -27 -19c-12 -16 -22 -48 -26 -61l-18 9c29 83 63 106 96 106c4 0 7 -1 11 -1c35 -5 56 -43 56 -43l2 -4l3 3c17 17 48 43 79 43c46 0 70 -49 70 -90c0 -76 -54 -193 -139 -193c-6 0 -13 0 -19 2c-34 9 -44 31 -44 31l-3 7l-58 -161h75v-20zM277 -60
c36 0 45 -26 45 -40c0 -16 -6 -34 -25 -42c-5 -2 -7 -6 -8 -10c0 -5 1 -8 5 -11s9 -5 14 -5c6 0 12 2 17 5c24 16 30 45 51 127l3 12c12 46 21 84 29 121c7 33 15 67 25 107v4h-62c-6 0 -10 4 -10 10v22c0 6 4 10 10 10h76v2c25 74 66 169 159 169c45 0 90 -26 90 -76
c0 -6 0 -12 -2 -17c-5 -20 -26 -36 -47 -36c-7 0 -14 2 -18 4c-10 4 -18 13 -21 22c-1 5 -2 9 -2 14c0 14 5 27 15 35c4 2 6 7 6 12c0 6 -5 12 -11 13c-1 0 -3 1 -5 1c-5 0 -12 -2 -20 -8c-15 -12 -23 -30 -51 -132v-3h59c6 0 10 -4 10 -10v-22c0 -6 -4 -10 -10 -10h-72v-2
c-7 -23 -16 -54 -25 -86c-24 -85 -72 -234 -116 -278c-25 -25 -48 -35 -80 -35c-46 0 -81 29 -81 81c0 27 25 52 52 52z" />
    <glyph glyph-name="dynamicFF" unicode="&#xe522;&#xe522;" horiz-adv-x="588" 
d="M181 253l-1 -3h156l1 2c25 74 66 170 158 170c29 0 69 -12 83 -39c7 -11 10 -23 10 -35c0 -6 -1 -13 -3 -19c-6 -21 -27 -36 -49 -36c-6 0 -12 1 -16 3c-10 4 -18 14 -21 23c-1 5 -2 10 -2 15c0 13 5 26 15 34c4 2 6 7 6 12c0 6 -5 12 -11 13c-1 0 -3 1 -5 1
c-5 0 -12 -2 -20 -8c-15 -12 -23 -30 -51 -133l-1 -3h60c6 0 10 -4 10 -10v-22c0 -6 -4 -10 -10 -10h-73v-2c-7 -23 -16 -55 -25 -87c-25 -85 -73 -235 -117 -279c-25 -25 -48 -36 -80 -36c-46 0 -82 29 -82 82c0 27 25 52 52 52c36 0 46 -26 46 -40c0 -16 -6 -35 -25 -43
c-5 -2 -8 -5 -9 -9c-1 -5 3 -10 6 -12c4 -3 8 -4 13 -4c6 0 12 2 17 5c24 16 31 45 52 127l3 12c12 46 21 85 29 122c7 33 15 68 25 108l1 4h-156v-2c-7 -23 -16 -55 -25 -87c-25 -85 -73 -235 -117 -279c-25 -25 -48 -36 -80 -36c-46 0 -82 28 -82 81c0 27 25 53 52 53
c36 0 46 -26 46 -40c0 -16 -6 -35 -25 -43c-5 -2 -8 -6 -9 -10c-1 -5 3 -9 6 -11c4 -3 8 -4 13 -4c6 0 12 2 17 5c24 16 31 45 52 127l3 12c12 46 21 85 29 122c7 33 15 68 25 108l1 4h-63c-6 0 -10 4 -10 10v22c0 6 4 10 10 10h76l1 2c25 74 66 170 158 170
c29 0 69 -12 83 -39c7 -11 10 -23 10 -35c0 -6 -1 -13 -3 -19c-6 -21 -27 -36 -49 -36c-6 0 -12 1 -16 3c-10 4 -18 14 -21 23c-1 5 -2 10 -2 15c0 13 5 26 15 34c4 2 6 7 6 12c0 6 -5 12 -11 13c-1 0 -3 1 -5 1c-5 0 -12 -2 -20 -8c-15 -12 -23 -30 -51 -133z" />
    <glyph glyph-name="dynamicFFF" unicode="&#xe522;&#xe522;&#xe522;" horiz-adv-x="838" 
d="M837 357v-1c0 -3 1 -7 1 -10c0 -5 -1 -12 -2 -17c-6 -21 -27 -35 -48 -35c-16 0 -25 5 -35 17c-2 2 -3 5 -4 8c-2 5 -2 11 -2 16c0 13 5 25 15 33c5 4 6 7 6 13c0 4 -2 13 -16 13c-11 0 -16 -4 -20 -7c-2 -2 -7 -7 -9 -10c-10 -14 -20 -43 -42 -123l-1 -3h60
c6 0 10 -5 10 -11v-22c0 -6 -4 -10 -10 -10h-72l-1 -1v-1c-7 -23 -16 -55 -25 -87c-25 -85 -73 -235 -117 -279c-25 -25 -48 -35 -80 -35c-49 0 -82 29 -82 81c0 27 25 52 52 52c36 0 46 -26 46 -40c0 -16 -6 -35 -25 -43c-1 0 -9 -2 -9 -9s5 -16 19 -16c5 0 14 2 17 5
c9 6 16 14 22 26c10 20 17 51 30 102l3 12c9 37 16 69 24 99l34 134h-159v-2c-7 -23 -16 -55 -25 -87c-25 -85 -73 -235 -117 -279c-25 -25 -48 -36 -80 -36c-46 0 -82 29 -82 82c0 27 25 52 52 52c36 0 46 -26 46 -40c0 -16 -6 -35 -25 -43c-5 -2 -8 -5 -9 -9
c-1 -5 3 -10 6 -12c4 -3 8 -4 13 -4c6 0 12 2 17 5c24 16 31 45 52 127l3 12c12 46 21 85 29 122c7 33 15 68 25 108l1 4h-156v-2c-7 -23 -16 -55 -25 -87c-25 -85 -73 -235 -117 -279c-25 -25 -48 -36 -80 -36c-46 0 -82 28 -82 81c0 27 25 53 52 53c36 0 46 -26 46 -40
c0 -16 -6 -35 -25 -43c-5 -2 -8 -5 -9 -9c-1 -5 3 -10 6 -12c4 -3 8 -4 13 -4c6 0 12 2 17 5c24 16 31 45 52 127l3 12c12 46 21 85 29 122c7 33 15 68 25 108l1 4h-63c-6 0 -10 4 -10 10v22c0 6 4 10 10 10h76l1 2c25 74 66 170 158 170c29 0 69 -12 83 -39
c7 -11 10 -23 10 -35c0 -6 -1 -13 -3 -19c-6 -21 -27 -36 -49 -36c-6 0 -12 1 -16 3c-10 4 -18 14 -21 23c-1 5 -2 10 -2 15c0 13 5 26 15 34c4 2 6 7 6 12c0 6 -5 12 -11 13c-1 0 -3 1 -5 1c-5 0 -12 -2 -20 -8c-15 -12 -23 -29 -51 -132l-1 -4h156l1 2
c25 74 66 170 158 170c45 0 93 -25 93 -76c0 -6 0 -12 -2 -17c-6 -21 -29 -36 -50 -36c-6 0 -12 1 -16 3c-10 4 -18 14 -21 23c-1 5 -2 10 -2 15c0 13 5 26 15 34c4 2 6 7 6 12c0 6 -5 12 -11 13c-1 0 -3 1 -5 1c-5 0 -12 -2 -20 -8c-15 -12 -23 -29 -51 -132l-1 -4h156l1 2
c25 75 66 171 160 171c41 0 84 -21 90 -66z" />
    <glyph glyph-name="dynamicFFFF" unicode="&#xe522;&#xe522;&#xe522;&#xe522;" horiz-adv-x="1088" 
d="M1018 381c0 1 -1 13 -16 13c-11 0 -16 -4 -20 -7c-2 -2 -7 -7 -9 -10c-10 -14 -20 -43 -42 -123l-1 -3h60c6 0 10 -5 10 -11v-22c0 -6 -4 -10 -10 -10h-72l-1 -1v-1c-7 -23 -16 -55 -25 -87c-25 -85 -73 -235 -117 -279c-25 -25 -48 -35 -80 -35c-49 0 -82 29 -82 81
c0 27 25 52 52 52c36 0 46 -26 46 -40c0 -16 -6 -35 -25 -43c-1 0 -9 -2 -9 -9s5 -16 19 -16c5 0 14 2 17 5c9 6 16 14 22 26c10 20 17 51 30 102l3 12c9 37 17 69 24 99c2 8 3 16 5 23c1 6 3 13 4 19c6 28 13 57 21 89l1 3h-156v-2c-7 -23 -16 -55 -25 -87
c-25 -85 -73 -235 -117 -279c-25 -25 -48 -36 -80 -36c-46 0 -82 28 -82 81c0 27 25 53 52 53c36 0 46 -26 46 -40c0 -16 -6 -35 -25 -43c-5 -2 -8 -5 -9 -9c-1 -5 3 -10 6 -12c4 -3 8 -4 13 -4c6 0 12 2 17 5c24 16 31 45 52 127l3 12c12 46 21 85 29 122
c7 33 15 68 25 108l1 4h-156v-2c-7 -23 -16 -55 -25 -87c-25 -85 -73 -235 -117 -279c-25 -25 -48 -36 -80 -36c-46 0 -82 28 -82 81c0 27 25 53 52 53c36 0 46 -26 46 -40c0 -16 -6 -35 -25 -43c-5 -2 -8 -5 -9 -9c-1 -5 3 -10 6 -12c4 -3 8 -4 13 -4c6 0 12 2 17 5
c24 16 31 45 52 127l3 12c12 46 21 85 29 122c7 33 15 68 25 108l1 4h-156v-2c-7 -23 -16 -55 -25 -87c-25 -85 -73 -235 -117 -279c-25 -25 -48 -36 -80 -36c-46 0 -82 28 -82 81c0 27 25 53 52 53c36 0 46 -26 46 -40c0 -16 -6 -35 -25 -43c-5 -2 -8 -5 -9 -9
c-1 -5 3 -10 6 -12c4 -3 8 -4 13 -4c6 0 12 2 17 5c24 16 31 45 52 127l3 12c12 46 21 85 29 122c7 33 15 68 25 108l1 4h-63c-6 0 -10 4 -10 10v22c0 6 4 10 10 10h76l1 2c25 74 66 170 158 170c29 0 69 -12 83 -39c7 -11 10 -23 10 -35c0 -6 -1 -13 -3 -19
c-6 -21 -27 -36 -49 -36c-6 0 -12 1 -16 3c-10 4 -18 14 -21 23c-1 5 -2 10 -2 15c0 13 5 26 15 34c4 2 6 7 6 12c0 6 -5 12 -11 13c-1 0 -3 1 -5 1c-5 0 -12 -2 -20 -8c-15 -12 -23 -30 -51 -133l-1 -3h156l1 2c25 74 66 170 158 170c29 0 69 -12 83 -39
c7 -11 10 -23 10 -35c0 -6 -1 -13 -3 -19c-6 -21 -27 -36 -49 -36c-6 0 -12 1 -16 3c-10 4 -18 14 -21 23c-1 5 -2 10 -2 15c0 13 5 26 15 34c4 2 6 7 6 12c0 6 -5 12 -11 13c-1 0 -3 1 -5 1c-5 0 -12 -2 -20 -8c-15 -12 -23 -30 -51 -133l-1 -3h156l1 2
c25 74 66 170 158 170c45 0 93 -25 93 -76c0 -6 0 -12 -2 -17c-6 -21 -29 -36 -50 -36c-6 0 -12 1 -16 3c-10 4 -18 14 -21 23c-1 5 -2 10 -2 15c0 13 5 26 15 34c4 2 6 7 6 12c0 6 -5 12 -11 13c-1 0 -3 1 -5 1c-5 0 -12 -2 -20 -8c-15 -12 -23 -30 -51 -133l-1 -3h156l1 2
c24 75 67 171 160 171c41 0 84 -21 90 -66v-1c0 -3 1 -7 1 -10c0 -5 -1 -12 -2 -17c-6 -21 -27 -35 -48 -35c-16 0 -25 5 -35 17c-2 2 -3 5 -4 8c-2 5 -2 11 -2 16c0 13 5 25 15 33c4 2 6 7 6 13z" />
    <glyph glyph-name="dynamicFFFFF" unicode="&#xe522;&#xe522;&#xe522;&#xe522;&#xe522;" horiz-adv-x="1338" 
d="M946 -171c5 0 14 2 17 5c9 6 16 14 22 26c10 20 17 51 30 102l3 12c9 37 17 69 24 99c2 8 3 16 5 23c1 6 3 13 4 19c6 28 13 57 21 89l1 3h-156v-2c-7 -23 -16 -55 -25 -87c-25 -85 -73 -235 -117 -279c-25 -25 -48 -35 -80 -35c-46 0 -82 28 -82 81c0 27 25 53 52 53
c36 0 46 -27 46 -41c0 -16 -6 -34 -25 -42c-5 -2 -8 -6 -9 -10c-1 -5 3 -9 6 -11c4 -3 9 -5 14 -5c6 0 11 2 16 5c24 16 31 46 52 128l3 12c12 46 21 85 29 122c7 33 15 68 25 108l1 3h-156v-2c-7 -23 -16 -55 -25 -87c-25 -85 -73 -235 -117 -279c-25 -25 -48 -35 -80 -35
c-46 0 -82 28 -82 81c0 27 25 52 52 52c36 0 46 -26 46 -40c0 -16 -6 -34 -25 -42c-5 -2 -8 -6 -9 -10c-1 -5 3 -9 6 -11c4 -3 9 -5 14 -5c6 0 11 2 16 5c24 16 31 46 52 128l3 12c12 46 21 85 29 122c7 33 15 68 25 108l1 3h-156v-2c-7 -23 -16 -55 -25 -87
c-25 -85 -73 -235 -117 -279c-25 -25 -48 -35 -80 -35c-46 0 -82 28 -82 81c0 27 25 52 52 52c36 0 46 -26 46 -40c0 -16 -6 -34 -25 -42c-5 -2 -8 -6 -9 -10c-1 -5 3 -9 6 -11c4 -3 9 -5 14 -5c6 0 11 2 16 5c24 16 31 46 52 128l3 12c12 46 21 85 29 122
c7 33 15 68 25 108l1 3h-156v-2c-7 -23 -16 -55 -25 -87c-25 -85 -73 -235 -117 -279c-25 -25 -48 -35 -80 -35c-46 0 -82 28 -82 81c0 27 25 52 52 52c36 0 46 -26 46 -40c0 -16 -6 -34 -25 -42c-5 -2 -8 -6 -9 -10c-1 -5 3 -9 6 -11c4 -3 9 -5 14 -5c6 0 11 2 16 5
c24 16 31 46 52 128l3 12c12 46 21 85 29 122c7 33 15 68 25 108l1 3h-63c-6 0 -10 4 -10 10v22c0 6 4 11 10 11h76l1 1c25 74 66 171 159 171c28 0 68 -13 82 -39c7 -11 10 -24 10 -36c0 -7 -1 -13 -3 -19c-6 -21 -27 -36 -48 -36c-7 0 -13 2 -17 4c-10 4 -18 13 -21 22
c-1 5 -2 10 -2 15c0 13 5 26 15 34c4 2 6 7 6 13s-5 12 -11 13c-1 0 -3 1 -5 1c-5 0 -12 -2 -20 -8c-15 -12 -23 -30 -51 -133l-1 -3h156l1 1c25 74 67 171 159 171c28 0 68 -13 82 -39c7 -11 10 -24 10 -36c0 -7 -1 -13 -3 -19c-6 -21 -27 -36 -48 -36c-7 0 -13 2 -17 4
c-10 4 -18 13 -21 22c-1 5 -2 10 -2 15c0 13 5 26 15 34c4 2 6 7 6 13s-5 12 -11 13c-1 0 -3 1 -5 1c-5 0 -12 -2 -20 -8c-15 -12 -23 -30 -51 -133l-1 -3h156l1 1c25 74 67 171 159 171c28 0 68 -13 82 -39c7 -11 10 -24 10 -36c0 -7 -1 -13 -3 -19c-6 -21 -27 -36 -48 -36
c-7 0 -13 2 -17 4c-10 4 -18 13 -21 22c-1 5 -2 10 -2 15c0 13 5 26 15 34c4 2 6 7 6 13s-5 12 -11 13c-1 0 -3 1 -5 1c-5 0 -12 -2 -20 -8c-15 -12 -23 -30 -51 -133l-1 -3h156l1 1c25 74 67 171 159 171c46 0 92 -26 92 -77c0 -6 0 -12 -2 -17c-5 -20 -28 -36 -49 -36
c-7 0 -13 2 -17 4c-10 4 -18 13 -21 22c-1 5 -2 10 -2 15c0 13 5 26 15 34c4 2 6 7 6 13s-5 12 -11 13c-1 0 -3 1 -5 1c-5 0 -12 -2 -20 -8c-15 -12 -23 -30 -51 -133l-1 -3h156l1 1c25 75 66 171 160 171c41 0 84 -21 90 -66v-1c0 -3 1 -7 1 -10c0 -5 -1 -12 -2 -17
c-6 -21 -27 -35 -48 -35c-16 0 -25 5 -35 17c-2 2 -3 5 -4 8c-2 5 -2 11 -2 16c0 13 5 25 15 33c4 2 6 7 6 13c0 1 0 3 -1 5c-1 3 -5 6 -8 7c-1 0 -1 1 -2 1h-6c-3 0 -7 0 -9 -1c-7 -2 -15 -10 -19 -16c-10 -14 -20 -43 -42 -123l-1 -3h60c6 0 10 -5 10 -11v-22
c0 -6 -4 -10 -10 -10h-72l-1 -1v-1c-7 -23 -16 -55 -25 -87c-25 -85 -73 -235 -117 -279c-25 -25 -48 -35 -80 -35c-49 0 -82 29 -82 81c0 27 25 52 52 52c36 0 46 -26 46 -40c0 -16 -6 -35 -25 -43c-1 0 -9 -2 -9 -9s5 -16 19 -16z" />
    <glyph glyph-name="dynamicFFFFFF" unicode="&#xe522;&#xe522;&#xe522;&#xe522;&#xe522;&#xe522;" horiz-adv-x="1588" 
d="M1177 -155c0 -10 9 -15 18 -15c5 0 14 1 18 5c9 6 16 14 22 26c10 20 17 50 30 101l3 12c9 37 17 70 24 100c2 8 3 15 5 22c1 6 3 13 4 19c6 28 13 57 21 89l1 4h-156v-2c-7 -23 -16 -55 -25 -87c-25 -85 -73 -235 -117 -279c-25 -25 -48 -36 -80 -36
c-46 0 -82 28 -82 81c0 27 25 53 52 53c36 0 46 -26 46 -40c0 -16 -6 -35 -25 -43c-5 -2 -8 -6 -9 -10c-1 -5 3 -9 6 -11c4 -3 8 -4 13 -4c6 0 12 2 17 5c24 16 31 45 52 127l3 12c12 46 21 85 29 122c7 33 15 68 25 108l1 4h-156v-2c-7 -23 -16 -55 -25 -87
c-25 -85 -73 -235 -117 -279c-25 -25 -48 -36 -80 -36c-46 0 -82 29 -82 82c0 27 25 52 52 52c36 0 46 -26 46 -40c0 -16 -6 -35 -25 -43c-5 -2 -8 -5 -9 -9c-1 -5 3 -10 6 -12c4 -3 8 -4 13 -4c6 0 12 2 17 5c24 16 31 45 52 127l3 12c12 46 21 85 29 122
c7 33 15 68 25 108l1 4h-156v-2c-7 -23 -16 -55 -25 -87c-25 -85 -73 -235 -117 -279c-25 -25 -48 -36 -80 -36c-46 0 -82 28 -82 81c0 27 25 53 52 53c36 0 46 -26 46 -40c0 -16 -6 -35 -25 -43c-5 -2 -8 -5 -9 -9c-1 -5 3 -10 6 -12c4 -3 8 -4 13 -4c6 0 12 2 17 5
c24 16 31 45 52 127l3 12c12 46 21 85 29 122c7 33 15 68 25 108l1 4h-156v-2c-7 -23 -16 -55 -25 -87c-25 -85 -73 -235 -117 -279c-25 -25 -48 -36 -80 -36c-46 0 -82 29 -82 82c0 27 25 52 52 52c36 0 46 -26 46 -40c0 -16 -6 -35 -25 -43c-5 -2 -8 -5 -9 -9
c-1 -5 3 -10 6 -12c4 -3 8 -4 13 -4c6 0 12 2 17 5c24 16 31 45 52 127l3 12c12 46 21 85 29 122c7 33 15 68 25 108l1 4h-156v-2c-7 -23 -16 -55 -25 -87c-25 -85 -73 -235 -117 -279c-25 -25 -48 -36 -80 -36c-46 0 -82 28 -82 81c0 27 25 53 52 53c36 0 46 -26 46 -40
c0 -16 -6 -35 -25 -43c-5 -2 -8 -5 -9 -9c-1 -5 3 -10 6 -12c4 -3 8 -4 13 -4c6 0 12 2 17 5c24 16 31 45 52 127l3 12c12 46 21 85 29 122c7 33 15 68 25 108l1 4h-63c-6 0 -10 4 -10 10v22c0 6 4 10 10 10h76l1 2c25 74 66 170 158 170c29 0 69 -12 83 -39
c7 -11 10 -23 10 -35c0 -6 -1 -13 -3 -19c-6 -21 -27 -36 -49 -36c-6 0 -12 1 -16 3c-10 4 -18 14 -21 23c-1 5 -2 10 -2 15c0 13 5 26 15 34c4 2 6 7 6 12c0 6 -5 12 -11 13c-1 0 -3 1 -5 1c-5 0 -12 -2 -20 -8c-15 -12 -23 -30 -51 -133l-1 -3h156l1 2
c25 74 66 170 158 170c29 0 69 -12 83 -39c7 -11 10 -23 10 -35c0 -6 -1 -13 -3 -19c-6 -21 -27 -36 -49 -36c-6 0 -12 1 -16 3c-10 4 -18 14 -21 23c-1 5 -2 10 -2 15c0 13 5 26 15 34c4 2 6 7 6 12c0 6 -5 12 -11 13c-1 0 -3 1 -5 1c-5 0 -12 -2 -20 -8
c-15 -12 -23 -30 -51 -133l-1 -3h156l1 2c25 74 66 170 158 170c45 0 93 -25 93 -76c0 -6 0 -12 -2 -17c-6 -21 -29 -36 -50 -36c-6 0 -12 1 -16 3c-10 4 -18 14 -21 23c-1 5 -2 10 -2 15c0 13 5 26 15 34c4 2 6 7 6 12c0 6 -5 12 -11 13c-1 0 -3 1 -5 1c-5 0 -12 -2 -20 -8
c-15 -12 -23 -30 -51 -133l-1 -3h156l1 2c25 74 66 170 158 170c29 0 69 -12 83 -39c7 -11 10 -23 10 -35c0 -6 -1 -13 -3 -19c-6 -21 -27 -36 -49 -36c-6 0 -12 1 -16 3c-10 4 -18 14 -21 23c-1 5 -2 10 -2 15c0 13 5 26 15 34c4 2 6 7 6 12c0 6 -5 12 -11 13
c-1 0 -3 1 -5 1c-5 0 -12 -2 -20 -8c-15 -12 -23 -30 -51 -133l-1 -3h156l1 2c25 75 66 170 159 170c45 0 92 -25 92 -76c0 -6 0 -12 -2 -17c-6 -21 -29 -36 -50 -36c-6 0 -12 1 -16 3c-10 4 -18 14 -21 23c-1 5 -2 10 -2 15c0 13 5 26 15 34c4 2 6 7 6 12c0 6 -5 12 -11 13
c-1 0 -3 1 -5 1c-5 0 -12 -2 -20 -8c-15 -12 -23 -30 -51 -133l-1 -3h156l1 1v1c25 75 67 171 160 171c40 0 85 -24 90 -67c0 -3 1 -8 1 -11c0 -5 -1 -11 -2 -16c-6 -20 -28 -36 -49 -36c-15 0 -25 5 -34 17c-2 2 -3 6 -4 9c-2 5 -2 11 -2 16c0 13 5 25 15 33c4 2 6 7 6 12
c0 2 0 3 -1 5c-1 3 -5 6 -8 7c-1 0 -1 1 -2 1c-2 0 -4 1 -6 1c-3 0 -7 -1 -9 -2c-7 -2 -15 -10 -19 -16c-10 -14 -20 -43 -42 -123l-1 -3h60c6 0 10 -4 10 -10v-22c0 -6 -4 -10 -10 -10h-72l-1 -1v-1c-7 -23 -16 -55 -25 -87c-25 -85 -73 -235 -117 -279
c-25 -25 -48 -36 -80 -36c-48 0 -82 31 -82 81c0 27 25 53 52 53c36 0 46 -26 46 -40c0 -16 -6 -35 -25 -43c-1 0 -9 -3 -9 -10z" />
    <glyph glyph-name="dynamicFortePiano" unicode="&#xe522;&#xe520;" horiz-adv-x="581" 
d="M421 12c3 0 8 0 11 2c44 21 79 131 79 179c0 10 -2 29 -14 32c-2 1 -5 1 -8 1c-38 0 -76 -71 -83 -101c-1 -2 -12 -38 -12 -69c0 -19 4 -37 19 -43c2 -1 6 -1 8 -1zM-85 -60c36 0 45 -26 45 -40c0 -16 -6 -34 -25 -42c-5 -2 -7 -6 -8 -10c0 -5 1 -8 5 -11s9 -5 14 -5
c6 0 12 2 17 5c24 16 30 45 51 127l3 12c12 46 21 84 29 121c7 33 15 67 25 107v4h-62c-6 0 -10 4 -10 10v22c0 6 4 10 10 10h76v2c25 74 66 169 159 169c45 0 90 -26 90 -76c0 -6 0 -12 -2 -17c-5 -20 -26 -36 -47 -36c-7 0 -14 2 -18 4c-10 4 -18 13 -21 22
c-1 5 -2 9 -2 14c0 14 5 27 15 35c4 2 6 7 6 12c0 6 -5 12 -11 13c-1 0 -3 1 -5 1c-5 0 -12 -2 -20 -8c-15 -12 -23 -30 -51 -132v-3h59c6 0 10 -4 10 -10v-22c0 -6 -4 -10 -10 -10h-72v-2c-7 -23 -16 -54 -25 -86c-24 -85 -72 -234 -116 -278c-25 -25 -48 -35 -80 -35
c-46 0 -81 29 -81 81c0 27 25 52 52 52zM393 -163h-224v20h61l99 276c5 10 23 54 23 78c0 7 -1 12 -5 15c-2 1 -5 2 -8 2h-4c-9 -2 -21 -10 -27 -19c-12 -16 -22 -48 -26 -61l-18 9c29 83 63 106 96 106c4 0 7 -1 11 -1c35 -5 56 -43 56 -43l2 -4l3 3c17 17 48 43 79 43
c46 0 70 -49 70 -90c0 -76 -54 -193 -139 -193c-6 0 -13 0 -19 2c-34 9 -44 31 -44 31l-3 7l-58 -161h75v-20z" />
    <glyph glyph-name="dynamicForzando" unicode="&#xe522;&#xe525;" horiz-adv-x="463" 
d="M-85 -60c36 0 45 -26 45 -40c0 -16 -6 -34 -25 -42c-5 -2 -7 -6 -8 -10c0 -5 1 -8 5 -11s9 -5 14 -5c6 0 12 2 17 5c24 16 30 45 51 127l3 12c12 46 21 84 29 121c7 33 15 67 25 107v4h-62c-6 0 -10 4 -10 10v22c0 6 4 10 10 10h76v2c25 74 66 169 159 169
c45 0 90 -26 90 -76c0 -6 0 -12 -2 -17c-5 -20 -26 -36 -47 -36c-7 0 -14 2 -18 4c-10 4 -18 13 -21 22c-1 5 -2 9 -2 14c0 14 5 27 15 35c4 2 6 7 6 12c0 6 -5 12 -11 13c-1 0 -3 1 -5 1c-5 0 -12 -2 -20 -8c-15 -12 -23 -30 -51 -132v-3h59c6 0 10 -4 10 -10v-22
c0 -6 -4 -10 -10 -10h-72v-2c-7 -23 -16 -54 -25 -86c-24 -85 -72 -234 -116 -278c-25 -25 -48 -35 -80 -35c-46 0 -81 29 -81 81c0 27 25 52 52 52zM383 203c-5 -1 -19 -2 -33 -2h-10c-16 1 -29 4 -34 5c-4 0 -5 0 -7 -4s-16 -39 -19 -46s-4 -12 -10 -12h-11
c-5 0 -9 4 -9 8v2c3 7 24 30 34 85c2 11 8 16 14 18c12 0 22 -1 34 -3c13 -2 26 -3 43 -3c9 0 19 0 31 1l48 4h1c2 0 7 -1 8 -9v-6c0 -1 -1 -4 -2 -5c-4 -9 -12 -17 -20 -25c-7 -7 -143 -122 -143 -122s-1 -1 -1 -2s0 -1 2 -2c4 -2 22 -9 38 -21s22 -20 27 -23
c2 -2 5 -2 7 -2c17 0 27 22 27 36v6c-1 4 -17 8 -17 27c0 13 9 28 26 28c21 0 28 -14 28 -34c0 -53 -38 -103 -93 -103c-23 0 -46 8 -56 25c-6 11 -10 24 -27 24s-23 -18 -29 -28c-5 -7 -16 -20 -30 -20c-4 0 -7 1 -11 3c0 0 -7 5 -7 14c0 6 3 13 13 21
c26 21 190 154 191 155s2 2 2 4c0 3 -2 6 -5 6z" />
    <glyph glyph-name="dynamicSforzando1" unicode="&#xe524;&#xe522;" horiz-adv-x="567" 
d="M168 228c0 0 -8 13 -34 13s-45 -21 -45 -38s5 -23 30 -37s77 -29 77 -89s-58 -82 -110 -82s-86 23 -86 68c0 30 20 41 35 41s32 -11 32 -37c0 -24 -13 -31 -16 -33c-1 0 -1 -1 -1 -2c0 -5 7 -15 36 -15c37 0 49 34 49 44s-4 24 -21 34s-33 18 -45 25
c-28 16 -35 39 -35 60c0 39 30 83 97 83c58 0 77 -35 77 -58c0 -3 0 -6 -1 -8c-2 -10 -9 -24 -28 -24s-28 17 -28 28c0 7 3 19 17 27zM148 -60c36 0 45 -26 45 -40c0 -16 -6 -34 -25 -42c-5 -2 -7 -6 -8 -10c0 -5 1 -8 5 -11s9 -5 14 -5c6 0 12 2 17 5c24 16 30 45 51 127
l3 12c12 46 21 84 29 121c7 33 15 67 25 107v4h-62c-6 0 -10 4 -10 10v22c0 6 4 10 10 10h76v2c25 74 66 169 159 169c45 0 90 -26 90 -76c0 -6 0 -12 -2 -17c-5 -20 -26 -36 -47 -36c-7 0 -14 2 -18 4c-10 4 -18 13 -21 22c-1 5 -2 9 -2 14c0 14 5 27 15 35c4 2 6 7 6 12
c0 6 -5 12 -11 13c-1 0 -3 1 -5 1c-5 0 -12 -2 -20 -8c-15 -12 -23 -30 -51 -132v-3h59c6 0 10 -4 10 -10v-22c0 -6 -4 -10 -10 -10h-72v-2c-7 -23 -16 -54 -25 -86c-24 -85 -72 -234 -116 -278c-25 -25 -48 -35 -80 -35c-46 0 -81 29 -81 81c0 27 25 52 52 52z" />
    <glyph glyph-name="dynamicSforzandoPiano" unicode="&#xe524;&#xe522;&#xe520;" horiz-adv-x="814" 
d="M654 12c3 0 8 0 11 2c44 21 79 131 79 179c0 10 -2 29 -14 32c-2 1 -5 1 -8 1c-38 0 -76 -71 -83 -101c-1 -2 -12 -38 -12 -69c0 -19 4 -37 19 -43c2 -1 6 -1 8 -1zM168 228c0 0 -8 13 -34 13s-45 -21 -45 -38s5 -23 30 -37s77 -29 77 -89s-58 -82 -110 -82
s-86 23 -86 68c0 30 20 41 35 41s32 -11 32 -37c0 -24 -13 -31 -16 -33c-1 0 -1 -1 -1 -2c0 -5 7 -15 36 -15c37 0 49 34 49 44s-4 24 -21 34s-33 18 -45 25c-28 16 -35 39 -35 60c0 39 30 83 97 83c58 0 77 -35 77 -58c0 -3 0 -6 -1 -8c-2 -10 -9 -24 -28 -24
s-28 17 -28 28c0 7 3 19 17 27zM148 -60c36 0 45 -26 45 -40c0 -16 -6 -34 -25 -42c-5 -2 -7 -6 -8 -10c0 -5 1 -8 5 -11s9 -5 14 -5c6 0 12 2 17 5c24 16 30 45 51 127l3 12c12 46 21 84 29 121c7 33 15 67 25 107v4h-62c-6 0 -10 4 -10 10v22c0 6 4 10 10 10h76v2
c25 74 66 169 159 169c45 0 90 -26 90 -76c0 -6 0 -12 -2 -17c-5 -20 -26 -36 -47 -36c-7 0 -14 2 -18 4c-10 4 -18 13 -21 22c-1 5 -2 9 -2 14c0 14 5 27 15 35c4 2 6 7 6 12c0 6 -5 12 -11 13c-1 0 -3 1 -5 1c-5 0 -12 -2 -20 -8c-15 -12 -23 -30 -51 -132v-3h59
c6 0 10 -4 10 -10v-22c0 -6 -4 -10 -10 -10h-72v-2c-7 -23 -16 -54 -25 -86c-24 -85 -72 -234 -116 -278c-25 -25 -48 -35 -80 -35c-46 0 -81 29 -81 81c0 27 25 52 52 52zM626 -163h-224v20h61l99 276c5 10 23 54 23 78c0 7 -1 12 -5 15c-2 1 -5 2 -8 2h-4
c-9 -2 -21 -10 -27 -19c-12 -16 -22 -48 -26 -61l-18 9c29 83 63 106 96 106c4 0 7 -1 11 -1c35 -5 56 -43 56 -43l2 -4l3 3c17 17 48 43 79 43c46 0 70 -49 70 -90c0 -76 -54 -193 -139 -193c-6 0 -13 0 -19 2c-34 9 -44 31 -44 31l-3 7l-58 -161h75v-20z" />
    <glyph glyph-name="dynamicSforzandoPianissimo" unicode="&#xe524;&#xe522;&#xe520;&#xe520;" horiz-adv-x="1138" 
d="M665 14c44 21 79 131 79 179c0 10 -2 29 -14 32c-2 1 -5 1 -8 1c-38 0 -76 -71 -83 -101c-1 -2 -12 -38 -12 -69c0 -19 4 -37 19 -43c2 -1 6 -1 8 -1c3 0 8 0 11 2zM989 14c44 21 79 131 79 179c0 10 -2 29 -14 32c-2 1 -5 1 -8 1c-38 0 -76 -71 -83 -101
c-1 -2 -12 -38 -12 -69c0 -19 4 -37 19 -43c2 -1 6 -1 8 -1c3 0 8 0 11 2zM168 228c0 0 -8 13 -34 13s-45 -21 -45 -38s5 -23 30 -37s77 -29 77 -89s-58 -82 -110 -82s-86 23 -86 68c0 30 20 41 35 41s32 -11 32 -37c0 -24 -13 -31 -16 -33c-1 0 -1 -1 -1 -2
c0 -5 7 -15 36 -15c37 0 49 34 49 44s-4 24 -21 34s-33 18 -45 25c-28 16 -35 39 -35 60c0 39 30 83 97 83c58 0 77 -35 77 -58c0 -3 0 -6 -1 -8c-2 -10 -9 -24 -28 -24s-28 17 -28 28c0 7 3 19 17 27zM148 -60c36 0 45 -26 45 -40c0 -16 -6 -34 -25 -42c-5 -2 -7 -6 -8 -10
c0 -5 1 -8 5 -11s9 -5 14 -5c6 0 12 2 17 5c24 16 30 45 51 127l3 12c12 46 21 84 29 121c7 33 15 67 25 107v4h-62c-6 0 -10 4 -10 10v22c0 6 4 10 10 10h76v2c25 74 66 169 159 169c45 0 90 -26 90 -76c0 -6 0 -12 -2 -17c-5 -20 -26 -36 -47 -36c-7 0 -14 2 -18 4
c-10 4 -18 13 -21 22c-1 5 -2 9 -2 14c0 14 5 27 15 35c4 2 6 7 6 12c0 6 -5 12 -11 13c-1 0 -3 1 -5 1c-5 0 -12 -2 -20 -8c-15 -12 -23 -30 -51 -132v-3h59c6 0 10 -4 10 -10v-22c0 -6 -4 -10 -10 -10h-72v-2c-7 -23 -16 -54 -25 -86c-24 -85 -72 -234 -116 -278
c-25 -25 -48 -35 -80 -35c-46 0 -81 29 -81 81c0 27 25 52 52 52zM1068 261c46 0 70 -49 70 -90c0 -76 -55 -193 -140 -193c-6 0 -13 0 -19 2c-34 9 -43 31 -43 31l-3 7l-58 -161h75v-20h-225v20h62l99 276c12 32 23 58 23 75c0 14 -8 22 -22 22c-16 0 -35 -13 -43 -26
c-10 -17 -23 -40 -38 -90c-21 -80 -76 -136 -131 -136c-6 0 -13 0 -19 2c-34 9 -44 31 -44 31l-3 7l-58 -161h75v-20h-224v20h61l99 276c5 10 23 54 23 78c0 7 -1 12 -5 15c-2 1 -5 2 -8 2h-4c-9 -2 -20 -10 -26 -19c-12 -16 -23 -48 -27 -61l-18 9c29 83 63 106 96 106
c4 0 7 -1 11 -1c35 -5 56 -43 56 -43l2 -4l3 3c17 17 48 43 79 43c36 0 62 -32 68 -65c23 54 67 67 101 67c5 0 10 0 15 -1c35 -5 56 -43 56 -43l2 -4l3 3c17 17 48 43 79 43z" />
    <glyph glyph-name="dynamicSforzato" unicode="&#xe524;&#xe522;&#xe525;" horiz-adv-x="698" 
d="M168 228c0 0 -8 13 -34 13s-45 -21 -45 -38s5 -23 30 -37s77 -29 77 -89s-58 -82 -110 -82s-86 23 -86 68c0 30 20 41 35 41s32 -11 32 -37c0 -24 -13 -31 -16 -33c-1 0 -1 -1 -1 -2c0 -5 7 -15 36 -15c37 0 49 34 49 44s-4 24 -21 34s-33 18 -45 25
c-28 16 -35 39 -35 60c0 39 30 83 97 83c58 0 77 -35 77 -58c0 -3 0 -6 -1 -8c-2 -10 -9 -24 -28 -24s-28 17 -28 28c0 7 3 19 17 27zM148 -60c36 0 45 -26 45 -40c0 -16 -6 -34 -25 -42c-5 -2 -7 -6 -8 -10c0 -5 1 -8 5 -11s9 -5 14 -5c6 0 12 2 17 5c24 16 30 45 51 127
l3 12c12 46 21 84 29 121c7 33 15 67 25 107v4h-62c-6 0 -10 4 -10 10v22c0 6 4 10 10 10h76v2c25 74 66 169 159 169c45 0 90 -26 90 -76c0 -6 0 -12 -2 -17c-5 -20 -26 -36 -47 -36c-7 0 -14 2 -18 4c-10 4 -18 13 -21 22c-1 5 -2 9 -2 14c0 14 5 27 15 35c4 2 6 7 6 12
c0 6 -5 12 -11 13c-1 0 -3 1 -5 1c-5 0 -12 -2 -20 -8c-15 -12 -23 -30 -51 -132v-3h59c6 0 10 -4 10 -10v-22c0 -6 -4 -10 -10 -10h-72v-2c-7 -23 -16 -54 -25 -86c-24 -85 -72 -234 -116 -278c-25 -25 -48 -35 -80 -35c-46 0 -81 29 -81 81c0 27 25 52 52 52zM618 203
c-5 -1 -19 -2 -33 -2h-10c-16 1 -29 4 -34 5c-4 0 -5 0 -7 -4s-16 -39 -19 -46s-4 -12 -10 -12h-11c-5 0 -9 4 -9 8v2c3 7 24 30 34 85c2 11 8 16 14 18c12 0 22 -1 34 -3c13 -2 26 -3 43 -3c9 0 19 0 31 1l48 4h1c2 0 7 -1 8 -9v-6c0 -1 -1 -4 -2 -5c-4 -9 -12 -17 -20 -25
c-7 -7 -143 -122 -143 -122s-1 -1 -1 -2s0 -1 2 -2c4 -2 22 -9 38 -21s22 -20 27 -23c2 -2 5 -2 7 -2c17 0 27 22 27 36v6c-1 4 -17 8 -17 27c0 13 9 28 26 28c21 0 28 -14 28 -34c0 -53 -38 -103 -93 -103c-23 0 -46 8 -56 25c-6 11 -10 24 -27 24s-23 -18 -29 -28
c-5 -7 -16 -20 -30 -20c-4 0 -7 1 -11 3c0 0 -7 5 -7 14c0 6 3 13 13 21c26 21 190 154 191 155s2 2 2 4c0 3 -2 6 -5 6z" />
    <glyph glyph-name="dynamicSforzatoPiano" unicode="&#xe524;&#xe522;&#xe525;&#xe520;" horiz-adv-x="1012" 
d="M852 12c3 0 8 0 11 2c44 21 79 131 79 179c0 10 -2 29 -14 32c-2 1 -5 1 -8 1c-38 0 -76 -71 -83 -101c-1 -2 -12 -38 -12 -69c0 -19 4 -37 19 -43c2 -1 6 -1 8 -1zM168 223c0 0 -8 13 -34 13s-45 -21 -45 -38s5 -23 30 -37s77 -29 77 -89s-58 -82 -110 -82
s-86 23 -86 68c0 30 20 41 35 41s32 -11 32 -37c0 -24 -13 -31 -16 -33c-1 0 -1 -1 -1 -2c0 -5 7 -15 36 -15c37 0 49 34 49 44s-4 24 -21 34s-33 18 -45 25c-28 16 -35 39 -35 60c0 39 30 83 97 83c58 0 77 -35 77 -58c0 -3 0 -6 -1 -8c-2 -10 -9 -24 -28 -24
s-28 17 -28 28c0 7 3 19 17 27zM148 -65c36 0 45 -26 45 -40c0 -16 -6 -34 -25 -42c-5 -2 -7 -6 -8 -10c0 -5 1 -8 5 -11s9 -5 14 -5c6 0 12 2 17 5c24 16 30 45 51 127l3 12c12 46 21 84 29 121c7 33 15 67 25 107v4h-62c-6 0 -10 4 -10 10v22c0 6 4 10 10 10h76v2
c25 74 66 169 159 169c45 0 90 -26 90 -76c0 -6 0 -12 -2 -17c-5 -20 -26 -36 -47 -36c-7 0 -14 2 -18 4c-10 4 -18 13 -21 22c-1 5 -2 9 -2 14c0 14 5 27 15 35c4 2 6 7 6 12c0 6 -5 12 -11 13c-1 0 -3 1 -5 1c-5 0 -12 -2 -20 -8c-15 -12 -23 -30 -51 -132v-3h59
c6 0 10 -4 10 -10v-22c0 -6 -4 -10 -10 -10h-72v-2c-7 -23 -16 -54 -25 -86c-24 -85 -72 -234 -116 -278c-25 -25 -48 -35 -80 -35c-46 0 -81 29 -81 81c0 27 25 52 52 52zM618 198c-5 -1 -19 -2 -33 -2h-10c-16 1 -29 4 -34 5c-4 0 -5 0 -7 -4s-16 -39 -19 -46
s-4 -12 -10 -12h-11c-5 0 -9 4 -9 8v2c3 7 24 30 34 85c2 11 8 16 14 18c12 0 22 -1 34 -3c13 -2 26 -3 43 -3c9 0 19 0 31 1l48 4h1c2 0 7 -1 8 -9v-6c0 -1 -1 -4 -2 -5c-4 -9 -12 -17 -20 -25c-7 -7 -143 -122 -143 -122s-1 -1 -1 -2s0 -1 2 -2c4 -2 22 -9 38 -21
s22 -20 27 -23c2 -2 5 -2 7 -2c17 0 27 22 27 36v6c-1 4 -17 8 -17 27c0 13 9 28 26 28c21 0 28 -14 28 -34c0 -53 -38 -103 -93 -103c-23 0 -46 8 -56 25c-6 11 -10 24 -27 24s-23 -18 -29 -28c-5 -7 -16 -20 -30 -20c-4 0 -7 1 -11 3c0 0 -7 5 -7 14c0 6 3 13 13 21
c26 21 190 154 191 155s2 2 2 4c0 3 -2 6 -5 6zM824 -163h-224v20h61l99 276c5 10 23 54 23 78c0 7 -1 12 -5 15c-2 1 -5 2 -8 2h-4c-9 -2 -21 -10 -27 -19c-12 -16 -22 -48 -26 -61l-18 9c29 83 63 106 96 106c4 0 7 -1 11 -1c35 -5 56 -43 56 -43l2 -4l3 3
c17 17 48 43 79 43c46 0 70 -49 70 -90c0 -76 -54 -193 -139 -193c-6 0 -13 0 -19 2c-34 9 -44 31 -44 31l-3 7l-58 -161h75v-20z" />
    <glyph glyph-name="dynamicSforzatoFF" unicode="&#xe524;&#xe522;&#xe522;&#xe525;" horiz-adv-x="950" 
d="M168 228c0 0 -8 13 -34 13s-45 -21 -45 -38s5 -23 30 -37s77 -29 77 -89s-58 -82 -110 -82s-86 23 -86 68c0 30 20 41 35 41s32 -11 32 -37c0 -24 -13 -31 -16 -33c-1 0 -1 -1 -1 -2c0 -5 7 -15 36 -15c37 0 49 34 49 44s-4 24 -21 34s-33 18 -45 25
c-28 16 -35 39 -35 60c0 39 30 83 97 83c58 0 77 -35 77 -58c0 -3 0 -6 -1 -8c-2 -10 -9 -24 -28 -24s-28 17 -28 28c0 7 3 19 17 27zM414 253l-1 -3h156l1 2c25 74 66 170 158 170c29 0 69 -12 83 -39c7 -11 10 -23 10 -35c0 -6 -1 -13 -3 -19c-6 -21 -27 -36 -49 -36
c-6 0 -12 1 -16 3c-10 4 -18 14 -21 23c-1 5 -2 10 -2 15c0 13 5 26 15 34c4 2 6 7 6 12c0 6 -5 12 -11 13c-1 0 -3 1 -5 1c-5 0 -12 -2 -20 -8c-15 -12 -23 -30 -51 -133l-1 -3h60c6 0 10 -4 10 -10v-22c0 -6 -4 -10 -10 -10h-73v-2c-7 -23 -16 -55 -25 -87
c-25 -85 -73 -235 -117 -279c-25 -25 -48 -36 -80 -36c-46 0 -82 29 -82 82c0 27 25 52 52 52c36 0 46 -26 46 -40c0 -16 -6 -35 -25 -43c-5 -2 -8 -5 -9 -9c-1 -5 3 -10 6 -12c4 -3 8 -4 13 -4c6 0 12 2 17 5c24 16 31 45 52 127l3 12c12 46 21 85 29 122
c7 33 15 68 25 108l1 4h-156v-2c-7 -23 -16 -55 -25 -87c-25 -85 -73 -235 -117 -279c-25 -25 -48 -36 -80 -36c-46 0 -82 28 -82 81c0 27 25 53 52 53c36 0 46 -26 46 -40c0 -16 -6 -35 -25 -43c-5 -2 -8 -6 -9 -10c-1 -5 3 -9 6 -11c4 -3 8 -4 13 -4c6 0 12 2 17 5
c24 16 31 45 52 127l3 12c12 46 21 85 29 122c7 33 15 68 25 108l1 4h-63c-6 0 -10 4 -10 10v22c0 6 4 10 10 10h76l1 2c25 74 66 170 158 170c29 0 69 -12 83 -39c7 -11 10 -23 10 -35c0 -6 -1 -13 -3 -19c-6 -21 -27 -36 -49 -36c-6 0 -12 1 -16 3c-10 4 -18 14 -21 23
c-1 5 -2 10 -2 15c0 13 5 26 15 34c4 2 6 7 6 12c0 6 -5 12 -11 13c-1 0 -3 1 -5 1c-5 0 -12 -2 -20 -8c-15 -12 -23 -30 -51 -133zM870 203c-5 -1 -19 -2 -33 -2h-10c-16 1 -29 4 -34 5c-4 0 -5 0 -7 -4s-16 -39 -19 -46s-4 -12 -10 -12h-11c-5 0 -9 4 -9 8v2
c3 7 24 30 34 85c2 11 8 16 14 18c12 0 22 -1 34 -3c13 -2 26 -3 43 -3c9 0 19 0 31 1l48 4h1c2 0 7 -1 8 -9v-6c0 -1 -1 -4 -2 -5c-4 -9 -12 -17 -20 -25c-7 -7 -143 -122 -143 -122s-1 -1 -1 -2s0 -1 2 -2c4 -2 22 -9 38 -21s22 -20 27 -23c2 -2 5 -2 7 -2
c17 0 27 22 27 36v6c-1 4 -17 8 -17 27c0 13 9 28 26 28c21 0 28 -14 28 -34c0 -53 -38 -103 -93 -103c-23 0 -46 8 -56 25c-6 11 -10 24 -27 24s-23 -18 -29 -28c-5 -7 -16 -20 -30 -20c-4 0 -7 1 -11 3c0 0 -7 5 -7 14c0 6 3 13 13 21c26 21 190 154 191 155s2 2 2 4
c0 3 -2 6 -5 6z" />
    <glyph glyph-name="dynamicRinforzando1" unicode="&#xe523;&#xe522;" horiz-adv-x="586" 
d="M189 253c22 0 41 -16 41 -39c0 -31 -16 -55 -48 -55c-9 0 -19 2 -26 10c-4 4 -6 11 -6 17c0 8 3 16 12 23v2c0 1 0 2 -3 4c-1 1 -2 1 -3 1c-3 0 -7 -2 -11 -6c-16 -16 -48 -50 -68 -191c0 -3 -1 -6 -1 -7c-2 -11 -7 -12 -11 -12h-55c-8 0 -10 5 -10 12v4l34 109
c11 35 20 64 20 81c0 8 -2 14 -7 16c-2 1 -3 1 -5 1c-22 0 -39 -54 -39 -54l-15 8c10 33 33 77 73 77c5 0 10 -1 15 -2c29 -7 38 -41 38 -41l3 4c17 23 43 38 72 38zM167 -60c36 0 45 -26 45 -40c0 -16 -6 -34 -25 -42c-5 -2 -7 -6 -8 -10c0 -5 1 -8 5 -11s9 -5 14 -5
c6 0 12 2 17 5c24 16 30 45 51 127l3 12c12 46 21 84 29 121c7 33 15 67 25 107v4h-62c-6 0 -10 4 -10 10v22c0 6 4 10 10 10h76v2c25 74 66 169 159 169c45 0 90 -26 90 -76c0 -6 0 -12 -2 -17c-5 -20 -26 -36 -47 -36c-7 0 -14 2 -18 4c-10 4 -18 13 -21 22
c-1 5 -2 9 -2 14c0 14 5 27 15 35c4 2 6 7 6 12c0 6 -5 12 -11 13c-1 0 -3 1 -5 1c-5 0 -12 -2 -20 -8c-15 -12 -23 -30 -51 -132v-3h59c6 0 10 -4 10 -10v-22c0 -6 -4 -10 -10 -10h-72v-2c-7 -23 -16 -54 -25 -86c-24 -85 -72 -234 -116 -278c-25 -25 -48 -35 -80 -35
c-46 0 -81 29 -81 81c0 27 25 52 52 52z" />
    <glyph glyph-name="dynamicRinforzando2" unicode="&#xe523;&#xe522;&#xe525;" horiz-adv-x="716" 
d="M189 253c22 0 41 -16 41 -39c0 -31 -16 -55 -48 -55c-9 0 -19 2 -26 10c-4 4 -6 11 -6 17c0 8 3 16 12 23v2c0 1 0 2 -3 4c-1 1 -2 1 -3 1c-3 0 -7 -2 -11 -6c-16 -16 -48 -50 -68 -191c0 -3 -1 -6 -1 -7c-2 -11 -7 -12 -11 -12h-55c-8 0 -10 5 -10 12v4l34 109
c11 35 20 64 20 81c0 8 -2 14 -7 16c-2 1 -3 1 -5 1c-22 0 -39 -54 -39 -54l-15 8c10 33 33 77 73 77c5 0 10 -1 15 -2c29 -7 38 -41 38 -41l3 4c17 23 43 38 72 38zM167 -60c36 0 45 -26 45 -40c0 -16 -6 -34 -25 -42c-5 -2 -7 -6 -8 -10c0 -5 1 -8 5 -11s9 -5 14 -5
c6 0 12 2 17 5c24 16 30 45 51 127l3 12c12 46 21 84 29 121c7 33 15 67 25 107v4h-62c-6 0 -10 4 -10 10v22c0 6 4 10 10 10h76v2c25 74 66 169 159 169c45 0 90 -26 90 -76c0 -6 0 -12 -2 -17c-5 -20 -26 -36 -47 -36c-7 0 -14 2 -18 4c-10 4 -18 13 -21 22
c-1 5 -2 9 -2 14c0 14 5 27 15 35c4 2 6 7 6 12c0 6 -5 12 -11 13c-1 0 -3 1 -5 1c-5 0 -12 -2 -20 -8c-15 -12 -23 -30 -51 -132v-3h59c6 0 10 -4 10 -10v-22c0 -6 -4 -10 -10 -10h-72v-2c-7 -23 -16 -54 -25 -86c-24 -85 -72 -234 -116 -278c-25 -25 -48 -35 -80 -35
c-46 0 -81 29 -81 81c0 27 25 52 52 52zM636 203c-5 -1 -19 -2 -33 -2h-10c-16 1 -29 4 -34 5c-4 0 -5 0 -7 -4s-16 -39 -19 -46s-4 -12 -10 -12h-11c-5 0 -9 4 -9 8v2c3 7 24 30 34 85c2 11 8 16 14 18c12 0 22 -1 34 -3c13 -2 26 -3 43 -3c9 0 19 0 31 1l48 4h1
c2 0 7 -1 8 -9v-6c0 -1 -1 -4 -2 -5c-4 -9 -12 -17 -20 -25c-7 -7 -143 -122 -143 -122s-1 -1 -1 -2s0 -1 2 -2c4 -2 22 -9 38 -21s22 -20 27 -23c2 -2 5 -2 7 -2c17 0 27 22 27 36v6c-1 4 -17 8 -17 27c0 13 9 28 26 28c21 0 28 -14 28 -34c0 -53 -38 -103 -93 -103
c-23 0 -46 8 -56 25c-6 11 -10 24 -27 24s-23 -18 -29 -28c-5 -7 -16 -20 -30 -20c-4 0 -7 1 -11 3c0 0 -7 5 -7 14c0 6 3 13 13 21c26 21 190 154 191 155s2 2 2 4c0 3 -2 6 -5 6z" />
    <glyph glyph-name="keyboardPedalPed" unicode="&#xe651;&#xe652;&#xe653;&#xe654;" horiz-adv-x="981" 
d="M758 61c27 5 40 20 40 84c0 54 -14 88 -29 116c-7 -1 -72 -11 -72 -120c0 -46 23 -81 53 -81c3 0 6 0 8 1zM522 273c-26 0 -44 -32 -44 -90c0 -13 1 -27 3 -42c3 3 31 32 54 57c12 13 17 28 17 41c0 19 -11 34 -30 34zM170 352c0 -54 -41 -98 -82 -98s-88 23 -88 98
s90 193 244 193c17 0 35 -2 54 -5c111 -20 152 -89 152 -143c0 -28 -11 -52 -28 -64c-14 -10 -30 -15 -46 -15c-34 0 -70 20 -92 65c-3 7 -7 15 -7 22c0 1 -1 1 0 2c0 6 2 11 7 15c4 3 7 4 11 4c9 0 18 -9 24 -15c7 -6 25 -23 44 -23c6 0 12 2 18 7c4 3 6 9 6 16
c0 25 -25 67 -89 84c-2 -2 -17 -14 -30 -43c-10 -20 -23 -44 -22 -63c0 -7 1 -13 5 -19c15 -21 56 -79 61 -85c2 -4 23 -36 23 -69c0 -8 -2 -15 -5 -22c-15 -37 -50 -63 -54 -66c1 0 11 3 43 -31c14 -15 37 -29 56 -29c6 0 11 1 16 4c22 13 31 25 32 26c-5 16 -7 35 -7 56
c0 74 31 163 110 163c40 0 74 -32 74 -74c0 -26 -13 -55 -45 -83c-40 -34 -61 -53 -63 -55c1 -5 12 -51 54 -51c40 0 78 34 86 44c-1 7 -1 16 -1 28c0 52 15 142 113 176c-4 7 -45 69 -176 119c-7 3 -15 5 -22 8c-2 1 -19 8 -20 22v3c2 8 8 10 15 10h4c7 0 14 -2 21 -3
c64 -12 287 -83 311 -289c0 -8 1 -16 1 -24c0 -71 -36 -136 -100 -153c-8 -2 -16 -3 -24 -3c-47 0 -94 34 -109 74c-8 -7 -71 -73 -131 -73c-51 0 -79 67 -82 74c-44 -37 -66 -74 -100 -74c-30 0 -43 8 -62 34c-11 15 -22 41 -39 41c-21 0 -36 -28 -48 -40
c-14 -16 -41 -38 -63 -38c-11 0 -20 5 -27 18c-3 7 -4 13 -4 19c0 37 60 63 71 70c15 10 49 28 83 57c18 16 26 30 26 43c0 10 -4 19 -10 27c-16 22 -53 65 -70 90c-6 9 -9 19 -9 30c0 23 10 43 11 45c15 39 48 98 56 112h-6c-22 0 -94 -7 -143 -75c-20 -26 -27 -50 -27 -68
c0 -20 10 -34 22 -35c2 -1 4 -1 6 -1c14 0 25 10 30 32c4 19 14 25 22 24h2c10 0 17 -8 17 -26zM939 8c-23 0 -41 20 -41 46s18 47 41 47s42 -21 42 -47s-19 -46 -42 -46z" />
    <glyph glyph-name="uniF434" unicode="&#xe651;&#xe652;&#xe653;" horiz-adv-x="878" 
d="M758 61c27 5 40 20 40 84c0 54 -14 88 -29 116c-7 -1 -72 -11 -72 -120c0 -46 23 -81 53 -81c3 0 6 0 8 1zM522 273c-26 0 -44 -32 -44 -90c0 -13 1 -27 3 -42c3 3 31 32 54 57c12 13 17 28 17 41c0 19 -11 34 -30 34zM170 352c0 -54 -41 -98 -82 -98s-88 23 -88 98
s90 193 244 193c17 0 35 -2 54 -5c111 -20 152 -89 152 -143c0 -28 -11 -52 -28 -64c-14 -10 -30 -15 -46 -15c-34 0 -70 20 -92 65c-3 7 -7 15 -7 22c0 1 -1 1 0 2c0 6 2 11 7 15c4 3 7 4 11 4c9 0 18 -9 24 -15c7 -6 25 -23 44 -23c6 0 12 2 18 7c4 3 6 9 6 16
c0 25 -25 67 -89 84c-2 -2 -17 -14 -30 -43c-10 -20 -23 -44 -22 -63c0 -7 1 -13 5 -19c15 -21 56 -79 61 -85c2 -4 23 -36 23 -69c0 -8 -2 -15 -5 -22c-15 -37 -50 -63 -54 -66c1 0 11 3 43 -31c14 -15 37 -29 56 -29c6 0 11 1 16 4c22 13 31 25 32 26c-5 16 -7 35 -7 56
c0 74 31 163 110 163c40 0 74 -32 74 -74c0 -26 -13 -55 -45 -83c-40 -34 -61 -53 -63 -55c1 -5 12 -51 54 -51c40 0 78 34 86 44c-1 7 -1 16 -1 28c0 52 15 142 113 176c-4 7 -45 69 -176 119c-7 3 -15 5 -22 8c-2 1 -19 8 -20 22v3c2 8 8 10 15 10h4c7 0 14 -2 21 -3
c64 -12 287 -83 311 -289c0 -8 1 -16 1 -24c0 -71 -36 -136 -100 -153c-8 -2 -16 -3 -24 -3c-47 0 -94 34 -109 74c-8 -7 -71 -73 -131 -73c-51 0 -79 67 -82 74c-44 -37 -66 -74 -100 -74c-30 0 -43 8 -62 34c-11 15 -22 41 -39 41c-21 0 -36 -28 -48 -40
c-14 -16 -41 -38 -63 -38c-11 0 -20 5 -27 18c-3 7 -4 13 -4 19c0 37 60 63 71 70c15 10 49 28 83 57c18 16 26 30 26 43c0 10 -4 19 -10 27c-16 22 -53 65 -70 90c-6 9 -9 19 -9 30c0 23 10 43 11 45c15 39 48 98 56 112h-6c-22 0 -94 -7 -143 -75c-20 -26 -27 -50 -27 -68
c0 -20 10 -34 22 -35c2 -1 4 -1 6 -1c14 0 25 10 30 32c4 19 14 25 22 24h2c10 0 17 -8 17 -26z" />
    <glyph glyph-name="uniF631" unicode="&#xe524;&#xe522;&#xe522;" horiz-adv-x="821" 
d="M168 228c0 0 -8 13 -34 13s-45 -21 -45 -38s5 -23 30 -37s77 -29 77 -89s-58 -82 -110 -82s-86 23 -86 68c0 30 20 41 35 41s32 -11 32 -37c0 -24 -13 -31 -16 -33c-1 0 -1 -1 -1 -2c0 -5 7 -15 36 -15c37 0 49 34 49 44s-4 24 -21 34s-33 18 -45 25
c-28 16 -35 39 -35 60c0 39 30 83 97 83c58 0 77 -35 77 -58c0 -3 0 -6 -1 -8c-2 -10 -9 -24 -28 -24s-28 17 -28 28c0 7 3 19 17 27zM414 253l-1 -3h156l1 2c25 74 66 170 158 170c29 0 69 -12 83 -39c7 -11 10 -23 10 -35c0 -6 -1 -13 -3 -19c-6 -21 -27 -36 -49 -36
c-6 0 -12 1 -16 3c-10 4 -18 14 -21 23c-1 5 -2 10 -2 15c0 13 5 26 15 34c4 2 6 7 6 12c0 6 -5 12 -11 13c-1 0 -3 1 -5 1c-5 0 -12 -2 -20 -8c-15 -12 -23 -30 -51 -133l-1 -3h60c6 0 10 -4 10 -10v-22c0 -6 -4 -10 -10 -10h-73v-2c-7 -23 -16 -55 -25 -87
c-25 -85 -73 -235 -117 -279c-25 -25 -48 -36 -80 -36c-46 0 -82 29 -82 82c0 27 25 52 52 52c36 0 46 -26 46 -40c0 -16 -6 -35 -25 -43c-5 -2 -8 -5 -9 -9c-1 -5 3 -10 6 -12c4 -3 8 -4 13 -4c6 0 12 2 17 5c24 16 31 45 52 127l3 12c12 46 21 85 29 122
c7 33 15 68 25 108l1 4h-156v-2c-7 -23 -16 -55 -25 -87c-25 -85 -73 -235 -117 -279c-25 -25 -48 -36 -80 -36c-46 0 -82 28 -82 81c0 27 25 53 52 53c36 0 46 -26 46 -40c0 -16 -6 -35 -25 -43c-5 -2 -8 -6 -9 -10c-1 -5 3 -9 6 -11c4 -3 8 -4 13 -4c6 0 12 2 17 5
c24 16 31 45 52 127l3 12c12 46 21 85 29 122c7 33 15 68 25 108l1 4h-63c-6 0 -10 4 -10 10v22c0 6 4 10 10 10h76l1 2c25 74 66 170 158 170c29 0 69 -12 83 -39c7 -11 10 -23 10 -35c0 -6 -1 -13 -3 -19c-6 -21 -27 -36 -49 -36c-6 0 -12 1 -16 3c-10 4 -18 14 -21 23
c-1 5 -2 10 -2 15c0 13 5 26 15 34c4 2 6 7 6 12c0 6 -5 12 -11 13c-1 0 -3 1 -5 1c-5 0 -12 -2 -20 -8c-15 -12 -23 -30 -51 -133z" />
    <glyph glyph-name=".notdef" horiz-adv-x="500" 
 />
    <glyph glyph-name="uni0000" horiz-adv-x="0" 
 />
    <glyph glyph-name="uni000D" unicode="&#xd;" horiz-adv-x="250" 
 />
    <glyph glyph-name="space" unicode=" " horiz-adv-x="250" 
 />
    <glyph glyph-name="brace" unicode="&#xe000;" horiz-adv-x="62" 
d="M9 500c18 -19 53 -57 53 -130c0 -91 -39 -183 -39 -240c0 -61 35 -118 37 -120v-2c1 -1 0 -2 -1 -3s-3 0 -4 2c-1 1 -55 56 -55 137c0 88 35 150 35 265c0 22 -9 57 -34 88c-1 1 -2 2 -1 3c0 1 0 3 1 3c25 31 34 66 34 88c0 115 -35 177 -35 265c0 82 54 136 55 137
c1 2 3 2 4 2c1 -1 1 -2 1 -3v-2c-2 -2 -37 -59 -37 -120c0 -57 39 -149 39 -240c0 -72 -35 -111 -53 -130z" />
    <glyph glyph-name="reversedBrace" unicode="&#xe001;" horiz-adv-x="62" 
d="M53 500c-18 19 -53 58 -53 130c0 91 39 183 39 240c0 61 -35 118 -36 120c-1 1 -1 1 -1 2s0 2 1 3c1 0 3 0 4 -2c1 -1 55 -56 55 -137c0 -88 -35 -150 -35 -265c0 -22 9 -57 34 -88c1 -1 1 -2 1 -3c1 -1 0 -2 -1 -3c-25 -31 -34 -66 -34 -88c0 -115 35 -177 35 -265
c0 -81 -54 -136 -55 -137c-1 -2 -3 -3 -4 -2s-1 1 -1 2s0 2 1 3c1 2 36 59 36 120c0 57 -39 149 -39 240c0 73 35 111 53 130z" />
    <glyph glyph-name="bracket" unicode="&#xe002;" horiz-adv-x="528" 
d="M210 -269h-196c-8 0 -14 6 -14 14v1511c0 8 6 14 14 14h196c191 0 292 154 293 156c3 3 7 5 11 5c2 0 5 0 7 -1c5 -2 7 -7 7 -12c0 -2 0 -3 -1 -5c-1 -3 -61 -260 -368 -260h-51v-1305h51c308 0 367 -257 368 -260c1 -2 1 -3 1 -5c0 -5 -2 -10 -7 -12c-2 -1 -5 -2 -7 -2
c-4 0 -7 2 -10 5c-1 2 -103 157 -294 157z" />
    <glyph glyph-name="bracketTop" unicode="&#xe003;" horiz-adv-x="491" 
d="M484 277c4 -3 7 -7 7 -12c0 -2 -1 -4 -1 -5c-1 -3 -60 -260 -368 -260h-122v104c0 8 6 13 14 13h159c191 0 291 154 293 157c2 4 7 5 11 5c2 0 5 -1 7 -2z" />
    <glyph glyph-name="bracketBottom" unicode="&#xe004;" horiz-adv-x="491" 
d="M484 -277c-2 -1 -5 -2 -7 -2c-4 0 -9 1 -11 5c-2 3 -102 157 -293 157h-159c-8 0 -14 5 -14 13v104h122c308 0 367 -257 368 -260c0 -1 1 -3 1 -5c0 -5 -3 -9 -7 -12z" />
    <glyph glyph-name="reversedBracketTop" unicode="&#xe005;" horiz-adv-x="491" 
d="M7 277c2 1 5 2 7 2c4 0 9 -1 11 -5c2 -3 102 -157 293 -157h159c8 0 14 -5 14 -13v-104h-122c-308 0 -367 257 -368 260c0 1 -1 3 -1 5c0 5 3 9 7 12z" />
    <glyph glyph-name="reversedBracketBottom" unicode="&#xe006;" horiz-adv-x="491" 
d="M7 -277c-4 3 -7 7 -7 12c0 2 1 4 1 5c1 3 60 260 368 260h122v-104c0 -8 -6 -13 -14 -13h-159c-191 0 -291 -154 -293 -157c-2 -4 -7 -5 -11 -5c-2 0 -5 1 -7 2z" />
    <glyph glyph-name="systemDivider" unicode="&#xe007;" horiz-adv-x="1042" 
d="M14 153l994 463c3 2 7 3 10 3c13 0 24 -11 24 -24v-205c0 -8 -6 -18 -14 -21l-994 -464c-3 -1 -7 -2 -10 -2c-13 0 -24 10 -24 24v204c0 9 6 18 14 22zM14 653l994 463c3 2 7 3 10 3c13 0 24 -11 24 -24v-205c0 -8 -6 -18 -14 -21l-994 -464c-3 -1 -7 -2 -10 -2
c-13 0 -24 10 -24 24v204c0 9 6 18 14 22z" />
    <glyph glyph-name="systemDividerLong" unicode="&#xe008;" horiz-adv-x="1539" 
d="M17 151l1491 470c2 0 5 1 7 1c13 0 24 -11 24 -24v-195c0 -9 -8 -20 -17 -22l-1491 -470c-2 -1 -5 -2 -7 -2c-13 0 -24 11 -24 24v195c0 9 7 20 17 23zM17 639l1491 470c2 1 5 1 7 1c13 0 24 -10 24 -23v-195c0 -10 -7 -20 -17 -23l-1491 -470c-2 0 -5 -1 -7 -1
c-13 0 -24 11 -24 24v195c0 9 8 19 17 22z" />
    <glyph glyph-name="systemDividerExtraLong" unicode="&#xe009;" horiz-adv-x="2276" 
d="M20 186l2228 392c1 1 3 1 4 1c13 0 24 -11 24 -24v-188c0 -11 -9 -22 -20 -24l-2228 -392c-1 -1 -3 -1 -4 -1c-13 0 -24 11 -24 24v189c0 11 9 21 20 23zM20 661l2228 392c15 0 28 -7 28 -24v-188c0 -11 -9 -21 -20 -23l-2228 -393c-15 0 -28 7 -28 24v188
c0 11 9 22 20 24z" />
    <glyph glyph-name="repeatDots" unicode="&#xe043;" horiz-adv-x="104" 
d="M104 625c0 -29 -23 -53 -52 -53s-52 24 -52 53s23 53 52 53s52 -24 52 -53zM104 375c0 -29 -23 -53 -52 -53s-52 24 -52 53s23 53 52 53s52 -24 52 -53z" />
    <glyph glyph-name="repeatDot" unicode="&#xe044;" horiz-adv-x="104" 
d="M104 0c0 -29 -23 -53 -52 -53s-52 24 -52 53s23 53 52 53s52 -24 52 -53z" />
    <glyph glyph-name="segno" unicode="&#xe047;" horiz-adv-x="654" 
d="M82 289c-35 0 -65 29 -65 64s30 64 65 64c34 0 64 -30 64 -64s-30 -64 -64 -64zM379 479l191 -98c56 -29 84 -85 84 -164s-49 -199 -203 -199c-153 0 -167 76 -171 95c-1 3 -1 6 -1 10c0 34 26 59 60 59s67 -24 77 -59c12 -40 38 -63 74 -63c40 0 95 31 95 118
c0 43 -43 73 -96 102l-172 89l-205 -362c-2 -3 -6 -6 -9 -7h-3c-2 0 -6 1 -8 2l-15 11c-3 2 -6 7 -6 11c0 2 0 5 1 7l204 360l-189 99c-58 33 -87 83 -87 162s50 199 204 199c153 0 167 -76 171 -95c1 -3 1 -6 1 -9c0 -36 -26 -61 -61 -61c-34 0 -67 24 -77 59
c-12 40 -38 64 -74 64c-40 0 -95 -31 -95 -118c0 -49 33 -68 82 -94l187 -96l204 361c2 4 8 7 12 7c2 0 6 -1 8 -2l16 -11c3 -2 6 -8 6 -12c0 -2 -1 -4 -2 -6zM573 488c-34 0 -64 30 -64 64c0 35 29 65 64 65s64 -30 64 -65c0 -34 -30 -64 -64 -64z" />
    <glyph glyph-name="coda" unicode="&#xe048;" horiz-adv-x="745" 
d="M642 324h90c8 0 13 -6 13 -14v-10c0 -8 -5 -14 -13 -14h-91c-11 -154 -118 -277 -252 -286v-99c0 -8 -6 -14 -14 -14h-11c-8 0 -13 6 -13 14v99c-131 12 -236 134 -247 286h-90c-8 0 -14 6 -14 14v10c0 8 6 14 14 14h90c6 157 112 285 247 298v99c0 8 5 14 13 14h11
c8 0 14 -6 14 -14v-99c137 -10 247 -138 253 -298zM389 324h148c0 142 -40 257 -148 268v-268zM351 324v267c-103 -14 -142 -127 -142 -267h142zM351 286h-142c0 -134 45 -241 142 -255v255zM389 286v-255c101 11 147 118 147 255h-147z" />
    <glyph glyph-name="codaSquare" unicode="&#xe049;" horiz-adv-x="738" 
d="M632 324h93c8 0 13 -5 13 -13v-12c0 -8 -5 -13 -13 -13h-93v-256c0 -17 -13 -30 -30 -30h-213v-99c0 -8 -6 -14 -14 -14h-11c-8 0 -14 6 -14 14v99h-214c-17 0 -30 13 -30 30v256h-92c-8 0 -14 5 -14 13v12c0 8 6 13 14 13h92v268c0 17 13 30 30 30h214v99
c0 8 6 14 14 14h11c8 0 14 -6 14 -14v-99h213c17 0 30 -13 30 -30v-268zM526 324v268h-137v-268h137zM350 324v268h-137v-268h137zM213 286v-256h137v256h-137zM389 286v-256h137v256h-137z" />
    <glyph glyph-name="segnoSerpent1" unicode="&#xe04a;" horiz-adv-x="554" 
d="M189 285l176 -84c22 -11 57 -32 77 -47c27 19 32 69 33 75c0 85 -43 112 -110 142l-176 85c-22 11 -57 32 -77 46c-27 -19 -32 -68 -33 -74c0 -97 57 -114 87 -131c5 -3 13 -7 23 -12zM188 624l177 -84c27 -11 54 -25 78 -40c26 20 31 69 32 74c0 85 -43 112 -110 142
l-176 85c-31 15 -60 33 -85 52c-16 -16 -25 -37 -25 -62c0 -95 63 -142 109 -167zM366 32l-177 85c-100 42 -189 103 -189 217c0 111 61 164 89 187c-54 45 -89 111 -89 173c0 87 18 127 75 183c-46 43 -75 116 -75 181c0 107 69 223 231 223c175 0 227 -64 251 -106
c10 -17 16 -38 16 -56c0 -44 -36 -60 -74 -60c-47 0 -77 33 -97 88c-16 45 -43 87 -120 87s-128 -46 -128 -105c0 -95 63 -135 110 -160l176 -84c100 -42 189 -103 189 -217c0 -108 -57 -161 -86 -185c51 -38 86 -89 86 -161c0 -111 -61 -163 -89 -186
c54 -45 89 -122 89 -193c0 -90 -49 -223 -231 -223c-89 0 -264 38 -264 156c0 47 27 74 73 74c55 0 75 -37 95 -96c18 -54 43 -86 120 -86s128 38 128 97c0 95 -63 142 -109 167z" />
    <glyph glyph-name="segnoSerpent2" unicode="&#xe04b;" horiz-adv-x="554" 
d="M166 297c5 -3 13 -7 23 -12v170c-27 14 -52 29 -76 46c-4 -1 -34 -15 -34 -74c0 -77 57 -114 87 -130zM225 438v-171c34 -17 75 -36 104 -50v172c-34 16 -75 36 -104 49zM442 154c3 2 33 24 33 74c0 97 -56 114 -86 131c-5 2 -13 7 -24 12v-171c27 -13 53 -28 77 -46z
M189 624v176c-31 16 -59 33 -85 53c-2 -2 -24 -20 -24 -62c0 -95 62 -142 109 -167zM329 555v179c-34 16 -75 36 -104 49v-179c26 -14 55 -28 104 -49zM365 716v-177c28 -11 54 -24 78 -39c3 2 32 18 32 73c0 84 -45 111 -110 143zM225 101v-97c0 -7 -6 -12 -12 -12h-11
c-7 0 -13 5 -13 12v112c-100 42 -189 103 -189 217c0 112 61 164 89 187c-54 46 -89 112 -89 174c0 86 19 127 76 183c-47 43 -76 115 -76 181c0 106 69 223 231 223c175 0 228 -64 251 -106c9 -17 16 -35 16 -53c0 -46 -31 -64 -73 -64c-48 0 -78 33 -98 89
c-16 44 -43 86 -120 86s-127 -46 -127 -105c0 -95 63 -134 109 -160v34c0 7 6 13 13 13h11c7 0 12 -6 12 -13v-53c26 -14 55 -28 104 -49v102c0 7 6 13 13 13h10c7 0 13 -6 13 -13v-118c100 -42 189 -103 189 -217c0 -108 -57 -161 -86 -184c51 -39 86 -89 86 -161
c0 -111 -61 -164 -88 -187c53 -45 88 -121 88 -193c0 -90 -49 -222 -231 -222c-88 0 -264 39 -264 156c0 35 19 68 56 73c74 0 89 -25 113 -95c18 -54 42 -87 119 -87s128 39 128 98c0 95 -64 142 -110 167v-28c0 -7 -5 -12 -13 -12h-10c-8 0 -13 5 -13 12v48
c-26 13 -55 27 -104 49z" />
    <glyph glyph-name="gClef" unicode="&#xe050;" horiz-adv-x="640" 
d="M420 -206l-58 329c-59 -14 -104 -63 -104 -124c0 -49 22 -75 61 -99c12 -8 22 -13 22 -22s-9 -13 -17 -13c-80 0 -135 96 -135 166c0 94 62 190 153 217c-7 41 -14 88 -23 142c-15 -15 -31 -29 -48 -44c-88 -76 -174 -185 -174 -307c0 -151 122 -251 265 -251
c19 0 38 2 58 6zM332 822c-8 -31 -11 -65 -11 -102c0 -42 5 -81 11 -121c69 68 146 146 146 250c0 69 -24 118 -39 118c-52 0 -98 -105 -107 -145zM562 -21c0 89 -65 150 -155 150c7 -44 34 -203 55 -323c71 29 100 102 100 173zM122 -513c0 66 45 123 115 123
c75 0 116 -57 116 -111c0 -64 -47 -104 -94 -111c-3 -1 -5 -2 -5 -4c0 -1 2 -2 3 -3c2 0 23 -5 47 -5c101 0 154 55 154 159c0 53 -11 123 -30 219c-23 -4 -50 -7 -79 -7c-186 0 -349 147 -349 334c0 200 126 321 217 406c21 17 73 70 74 71c-17 112 -22 161 -22 215
c0 84 18 212 82 288c33 39 64 51 71 51c18 0 47 -35 71 -86c16 -36 44 -110 44 -201c0 -159 -73 -284 -179 -395c9 -56 19 -115 29 -175c146 0 253 -102 253 -253c0 -103 -73 -205 -171 -237c6 -39 12 -69 15 -89c10 -57 16 -102 16 -141c0 -63 -14 -129 -68 -167
c-36 -22 -77 -34 -124 -34c-135 0 -186 87 -186 153z" />
    <glyph glyph-name="gClef15mb" unicode="&#xe051;" horiz-adv-x="640" 
d="M420 -206l-58 329c-59 -14 -104 -63 -104 -124c0 -49 22 -75 61 -99c12 -8 22 -13 22 -22s-9 -13 -17 -13c-80 0 -135 96 -135 166c0 94 62 190 153 217c-7 41 -14 88 -23 142c-15 -15 -31 -29 -48 -44c-88 -76 -174 -185 -174 -307c0 -151 122 -251 265 -251
c19 0 38 2 58 6zM332 822c-8 -31 -11 -65 -11 -102c0 -42 5 -81 11 -121c69 68 146 146 146 250c0 69 -24 118 -39 118c-52 0 -98 -105 -107 -145zM562 -21c0 13 -1 23 -2 32c-9 48 -52 118 -153 118c7 -44 34 -203 55 -323c71 29 100 102 100 173zM269 773
c0 84 18 212 82 288c33 39 64 51 71 51c18 0 47 -35 71 -86c16 -36 44 -110 44 -201c0 -159 -73 -284 -179 -395c9 -56 19 -115 29 -175c146 0 253 -102 253 -253c0 -103 -73 -205 -171 -237c6 -39 12 -69 15 -89c10 -57 16 -102 16 -141c0 -63 -14 -129 -68 -167
c-43 -26 -87 -34 -136 -34l-48 -179c-3 -11 -4 -17 -4 -20s1 -5 22 -5h19l-3 -23h-139l3 23h18c12 0 19 0 21 2c3 2 4 5 6 12l35 132c2 6 2 9 2 11c0 3 0 6 -11 6h-32l6 21h2c30 0 70 11 84 22c-81 10 -155 64 -155 151c0 66 45 123 115 123c75 0 116 -57 116 -111
c0 -64 -47 -104 -94 -111c-3 -1 -5 -2 -5 -4c0 -1 2 -2 3 -3c2 0 23 -5 47 -5c101 0 154 55 154 159c0 53 -11 123 -30 219c-23 -4 -50 -7 -79 -7c-186 0 -349 147 -349 334c0 200 126 321 217 406c21 17 73 70 74 71c-17 112 -22 161 -22 215zM329 -867c0 -3 11 -9 24 -9
c27 0 48 29 48 67c0 24 -11 38 -29 38c-8 0 -12 -1 -27 -7c-2 -12 -9 -19 -19 -19c-8 0 -13 6 -13 14c0 7 4 13 12 17l30 103l3 -1c26 -6 48 -9 69 -9c16 0 29 2 43 8c3 1 3 1 4 1c3 0 5 -2 5 -5c0 -39 -47 -54 -77 -54c-14 0 -15 0 -38 5l-10 -34c14 5 24 7 38 7
c35 0 67 -22 67 -60c0 -56 -45 -93 -99 -93c-42 0 -68 21 -68 53c0 21 13 35 32 35c16 0 28 -11 28 -27c0 -13 -10 -25 -21 -27c-2 -1 -2 -1 -2 -3z" />
    <glyph glyph-name="gClef8vb" unicode="&#xe052;" horiz-adv-x="640" 
d="M362 -212c20 0 38 3 58 7l-58 328c-58 -14 -104 -63 -104 -124c0 -48 22 -75 61 -98c13 -8 22 -14 22 -22c0 -10 -9 -14 -17 -14c-80 0 -135 96 -135 167c0 93 62 190 153 216c-7 42 -14 88 -23 142c-15 -15 -31 -29 -48 -43c-88 -77 -174 -186 -174 -308
c0 -151 122 -251 265 -251zM332 822c-7 -31 -11 -64 -11 -102c0 -41 5 -81 11 -121c69 69 147 147 147 250c0 70 -25 118 -40 118c-52 0 -97 -105 -107 -145zM462 -193c71 29 101 101 101 173c0 12 -2 23 -3 31c-9 48 -52 118 -153 118c7 -44 34 -203 55 -322zM323 -877
c22 0 38 15 38 34c0 14 -8 24 -27 35c-2 2 -2 2 -14 8c-3 2 -4 2 -8 4c-17 -10 -26 -26 -26 -46c0 -21 15 -35 37 -35zM361 -757c15 12 21 23 21 39c0 21 -12 33 -31 33c-20 0 -34 -13 -34 -31c0 -12 5 -19 20 -28l2 -1c3 -2 7 -4 22 -12zM640 2c0 -103 -73 -204 -171 -237
c7 -38 12 -69 15 -89c10 -57 16 -102 16 -141c0 -128 -63 -201 -192 -201c-135 0 -185 87 -185 153s44 123 114 123c75 0 116 -57 116 -111c0 -63 -47 -104 -94 -111c-3 -1 -5 -2 -5 -4c0 -1 2 -2 3 -2c2 -1 23 -6 47 -6c101 0 155 55 155 159c0 53 -12 124 -30 219
c-24 -4 -51 -7 -80 -7c-186 0 -349 147 -349 335c0 199 126 321 217 405c21 18 73 71 74 71c-17 113 -22 162 -22 216c0 84 18 211 83 287c32 39 64 51 71 51c17 0 46 -35 70 -86c17 -36 45 -110 45 -201c0 -158 -74 -284 -179 -395c9 -56 18 -115 28 -175
c146 0 253 -102 253 -253zM423 -717c0 -24 -14 -40 -43 -53c18 -13 28 -32 28 -55c0 -43 -38 -73 -92 -73c-44 0 -74 22 -74 55c0 31 26 51 52 61c-14 14 -21 28 -21 47c0 45 41 71 83 71c33 0 67 -16 67 -53z" />
    <glyph glyph-name="gClef8va" unicode="&#xe053;" horiz-adv-x="640" 
d="M362 -211c19 0 38 2 58 6l-58 328c-58 -14 -104 -62 -104 -124c0 -48 22 -74 61 -98c12 -8 22 -14 22 -22c0 -10 -9 -14 -17 -14c-80 0 -135 96 -135 167c0 93 62 190 153 216c-7 42 -14 88 -23 142c-15 -14 -31 -29 -48 -43c-88 -77 -174 -186 -174 -308
c0 -151 122 -250 265 -250zM332 822c-8 -31 -11 -64 -11 -102c0 -41 5 -80 11 -121c69 69 146 147 146 250c0 70 -24 119 -39 119c-52 0 -98 -105 -107 -146zM379 1160c0 -22 15 -36 37 -36s38 15 38 34c0 14 -7 24 -27 35c-2 2 -2 2 -14 8c-3 2 -4 2 -8 4
c-17 -10 -26 -26 -26 -45zM444 1316c-20 0 -34 -13 -34 -31c0 -12 5 -19 21 -28l1 -1c3 -2 7 -4 22 -12c15 12 21 23 21 39c0 21 -11 33 -31 33zM462 -193c71 29 100 101 100 173c0 12 -1 23 -2 31c-9 48 -52 118 -153 118c7 -44 34 -203 55 -322zM640 3
c0 -104 -73 -205 -171 -238c6 -38 12 -69 15 -89c10 -56 16 -102 16 -141c0 -128 -63 -201 -192 -201c-135 0 -186 87 -186 153s45 123 115 123c75 0 116 -57 116 -110c0 -64 -47 -104 -94 -112c-3 -1 -5 -1 -5 -3c0 -1 2 -3 3 -3c2 -1 23 -6 47 -6c101 0 155 55 155 159
c0 53 -12 124 -31 220c-23 -5 -50 -8 -79 -8c-186 0 -349 147 -349 335c0 200 126 321 217 405c21 18 73 71 74 71c-17 113 -22 162 -22 216c0 110 29 267 131 330c-39 3 -65 24 -65 54c0 31 27 51 53 61c-15 14 -21 28 -22 47c0 45 41 71 83 71c33 0 67 -16 67 -53
c0 -24 -14 -40 -43 -52c18 -14 28 -33 28 -56c0 -35 -25 -61 -64 -70c17 -12 38 -42 56 -80c16 -36 44 -109 44 -201c0 -158 -73 -284 -178 -395c8 -55 18 -114 28 -175c146 0 253 -102 253 -252z" />
    <glyph glyph-name="gClef15ma" unicode="&#xe054;" horiz-adv-x="640" 
d="M362 -212c19 0 38 2 58 6l-58 328c-58 -14 -104 -62 -104 -124c0 -48 22 -74 61 -98c12 -8 22 -14 22 -22c0 -10 -9 -13 -17 -13c-80 0 -135 95 -135 166c0 93 62 190 153 217c-7 41 -14 87 -23 141c-15 -14 -31 -29 -48 -43c-88 -77 -174 -186 -174 -307
c0 -152 122 -251 265 -251zM332 821c-7 -31 -11 -64 -11 -102c0 -41 5 -80 11 -121c69 69 147 147 147 251c0 69 -25 118 -40 118c-52 0 -97 -105 -107 -146zM462 -194c71 29 100 101 100 173c0 12 -1 23 -2 32c-9 47 -52 118 -153 118c7 -45 34 -204 55 -323zM640 2
c0 -104 -73 -205 -171 -238c7 -38 12 -69 15 -89c10 -56 16 -102 16 -141c0 -63 -14 -129 -68 -167c-36 -22 -77 -34 -124 -34c-135 0 -185 87 -185 153s44 124 114 124c75 0 116 -58 116 -111c0 -64 -47 -104 -94 -112c-3 -1 -5 -1 -5 -3c0 -1 2 -3 3 -3c2 -1 23 -6 47 -6
c101 0 155 55 155 159c0 53 -12 124 -30 220c-24 -5 -51 -8 -80 -8c-186 0 -349 147 -349 335c0 200 126 321 217 406c21 17 73 70 74 71c-17 112 -22 161 -22 215c0 84 18 211 82 287c27 32 53 46 65 50c-19 9 -30 25 -30 46c0 20 13 34 32 34c17 0 28 -10 28 -26
c0 -13 -7 -23 -20 -27c-2 -1 -2 -2 -2 -3c0 -4 10 -9 23 -9c27 0 49 29 49 67c0 24 -11 38 -30 38c-7 0 -12 -1 -26 -7c-2 -12 -9 -19 -20 -19c-7 0 -13 6 -13 14c0 7 4 13 13 17l30 103l2 -1c26 -6 49 -9 69 -9c17 0 30 2 44 8c2 1 3 1 4 1c2 0 4 -2 4 -5
c0 -11 -8 -27 -19 -37c-14 -12 -31 -17 -58 -17c-14 0 -14 0 -38 5l-9 -34c14 5 25 7 38 7c37 0 66 -21 66 -60c0 -56 -45 -93 -99 -93c-5 0 -10 0 -15 1c17 -13 37 -42 54 -79c17 -36 45 -109 45 -200c0 -159 -74 -285 -179 -396c8 -55 18 -114 28 -174
c146 0 253 -103 253 -253zM379 1131l-3 -23h-139l3 23h19c12 0 20 0 22 3c1 1 2 3 3 7h1c0 1 1 6 4 16l32 120c1 6 2 9 2 11c0 3 0 5 -11 5h-33l6 22h2c31 0 72 12 86 22v1h18l-49 -182c-3 -11 -4 -17 -4 -20c0 -4 1 -5 22 -5h19z" />
    <glyph glyph-name="gClef8vbOld" unicode="&#xe055;" horiz-adv-x="1044" 
d="M362 -213c20 0 38 3 58 7l-57 328c-59 -14 -104 -62 -104 -124c0 -48 22 -74 60 -98c13 -8 22 -14 22 -22c0 -10 -9 -14 -17 -14c-80 0 -135 96 -135 167c0 93 62 190 153 217c-6 41 -14 87 -23 141c-15 -14 -31 -29 -47 -43c-88 -77 -175 -186 -175 -308
c0 -151 122 -251 265 -251zM676 346c-47 -41 -93 -90 -126 -145c26 -21 48 -47 63 -78c25 58 73 107 133 125c-6 41 -14 87 -23 141c-15 -14 -31 -29 -47 -43zM332 821c-7 -31 -11 -64 -11 -102c0 -41 5 -80 12 -121c68 69 146 147 146 251c0 69 -25 118 -40 118
c-52 0 -97 -105 -107 -146zM736 821c-7 -31 -11 -64 -11 -102c0 -41 5 -80 12 -121c68 69 146 147 146 251c0 69 -25 118 -40 118c-52 0 -97 -105 -107 -146zM462 -194c71 29 101 101 101 173c0 12 -1 23 -3 31c-9 48 -52 118 -153 118c7 -44 34 -203 55 -322zM766 -213
c20 0 38 3 58 7l-57 328c-59 -14 -104 -62 -104 -124c0 -48 22 -74 60 -98c13 -8 22 -14 22 -22c0 -10 -9 -14 -17 -14c-42 0 -77 27 -100 62c-10 -27 -23 -53 -41 -76c48 -40 111 -63 179 -63zM866 -194c71 29 101 101 101 173c0 12 -1 23 -3 31c-9 48 -52 118 -153 118
c7 -44 34 -203 55 -322zM1044 2c0 -104 -73 -205 -171 -238c7 -38 12 -69 16 -89c9 -56 15 -102 15 -141c0 -128 -63 -201 -192 -201c-135 0 -185 87 -185 153s45 123 115 123c75 0 115 -57 115 -110c0 -64 -47 -105 -94 -112c-3 -1 -4 -2 -4 -4c0 -1 1 -2 3 -2
c2 -1 22 -6 47 -6c100 0 154 55 154 159c0 53 -12 124 -30 220c-24 -5 -51 -8 -80 -8c-74 0 -145 24 -203 64c-24 -20 -51 -36 -81 -46c7 -38 12 -69 16 -89c9 -56 15 -102 15 -141c0 -128 -63 -201 -192 -201c-135 0 -185 87 -185 153s45 123 115 123
c75 0 115 -57 115 -110c0 -64 -47 -105 -94 -112c-3 -1 -4 -2 -4 -4c0 -1 1 -2 3 -2c2 -1 22 -6 47 -6c100 0 154 55 154 159c0 53 -12 124 -30 220c-24 -5 -51 -8 -80 -8c-186 0 -349 147 -349 335c0 200 126 321 217 406c21 17 73 70 74 70c-17 113 -22 162 -22 216
c0 84 18 211 83 287c32 39 64 52 71 52c18 0 47 -36 70 -87c17 -36 45 -109 45 -200c0 -159 -74 -285 -179 -396c9 -55 18 -114 28 -175c18 0 35 -1 51 -4c44 105 121 179 183 237c21 17 73 70 74 70c-17 113 -22 162 -22 216c0 84 18 211 83 287c32 39 64 52 71 52
c18 0 47 -36 70 -87c17 -36 45 -109 45 -200c0 -159 -74 -285 -179 -396c9 -55 18 -114 28 -175c146 0 253 -102 253 -252z" />
    <glyph glyph-name="gClef8vbParens" unicode="&#xe057;" horiz-adv-x="640" 
d="M362 -212c19 0 38 2 58 6l-58 329c-58 -15 -104 -63 -104 -125c0 -48 22 -74 61 -98c12 -8 22 -14 22 -22c0 -10 -9 -13 -17 -13c-80 0 -135 95 -135 166c0 93 62 190 153 217c-7 41 -14 87 -23 141c-15 -14 -31 -28 -48 -43c-88 -77 -174 -186 -174 -307
c0 -152 122 -251 265 -251zM332 822c-7 -31 -11 -65 -11 -103c0 -41 5 -80 11 -121c69 69 147 147 147 251c0 69 -25 118 -40 118c-52 0 -97 -105 -107 -145zM462 -194c71 29 100 101 100 173c0 12 -1 23 -2 32c-9 47 -52 118 -153 118c7 -45 34 -204 55 -323zM323 -878
c22 0 38 14 38 33c0 15 -8 25 -27 36l-22 11c-17 -10 -26 -26 -26 -45c0 -21 15 -35 37 -35zM360 -758c16 12 22 22 22 39c0 20 -12 32 -31 32c-20 0 -34 -12 -34 -30c0 -13 5 -19 20 -29l7 -4c3 -2 8 -4 16 -8zM387 255c146 0 253 -103 253 -253c0 -104 -73 -205 -171 -238
c7 -38 12 -69 15 -89c10 -56 16 -102 16 -140c0 -129 -63 -202 -192 -202c-29 0 -55 4 -77 12v-8l-1 -1c-38 -26 -43 -74 -43 -117c0 -44 5 -92 43 -119l1 -1v-21l-4 2c-52 28 -85 78 -85 139c0 56 28 103 74 131c-67 29 -93 88 -93 136c0 66 44 124 114 124
c75 0 116 -57 116 -111c0 -64 -47 -104 -94 -112c-3 -1 -5 -1 -5 -3c0 -1 2 -3 3 -3c2 -1 23 -5 47 -5c101 0 155 55 155 158c0 54 -12 124 -30 220c-24 -5 -51 -8 -80 -8c-186 0 -349 147 -349 335c0 200 126 321 217 406c21 17 73 70 74 71c-17 112 -22 161 -22 215
c0 84 18 211 82 288c33 38 64 51 72 51c17 0 46 -36 70 -87c17 -36 45 -109 45 -200c0 -159 -74 -285 -179 -396c8 -55 18 -114 28 -174zM422 -718c0 -24 -13 -41 -42 -53c18 -14 28 -33 28 -55c0 -43 -38 -73 -92 -73c-44 0 -74 22 -74 54c0 31 26 51 52 62
c-15 14 -21 28 -21 46c0 45 41 72 83 72c33 0 66 -16 66 -53zM440 -641l4 -3c53 -27 86 -76 86 -137s-33 -111 -86 -139l-4 -2v22l1 1c38 28 44 73 44 118c0 44 -6 90 -44 117l-1 1v22z" />
    <glyph glyph-name="cClef" unicode="&#xe05c;" horiz-adv-x="627" 
d="M13 469h72c7 0 13 -6 13 -13v-910c0 -7 -6 -13 -13 -13h-72c-7 0 -13 6 -13 13v910c0 7 6 13 13 13zM627 -261c0 -140 -103 -219 -224 -219c-75 0 -182 31 -182 123c0 49 34 81 83 81c44 0 75 -32 75 -76c0 -43 -29 -74 -73 -74c-6 0 -10 1 -11 1c23 -16 54 -25 85 -25
c105 0 122 84 122 174c0 77 -2 189 -90 189s-106 -95 -108 -106c0 -1 0 -13 -14 -13s-15 12 -15 13c-11 56 -33 151 -92 175v-436c0 -7 -5 -13 -12 -13s-13 6 -13 13v910c0 7 6 13 13 13s12 -6 12 -13v-436c56 23 83 119 92 174c0 1 1 14 15 14s14 -13 14 -14
c2 -10 20 -105 108 -105s90 112 90 189c0 90 -17 174 -122 174c-31 0 -62 -9 -85 -25c48 0 84 -18 84 -73c0 -44 -31 -76 -75 -76c-49 0 -83 32 -83 81c0 92 107 123 182 123c121 0 224 -79 224 -219c0 -108 -60 -221 -182 -221c-43 0 -56 3 -94 26c-2 -4 -22 -44 -55 -67
c33 -23 53 -63 55 -67c39 24 56 26 79 26c131 0 197 -97 197 -221z" />
    <glyph glyph-name="cClef8vb" unicode="&#xe05d;" horiz-adv-x="627" 
d="M257 -639c-17 -10 -26 -26 -26 -45c0 -21 15 -35 37 -35s38 14 38 33c0 14 -7 25 -26 36h-1l-14 7c-3 2 -4 2 -8 4zM283 -587l23 -12c16 12 21 23 21 39c0 21 -11 32 -31 32s-34 -12 -34 -30c0 -13 5 -20 21 -29zM13 469h72c7 0 13 -6 13 -13v-910c0 -7 -6 -13 -13 -13
h-72c-7 0 -13 6 -13 13v910c0 7 6 13 13 13zM627 -261c0 -140 -103 -219 -224 -219c-75 0 -182 31 -182 123c0 49 34 81 83 81c44 0 75 -32 75 -76c0 -43 -29 -74 -73 -74c-6 0 -10 1 -11 1c23 -16 54 -25 85 -25c105 0 122 84 122 174c0 77 -2 189 -90 189
s-106 -95 -108 -106c0 -1 0 -13 -14 -13s-15 12 -15 13c-11 56 -33 151 -92 175v-436c0 -7 -6 -13 -13 -13s-12 6 -12 13v910c0 7 5 13 12 13s13 -6 13 -13v-436c56 23 83 119 92 174c0 1 1 14 15 14s14 -13 14 -14c2 -10 20 -105 108 -105s90 112 90 189
c0 90 -17 174 -122 174c-31 0 -62 -9 -85 -25c48 0 84 -18 84 -73c0 -44 -31 -76 -75 -76c-49 0 -83 32 -83 81c0 92 107 123 182 123c121 0 224 -79 224 -219c0 -108 -60 -221 -182 -221c-43 0 -56 3 -94 26c-2 -4 -22 -44 -55 -67c33 -23 53 -63 55 -67c39 24 56 26 79 26
c131 0 197 -97 197 -221zM368 -559c0 -24 -14 -41 -43 -53c18 -13 28 -33 28 -55c0 -43 -38 -73 -92 -73c-44 0 -74 21 -74 54c0 31 27 50 53 62c-15 14 -22 27 -22 46c0 46 41 72 83 72c31 0 67 -18 67 -53z" />
    <glyph glyph-name="fClef" unicode="&#xe062;" horiz-adv-x="663" 
d="M568 124c0 28 22 51 48 51s48 -23 48 -51s-22 -50 -48 -50s-48 22 -48 50zM254 251c180 0 274 -112 274 -286c0 -184 -158 -362 -298 -463c-91 -71 -205 -118 -206 -118s-4 -1 -5 -1c-6 0 -15 2 -18 12c0 2 -1 3 -1 5c0 12 12 19 12 19c1 0 99 45 203 140
c98 88 181 275 181 405c0 168 -50 250 -152 250c-35 0 -67 -6 -92 -20c-39 -21 -69 -65 -76 -109c8 7 25 17 35 21c9 3 20 5 32 5c56 0 106 -47 106 -104c0 -66 -50 -109 -114 -109c-74 0 -116 54 -116 127s38 139 97 182c1 0 62 44 138 44zM568 -123c0 28 22 51 48 51
s48 -23 48 -51s-22 -51 -48 -51s-48 23 -48 51z" />
    <glyph glyph-name="fClef15mb" unicode="&#xe063;" horiz-adv-x="662" 
d="M567 124c0 28 22 51 48 51s48 -23 48 -51s-22 -50 -48 -50s-48 22 -48 50zM253 251c180 0 275 -111 275 -286c0 -67 -25 -145 -69 -220c-59 -100 -135 -174 -229 -242c-91 -71 -205 -119 -206 -119s-5 -1 -6 -1c-6 0 -14 2 -17 12c0 2 -1 4 -1 5c0 12 11 19 11 19h1
c1 0 99 45 203 140c98 88 181 275 181 405c0 168 -50 250 -152 250c-35 0 -67 -6 -92 -20c-39 -21 -69 -65 -76 -109c8 7 24 17 34 21c9 3 19 5 32 5c57 0 107 -46 107 -104c0 -65 -49 -109 -112 -109c-75 0 -118 52 -118 127c0 73 38 139 97 182c1 0 61 44 137 44z
M567 -123c0 28 22 51 48 51s48 -23 48 -51s-22 -51 -48 -51s-48 23 -48 51zM259 -710c0 -4 1 -6 22 -6h19l-3 -23h-139l3 23h19c12 0 20 0 22 3v1c1 1 2 1 3 6l1 1c0 1 1 5 4 15l32 120c1 3 2 8 2 11s0 6 -11 6h-33l6 21h2c31 1 72 12 86 22v1h18l-49 -182
c-3 -11 -4 -16 -4 -19zM487 -510h3c2 0 4 -1 4 -5c0 -11 -9 -27 -19 -36c-14 -12 -32 -18 -58 -18c-14 0 -15 0 -38 5l-9 -34c14 5 25 7 38 7c38 0 66 -20 66 -60c0 -55 -45 -93 -99 -93c-41 0 -68 21 -68 53c0 21 13 35 32 35c17 0 28 -11 28 -27c0 -13 -7 -23 -20 -27
c-1 0 -2 -1 -2 -1c0 -5 10 -11 23 -11c27 0 49 29 49 67c0 25 -11 39 -30 39c-7 0 -11 -2 -26 -8c-2 -12 -10 -19 -20 -19c-8 0 -13 6 -13 14s4 14 13 18l30 102l2 -1c26 -6 49 -9 69 -9c17 0 30 2 44 8z" />
    <glyph glyph-name="fClef8vb" unicode="&#xe064;" horiz-adv-x="663" 
d="M242 -640c-17 -10 -26 -27 -26 -46c0 -21 14 -35 36 -35s39 15 39 34c0 14 -8 24 -27 35c-2 1 -2 2 -14 8c-3 2 -4 2 -8 4zM267 -588l1 -1c4 -2 8 -5 22 -12c16 12 21 23 21 39c0 21 -11 33 -31 33s-33 -13 -33 -31c0 -13 4 -19 20 -28zM568 124c0 28 22 51 48 51
s48 -23 48 -51s-22 -50 -48 -50s-48 22 -48 50zM254 251c180 0 274 -112 274 -286c0 -187 -156 -359 -298 -462c-91 -71 -205 -119 -206 -119s-4 -1 -5 -1c-6 0 -15 2 -18 12c0 2 -1 3 -1 5c0 12 12 19 12 19c1 0 99 45 203 140c98 88 181 275 181 405
c0 168 -50 250 -152 250c-35 0 -67 -6 -92 -20c-39 -21 -69 -65 -76 -109c8 7 25 17 35 21c9 3 20 5 32 5c56 0 106 -47 106 -104c0 -67 -48 -109 -112 -109c-75 0 -118 52 -118 127c0 73 38 139 97 182c1 0 62 44 138 44zM568 -123c0 28 22 51 48 51s48 -23 48 -51
s-22 -51 -48 -51s-48 23 -48 51zM352 -560v-1c0 -24 -14 -41 -43 -53c18 -13 29 -33 29 -55c0 -43 -38 -73 -92 -73c-44 0 -74 22 -74 55c0 34 25 49 52 61c-15 14 -21 28 -21 47c0 46 40 71 82 71c31 0 67 -16 67 -52z" />
    <glyph glyph-name="fClef8va" unicode="&#xe065;" horiz-adv-x="664" 
d="M260 347l-8 4c-17 -11 -27 -27 -27 -47c0 -22 15 -37 38 -37s40 15 40 35c0 15 -8 26 -28 37c-3 2 -3 2 -15 8zM278 404h2c4 -2 7 -5 22 -13c16 12 23 24 23 41c0 22 -12 34 -33 34c-20 0 -35 -13 -35 -32c0 -13 5 -20 21 -30zM282 248c176 -12 244 -137 244 -284
c0 -122 -83 -308 -298 -461c-92 -72 -205 -119 -205 -119c-9 0 -19 0 -22 11c0 2 -1 3 -1 5c0 11 11 18 11 18s97 44 203 140c69 63 182 240 182 406s-48 251 -153 251c-155 0 -169 -133 -169 -133s28 28 69 28c55 0 105 -47 105 -103c0 -64 -52 -109 -114 -109
c-77 0 -115 58 -115 128c0 58 26 127 97 180c0 0 50 36 117 42c-32 7 -53 27 -53 54c0 32 27 53 54 64c-16 15 -22 29 -22 48c0 47 41 74 85 74c20 0 38 -5 50 -15c11 -8 19 -26 19 -39v-1c0 -25 -14 -43 -44 -55c19 -14 29 -34 29 -57c0 -37 -27 -65 -69 -73zM569 124
c0 28 22 51 48 51s48 -23 48 -51s-22 -50 -48 -50s-48 22 -48 50zM569 -123c0 28 22 51 48 51s48 -23 48 -51s-22 -51 -48 -51s-48 23 -48 51z" />
    <glyph glyph-name="fClef15ma" unicode="&#xe066;" horiz-adv-x="664" 
d="M569 124c0 28 22 51 48 51s48 -23 48 -51s-22 -50 -48 -50s-48 22 -48 50zM225 278h20l-4 -23h-144l4 23h19c12 0 21 1 23 4c1 1 3 2 4 7c0 1 1 7 4 17l33 123c1 3 2 9 2 12s0 6 -12 6h-33l6 22h2c32 1 75 12 89 23h18l-50 -188c-3 -11 -4 -17 -4 -20c0 -4 1 -6 23 -6z
M292 285l-2 -1v-1c0 -5 11 -11 25 -11c28 0 50 31 50 70c0 25 -11 40 -30 40c-8 0 -13 -1 -28 -8c-2 -13 -9 -20 -20 -20c-8 0 -14 6 -14 14s5 15 14 19l30 105h3c27 -6 50 -10 71 -10c17 0 31 3 45 9h2c1 0 2 1 3 1c2 0 4 -2 4 -6c0 -11 -9 -28 -20 -37
c-14 -12 -33 -18 -60 -18c-15 0 -15 0 -39 5l-10 -35c15 5 27 7 40 7c38 0 69 -22 69 -62c0 -58 -48 -96 -103 -96c-43 0 -70 21 -70 54c0 21 13 36 33 36c17 0 29 -11 29 -27c0 -14 -8 -23 -22 -28zM252 249c198 0 273 -131 273 -285c0 -122 -82 -308 -297 -461
c-92 -72 -206 -119 -206 -119c-9 0 -18 0 -21 11c0 2 -1 3 -1 5c0 11 11 18 11 18s97 44 203 140c69 63 181 240 181 406s-48 251 -153 251c-155 0 -168 -133 -168 -133s27 28 68 28c56 0 105 -48 105 -104c0 -64 -51 -108 -113 -108c-77 0 -116 57 -116 128
c0 58 26 127 97 180c0 0 60 43 137 43zM569 -123c0 28 22 51 48 51s48 -23 48 -51s-22 -51 -48 -51s-48 23 -48 51z" />
    <glyph glyph-name="unpitchedPercussionClef1" unicode="&#xe069;" horiz-adv-x="352" 
d="M13 252h110c7 0 13 -6 13 -13v-478c0 -7 -6 -13 -13 -13h-110c-7 0 -13 6 -13 13v478c0 7 6 13 13 13zM229 252h110c7 0 13 -6 13 -13v-478c0 -7 -6 -13 -13 -13h-110c-7 0 -13 6 -13 13v478c0 7 6 13 13 13z" />
    <glyph glyph-name="unpitchedPercussionClef2" unicode="&#xe06a;" horiz-adv-x="304" 
d="M304 -422c0 -9 -7 -16 -16 -16h-272c-9 0 -16 7 -16 16v845c0 8 7 16 16 16h272c9 0 16 -8 16 -16v-845zM40 335v-669c0 -6 4 -10 10 -10h204c5 0 10 4 10 10v669c0 5 -4 10 -10 10h-204c-6 0 -10 -5 -10 -10z" />
    <glyph glyph-name="6stringTabClef" unicode="&#xe06d;" horiz-adv-x="439" 
d="M219 126l-60 -182h119zM242 -360h-101v-102h113c37 0 68 10 68 52c0 49 -42 50 -80 50zM255 -539h-114v-123h113c46 0 77 14 77 66c0 47 -37 57 -76 57zM0 -231l165 463h110l164 -463h-105l-31 95h-170l-32 -95h-101zM36 746h369v-81h-136v-374h-96v374h-137v81z
M273 -279c79 -1 141 -37 141 -121c0 -47 -16 -74 -57 -94c50 -19 72 -57 72 -109c0 -27 -7 -52 -21 -74c-35 -54 -85 -66 -148 -66h-211v464h224z" />
    <glyph glyph-name="4stringTabClef" unicode="&#xe06e;" horiz-adv-x="294" 
d="M147 85l-40 -122h79zM162 -241h-68v-68h76c14 0 24 2 33 7c9 6 13 14 13 28c0 15 -6 24 -17 29c-9 3 -22 4 -37 4zM171 -361h-77v-82h76c14 0 24 2 32 5c13 7 20 20 20 39c0 32 -25 38 -51 38zM0 -154l111 310h73l110 -310h-70l-21 63h-114l-21 -63h-68zM24 500h247v-54
h-91v-251h-64v251h-92v54zM183 -186c54 -1 94 -25 94 -82c0 -18 -4 -34 -14 -45c-5 -7 -13 -12 -24 -17c33 -15 48 -37 48 -74c0 -25 -13 -58 -35 -73c-10 -8 -22 -14 -36 -16c-14 -3 -28 -4 -42 -4h-141v311h150z" />
    <glyph glyph-name="gClefChange" unicode="&#xe07a;" horiz-adv-x="480" 
d="M315 -150l-43 246c-44 -11 -78 -47 -78 -93c0 -36 16 -56 45 -74c9 -6 16 -10 16 -16c0 -8 -6 -10 -12 -10c-60 0 -101 71 -101 125c0 69 46 142 114 162c-5 31 -10 66 -17 106c-11 -11 -23 -21 -36 -32c-66 -58 -130 -140 -130 -231c0 -113 91 -188 198 -188
c15 0 29 2 44 5zM249 620c-6 -23 -8 -48 -8 -76c0 -31 3 -61 8 -91c51 52 110 110 110 188c0 52 -19 88 -30 88c-39 0 -73 -78 -80 -109zM422 -11c0 66 -50 112 -117 112c5 -34 26 -153 41 -242c53 21 76 76 76 130zM92 -381c0 49 33 93 86 93c56 0 86 -43 86 -84
c0 -48 -35 -78 -70 -83c-2 -1 -3 -1 -3 -3c0 -4 33 -6 37 -6c76 0 116 41 116 119c0 40 -9 93 -23 165c-18 -4 -38 -6 -59 -6c-140 0 -262 110 -262 251c0 150 94 241 162 304c16 13 55 53 56 54c-13 84 -17 121 -17 161c0 63 14 158 62 216c25 29 48 38 54 38
c13 0 35 -27 53 -65c12 -27 33 -82 33 -150c0 -119 -55 -213 -134 -297c6 -41 14 -86 21 -131c110 0 190 -77 190 -189c0 -78 -55 -154 -128 -179c5 -28 8 -51 11 -66c7 -43 12 -77 12 -106c0 -96 -47 -151 -144 -151c-101 0 -139 66 -139 115z" />
    <glyph glyph-name="cClefChange" unicode="&#xe07b;" horiz-adv-x="471" 
d="M10 355h54c5 0 9 -4 9 -9v-683c0 -5 -4 -10 -9 -10h-54c-5 0 -10 5 -10 10v683c0 5 5 9 10 9zM471 -192c0 -105 -77 -165 -168 -165c-83 0 -114 38 -118 42c-13 17 -20 34 -20 51c0 36 27 61 63 61c32 0 56 -26 56 -58c0 -10 -3 -20 -8 -30c-12 -21 -33 -24 -55 -24
c17 -12 41 -18 64 -18c79 0 91 62 91 130c0 58 -1 141 -67 141s-79 -71 -81 -79c0 -1 0 -10 -11 -10s-11 9 -11 10c-1 4 -6 39 -26 85c-12 28 -29 41 -42 46v-327c0 -5 -5 -10 -10 -10s-10 5 -10 10v683c0 5 5 9 10 9s10 -4 10 -9v-328c41 16 62 92 68 131c0 1 0 11 11 11
s11 -10 11 -11c2 -8 15 -79 81 -79s67 85 67 142c0 68 -12 130 -91 130c-23 0 -47 -6 -64 -18c22 0 43 -3 55 -24c5 -10 8 -20 8 -30c0 -32 -23 -59 -56 -59c-37 0 -63 26 -63 62c0 17 7 34 20 51c4 4 35 41 118 41c91 0 168 -59 168 -164c0 -81 -45 -166 -137 -166
c-28 0 -47 4 -71 19c-2 -3 -16 -33 -41 -50c25 -17 39 -47 41 -50c28 17 49 19 62 19c97 0 146 -74 146 -165z" />
    <glyph glyph-name="fClefChange" unicode="&#xe07c;" horiz-adv-x="497" 
d="M348 131c1 -1 0 -1 1 -2c30 -36 47 -86 47 -149c0 -135 -120 -273 -224 -346c-68 -53 -153 -89 -154 -89s-3 -1 -4 -1c-4 0 -11 2 -13 9c0 1 -1 3 -1 4c0 9 9 14 9 14c1 0 74 34 152 105c65 59 127 186 134 274c0 3 1 7 1 10c0 7 1 13 1 20c0 126 -37 188 -114 188
c-60 0 -117 -34 -126 -97c9 9 27 19 49 19c42 0 81 -34 81 -77c0 -49 -38 -83 -86 -83c-8 0 -20 3 -28 5c-43 14 -59 50 -59 92c0 54 30 103 73 135c0 0 46 33 103 33c36 0 67 -7 94 -18c1 -1 2 -1 3 -2c9 -4 24 -11 32 -17l4 -4c8 -6 19 -16 25 -23zM462 -55
c20 0 36 -17 36 -38s-16 -38 -36 -38s-36 17 -36 38s16 38 36 38zM462 61c-20 0 -36 17 -36 38s16 38 36 38s36 -17 36 -38s-16 -38 -36 -38zM341 137l-2 2zM365 106c-1 1 -2 3 -3 4c1 -1 2 -3 3 -4zM381 70c0 1 -1 1 -1 2c0 -1 1 -1 1 -2z" />
    <glyph glyph-name="clef8" unicode="&#xe07d;" horiz-adv-x="180" 
d="M137 128c18 -13 28 -33 28 -55c0 -43 -38 -73 -92 -73c-44 0 -73 21 -73 54c0 34 25 50 52 62c-15 14 -21 27 -21 46c0 46 39 72 82 72c31 0 67 -18 67 -53c0 -24 -14 -41 -43 -53zM95 153h1c4 -2 8 -5 22 -12c16 12 21 23 21 39c0 21 -11 33 -31 33s-34 -13 -34 -31
c0 -13 5 -20 21 -29zM69 101c-17 -10 -26 -26 -26 -45c0 -21 15 -35 37 -35s39 14 39 33c0 14 -8 25 -27 36c-2 1 -3 1 -15 7c-3 2 -4 2 -8 4z" />
    <glyph glyph-name="clef15" unicode="&#xe07e;" horiz-adv-x="336" 
d="M101 28c0 -4 1 -5 22 -5h19l-3 -23h-139l3 23h19c12 0 20 0 22 3c1 1 3 2 4 7c0 1 1 6 4 16l32 120c1 3 2 8 2 11s0 6 -11 6h-33l6 21h2c31 1 72 12 86 22v1h18l-49 -182c-3 -11 -4 -17 -4 -20zM332 229c2 0 4 -1 4 -5c0 -11 -9 -27 -19 -36c-14 -12 -32 -18 -58 -18
c-14 0 -15 0 -38 5l-9 -34c14 5 25 7 38 7c38 0 66 -20 66 -60c0 -57 -44 -93 -99 -93c-41 0 -68 21 -68 53c0 21 13 35 32 35c17 0 28 -11 28 -27c0 -13 -7 -23 -20 -27l-2 -1c0 -5 10 -11 23 -11c27 0 49 29 49 67c0 25 -11 38 -30 38c-7 0 -11 -1 -26 -7
c-2 -12 -10 -19 -20 -19c-8 0 -13 6 -13 14s4 13 13 17l30 103l2 -1c26 -6 49 -9 69 -9c17 0 30 2 44 8h1c1 0 2 1 3 1z" />
    <glyph glyph-name="timeSig0" unicode="&#xe080;" horiz-adv-x="404" 
d="M202 255c106 0 187 -110 187 -255s-81 -254 -187 -254s-187 109 -187 254s81 255 187 255zM261 -139v278c0 36 -16 75 -59 75s-59 -39 -59 -75v-278c0 -36 16 -75 59 -75s59 39 59 75z" />
    <glyph glyph-name="timeSig1" unicode="&#xe081;" horiz-adv-x="351" 
d="M249 -197h76c7 0 11 -5 11 -12v-22c0 -7 -4 -12 -11 -12h-274c-7 0 -12 5 -12 12v22c0 7 5 12 12 12h76v341l-71 -122c-2 -3 -6 -6 -10 -6c-2 0 -4 1 -6 2l-19 11c-3 2 -6 6 -6 10c0 2 0 4 1 6l112 194l4 4c2 1 4 2 6 2h99c7 0 12 -5 12 -12v-430z" />
    <glyph glyph-name="timeSig2" unicode="&#xe082;" horiz-adv-x="392" 
d="M342 -39c4 10 11 14 18 14c9 0 17 -6 17 -19c0 -27 -23 -102 -41 -139s-61 -60 -93 -60s-60 16 -78 42s-29 60 -58 60c-24 0 -32 -10 -33 -16c-1 -3 -1 -6 -1 -9c0 -8 2 -19 8 -33c2 -5 3 -9 3 -13c0 -18 -17 -31 -33 -31c-12 0 -36 3 -36 50s30 89 30 89
c58 87 197 112 197 229c0 51 -11 86 -68 86c-15 0 -29 -3 -34 -5c-18 -5 -23 -12 -23 -18c0 -5 4 -10 7 -11c26 -10 46 -41 46 -69c0 -41 -33 -74 -74 -74s-75 33 -75 74c0 46 28 137 179 137s170 -83 170 -125c0 -60 -27 -112 -133 -145s-131 -71 -131 -71c10 2 18 3 26 3
c54 0 68 -40 133 -40c49 0 69 72 77 94z" />
    <glyph glyph-name="timeSig3" unicode="&#xe083;" horiz-adv-x="379" 
d="M272 16h-2c44 -14 94 -45 94 -118c0 -109 -104 -142 -200 -142c-74 0 -149 41 -149 123c0 36 29 65 65 65s64 -29 64 -65c0 -33 -27 -62 -60 -64c11 -8 37 -16 65 -16c42 0 87 18 87 85c0 70 -23 100 -67 106c-32 5 -55 5 -72 6c-11 1 -13 12 -13 12v20s1 14 13 14
s68 4 80 6s59 11 59 74c0 54 -45 79 -87 79c-19 0 -38 -5 -52 -15l-3 -3c28 -6 50 -34 50 -63c0 -36 -28 -64 -64 -64s-65 28 -65 64l1 2h-1s-5 122 167 122s175 -113 175 -122v-5c0 -18 -5 -70 -85 -101z" />
    <glyph glyph-name="timeSig4" unicode="&#xe084;" horiz-adv-x="457" 
d="M208 -127h-172c-9 0 -11 6 -11 6s-7 11 -10 18c-1 2 -1 4 -1 6c0 6 3 11 3 11c26 37 56 87 82 168s31 155 31 155c1 6 6 12 13 12h149c4 0 7 -2 10 -4l22 -22c1 -1 3 -5 3 -10c0 -4 -1 -9 -5 -14c-118 -158 -230 -278 -230 -278h116v82c0 4 1 8 4 11l91 83c3 3 7 3 11 3
c2 0 3 0 5 -1l12 -6c4 -2 7 -7 7 -13v-159h90c8 0 14 -7 14 -14v-19c0 -8 -6 -15 -14 -15h-90v-74h90c8 0 14 -6 14 -14v-19c0 -8 -6 -14 -14 -14h-303c-7 0 -14 6 -14 14v19c0 8 7 14 14 14h83v74z" />
    <glyph glyph-name="timeSig5" unicode="&#xe085;" horiz-adv-x="377" 
d="M27 218c0 16 7 21 22 21c7 0 12 -1 12 -1c43 -6 78 -10 114 -10c37 0 75 4 124 16c6 1 10 2 14 2c13 0 18 -6 18 -14c0 -3 -1 -7 -2 -10c-28 -74 -82 -89 -154 -89c-35 0 -68 4 -83 5h-1c-6 0 -11 -5 -11 -11v-63c0 -4 3 -7 7 -7c1 0 3 0 4 1c29 20 64 28 97 28
c100 0 174 -56 174 -162c0 -107 -85 -168 -187 -168c-77 0 -160 37 -160 125c0 34 27 70 66 70s73 -19 73 -68s-31 -60 -40 -66c-3 -2 -4 -4 -4 -7c0 -2 2 -5 5 -6c6 -4 19 -7 42 -7h8c66 3 82 75 82 125c0 48 -13 109 -84 109c-63 0 -74 -52 -79 -65c-2 -6 -6 -7 -10 -7h-5
c-5 1 -26 6 -35 8c-7 1 -7 11 -7 16c0 0 4 66 5 122v13c0 52 -5 100 -5 100z" />
    <glyph glyph-name="timeSig6" unicode="&#xe086;" horiz-adv-x="402" 
d="M210 -202c33 0 61 45 61 101s-28 102 -61 102s-60 -46 -60 -102s27 -101 60 -101zM247 48c63 0 140 -37 140 -135c0 -116 -131 -157 -166 -157s-72 2 -130 46c-59 52 -76 121 -76 182c0 56 15 105 25 129c20 46 85 132 175 132c100 0 142 -53 155 -89c4 -8 6 -23 6 -32
v-3c0 -36 -29 -64 -65 -64s-64 28 -64 64c0 23 17 50 38 59c-10 11 -25 19 -50 19c-70 0 -90 -74 -90 -131c0 -16 2 -32 5 -53c14 15 36 33 97 33z" />
    <glyph glyph-name="timeSig7" unicode="&#xe087;" horiz-adv-x="381" 
d="M162 -123c23 33 125 206 133 222c-10 -10 -47 -13 -67 -13c-80 0 -83 38 -118 38s-50 -31 -50 -54v-32c0 -6 -5 -11 -11 -11h-23c-6 0 -11 5 -11 11v185c0 6 5 11 11 11h23c6 0 11 -5 11 -11v-48c3 6 41 69 103 69c65 0 77 -86 119 -86c40 0 42 69 42 79s7 14 12 14h18
c6 0 10 -4 11 -14s1 -14 1 -23c0 -23 -6 -78 -17 -109c-22 -63 -54 -148 -66 -195c-6 -22 -8 -46 -8 -67c0 -37 6 -68 6 -70v-3c1 -9 -16 -20 -25 -20c-7 0 -34 7 -63 7c-3 0 -7 -1 -10 -1c-32 -2 -42 -6 -58 -6c-11 0 -14 6 -14 17c0 37 29 77 51 110z" />
    <glyph glyph-name="timeSig8" unicode="&#xe088;" horiz-adv-x="408" 
d="M268 45c18 9 40 32 40 80c0 46 -42 75 -104 75c-43 0 -79 -16 -79 -55c0 -45 75 -78 143 -100zM204 -192c63 0 98 35 98 62c0 55 -97 89 -165 112c0 0 -52 -16 -52 -83c0 -56 55 -91 119 -91zM324 18c52 -27 69 -72 69 -120c0 -81 -85 -146 -189 -146s-189 65 -189 146
c0 48 25 85 70 111c-47 30 -57 66 -57 106c0 72 79 131 176 131s176 -59 176 -131c0 -40 -23 -72 -56 -97z" />
    <glyph glyph-name="timeSig9" unicode="&#xe089;" horiz-adv-x="402" 
d="M192 204c-33 0 -61 -46 -61 -102s28 -101 61 -101s60 45 60 101s-27 102 -60 102zM155 -47c-63 0 -140 37 -140 135c0 116 131 157 166 157s72 -2 130 -46c59 -52 76 -121 76 -182c0 -56 -15 -105 -25 -129c-20 -46 -85 -132 -175 -132c-100 0 -142 53 -155 89
c-4 8 -6 23 -6 32v3c0 36 29 64 65 64s64 -28 64 -64c0 -23 -17 -50 -38 -59c10 -11 25 -19 50 -19c70 0 90 74 90 131c0 16 -2 32 -5 53c-14 -15 -36 -33 -97 -33z" />
    <glyph glyph-name="timeSigCommon" unicode="&#xe08a;" horiz-adv-x="463" 
d="M325 179c2 1 2 3 2 4c0 2 0 3 -1 5c-11 17 -32 34 -79 34c-89 0 -111 -64 -111 -120v-191c0 -88 42 -135 129 -135c88 0 147 50 151 133c0 4 4 8 8 8h13c5 0 8 -3 8 -8c-4 -107 -81 -165 -180 -165c-250 0 -265 149 -265 268c0 65 25 246 243 246c170 0 209 -92 218 -135
c1 -4 2 -11 2 -15v-6c0 -50 -40 -90 -90 -90h-11c-41 5 -74 37 -79 78c-1 4 -1 8 -1 12c0 32 18 61 43 77z" />
    <glyph glyph-name="timeSigCutCommon" unicode="&#xe08b;" horiz-adv-x="463" 
d="M136 102v-191c0 -66 23 -109 71 -126v432c-57 -16 -71 -68 -71 -115zM424 -83h13c5 0 8 -3 8 -8c-4 -107 -81 -165 -180 -165h-9v-109c0 -6 -5 -11 -11 -11h-27c-6 0 -11 5 -11 11v112c-195 21 -207 156 -207 265c0 61 22 225 207 244v121c0 6 5 11 11 11h27
c6 0 11 -5 11 -11v-120c159 -4 196 -93 205 -134c1 -4 2 -11 2 -15v-6c0 -50 -40 -90 -90 -90h-10c-41 5 -75 37 -80 78c-1 4 -1 8 -1 12c0 32 18 61 43 77c2 1 2 2 2 4c0 1 0 2 -1 4c-10 16 -29 33 -70 35v-446h9c88 0 147 50 151 133c0 4 4 8 8 8z" />
    <glyph glyph-name="timeSigPlus" unicode="&#xe08c;" horiz-adv-x="408" 
d="M227 23h167c7 0 14 -6 14 -13v-19c0 -7 -7 -14 -14 -14h-167v-167c0 -7 -6 -14 -13 -14h-20c-7 0 -13 7 -13 14v167h-168c-7 0 -13 7 -13 14v19c0 7 6 13 13 13h168v168c0 7 6 13 13 13h20c7 0 13 -6 13 -13v-168z" />
    <glyph glyph-name="noteheadDoubleWhole" unicode="&#xe0a0;" horiz-adv-x="539" 
d="M321 -97c24 8 33 25 33 51s-19 90 -33 117c-14 26 -32 33 -59 33c-16 0 -32 -3 -44 -6c-22 -8 -32 -22 -32 -45c0 -31 18 -96 32 -123c13 -24 32 -33 60 -33c15 0 31 3 43 6zM14 179h9c8 0 14 -6 14 -14v-329c0 -6 -7 -14 -14 -14h-9c-8 0 -14 7 -14 14v329
c0 8 6 14 14 14zM442 179h9c8 0 14 -6 14 -14v-329c0 -6 -7 -14 -14 -14h-9c-8 0 -14 7 -14 14v79c-30 -30 -81 -50 -158 -50c-78 0 -129 20 -159 50v-79c0 -6 -7 -14 -14 -14h-9c-8 0 -14 7 -14 14v329c0 8 6 14 14 14h9c8 0 14 -6 14 -14v-78c30 29 81 49 159 49
c77 0 128 -20 158 -49v78c0 8 6 14 14 14zM515 179h9c8 0 14 -6 14 -14v-329c0 -6 -7 -14 -14 -14h-9c-8 0 -14 7 -14 14v329c0 8 6 14 14 14z" />
    <glyph glyph-name="noteheadDoubleWholeSquare" unicode="&#xe0a1;" horiz-adv-x="432" 
d="M410 177h9c8 0 13 -6 13 -14v-328c0 -8 -5 -14 -13 -14h-9c-8 0 -14 6 -14 14v26h-359v-21c0 -8 -6 -14 -14 -14h-9c-8 0 -14 6 -14 14v323c0 8 6 14 14 14h9c8 0 14 -6 14 -14v-22h359v22c0 8 6 14 14 14zM396 -70v143h-359v-143h359z" />
    <glyph glyph-name="noteheadWhole" unicode="&#xe0a2;" horiz-adv-x="373" 
d="M195 -102c41 0 75 8 75 57c0 25 -18 89 -32 116s-32 33 -60 33c-15 0 -31 -2 -43 -6c-24 -8 -34 -24 -32 -51c1 -27 19 -91 32 -116s32 -33 60 -33zM187 136c138 0 186 -70 186 -135s-48 -135 -186 -135s-187 70 -187 135s49 135 187 135z" />
    <glyph glyph-name="noteheadHalf" unicode="&#xe0a3;" 
d="M75 -86c46 0 215 85 215 135c0 22 -16 36 -40 36c-47 0 -215 -86 -215 -135c0 -9 7 -36 40 -36zM213 132c62 0 112 -33 112 -92c0 -88 -109 -173 -213 -173c-81 0 -112 48 -112 91c0 93 116 174 213 174z" />
    <glyph glyph-name="noteheadBlack" unicode="&#xe0a4;" 
d="M0 -42c0 92 116 174 213 174c62 0 112 -33 112 -92c0 -88 -109 -173 -213 -173c-81 0 -112 48 -112 91z" />
    <glyph glyph-name="noteheadNull" unicode="&#xe0a5;" 
 />
    <glyph glyph-name="noteheadXBlack" unicode="&#xe0a9;" 
d="M320 96l-122 -96l122 -96c3 -2 5 -6 5 -10c0 -3 -2 -7 -4 -9l-12 -13c-2 -3 -6 -4 -10 -4c-3 0 -7 1 -9 3l-127 101l-128 -101c-2 -2 -6 -3 -9 -3c-4 0 -8 1 -10 4l-12 13c-2 2 -4 6 -4 9c0 4 2 8 5 10l122 96l-122 96c-3 2 -5 6 -5 10s2 8 4 10l13 12c3 2 5 4 9 4
c3 0 7 -1 9 -3l128 -101l127 101c2 2 6 3 9 3c4 0 7 -2 10 -4l12 -12c2 -2 4 -5 4 -9v-1c0 -4 -2 -8 -5 -10z" />
    <glyph glyph-name="noteheadPlusBlack" unicode="&#xe0af;" 
d="M186 23h128c6 0 11 -6 11 -14v-19c0 -7 -5 -13 -11 -13h-128v-101c0 -4 -6 -8 -14 -8h-19c-7 0 -13 4 -13 8v101h-129c-6 0 -11 6 -11 13v19c0 8 5 14 11 14h128v100c0 5 6 9 14 9h19c8 0 14 -4 14 -9v-100z" />
    <glyph glyph-name="noteheadCircleX" unicode="&#xe0b3;" 
d="M184 0l85 -80c17 22 27 50 27 80c0 27 -8 52 -22 73zM162 -19l-93 -76c24 -24 58 -38 94 -38c33 0 64 12 87 32zM140 1l-84 79c-17 -22 -27 -50 -27 -80c0 -27 8 -52 22 -73zM163 20l93 76c-24 24 -58 38 -94 38c-33 0 -64 -13 -87 -33zM162 163c90 0 163 -73 163 -163
s-73 -162 -163 -162s-162 72 -162 162s72 163 162 163z" />
    <glyph glyph-name="noteheadSquareWhite" unicode="&#xe0b8;" horiz-adv-x="310" 
d="M274 89h-238v-178h238v178zM310 125v-250h-310v250h310z" />
    <glyph glyph-name="noteheadSquareBlack" unicode="&#xe0b9;" horiz-adv-x="310" 
d="M310 125v-250h-310v250h310z" />
    <glyph glyph-name="noteheadTriangleUpWhite" unicode="&#xe0bd;" horiz-adv-x="310" 
d="M155 122l155 -258h-310zM233 -77c5 0 8 4 8 8c0 1 -1 3 -1 4l-79 130c-1 2 -4 4 -6 4s-5 -2 -6 -4l-79 -130c0 -1 -1 -3 -1 -4c0 -4 3 -8 8 -8h156z" />
    <glyph glyph-name="noteheadTriangleUpBlack" unicode="&#xe0be;" horiz-adv-x="310" 
d="M155 122l155 -258h-310z" />
    <glyph glyph-name="noteheadTriangleLeftWhite" unicode="&#xe0bf;" horiz-adv-x="339" 
d="M0 122l339 -258h-339v258zM204 -65l-168 128c-1 1 -2 1 -4 1c-3 0 -7 -3 -7 -7v-128c0 -3 3 -7 7 -7h168c4 0 7 4 7 8c0 2 -1 4 -3 5z" />
    <glyph glyph-name="noteheadTriangleLeftBlack" unicode="&#xe0c0;" horiz-adv-x="339" 
d="M0 122l339 -258h-339v258z" />
    <glyph glyph-name="noteheadTriangleRightWhite" unicode="&#xe0c1;" horiz-adv-x="339" 
d="M339 122v-258h-339zM303 63l-168 -128c-2 -1 -3 -3 -3 -5c0 -4 3 -8 7 -8h168c4 0 7 4 7 7v128c0 4 -4 7 -7 7c-2 0 -3 0 -4 -1z" />
    <glyph glyph-name="noteheadTriangleRightBlack" unicode="&#xe0c2;" horiz-adv-x="339" 
d="M339 122v-258h-339z" />
    <glyph glyph-name="noteheadMoonWhite" unicode="&#xe0ca;" horiz-adv-x="310" 
d="M0 125h310v-125c0 -69 -69 -125 -155 -125s-155 56 -155 125v125zM155 -89c51 0 119 31 119 89v89h-238v-89c0 -58 69 -89 119 -89z" />
    <glyph glyph-name="noteheadMoonBlack" unicode="&#xe0cb;" horiz-adv-x="310" 
d="M0 125h310v-125c0 -69 -69 -125 -155 -125s-155 56 -155 125v125z" />
    <glyph glyph-name="noteheadTriangleRoundDownWhite" unicode="&#xe0cc;" horiz-adv-x="310" 
d="M157 -136l-157 180s47 78 157 78s153 -78 153 -78zM157 74c-62 0 -97 -32 -110 -47l110 -126l107 126c-26 32 -67 47 -107 47z" />
    <glyph glyph-name="noteheadTriangleRoundDownBlack" unicode="&#xe0cd;" horiz-adv-x="310" 
d="M157 -136l-157 180s47 78 157 78s153 -78 153 -78z" />
    <glyph glyph-name="noteheadSlashedBlack1" unicode="&#xe0cf;" 
d="M421 207c2 -3 3 -6 3 -9s-2 -7 -5 -10l-116 -90c14 -15 22 -35 22 -58c0 -89 -109 -173 -213 -173c-31 0 -55 7 -73 19l-116 -97c-2 -2 -5 -2 -8 -2c-8 0 -13 5 -13 13c0 3 2 7 5 10l115 90c-15 17 -22 38 -22 58c0 92 116 174 213 174c28 0 53 -7 73 -20l117 97
c2 2 5 3 8 3c4 0 7 -2 10 -5z" />
    <glyph glyph-name="noteheadSlashedBlack2" unicode="&#xe0d0;" 
d="M267 -71l152 -119c3 -2 4 -6 5 -10c0 -7 -7 -13 -14 -13c-2 0 -5 1 -8 3l-151 125c-40 -29 -90 -48 -139 -48c-81 0 -112 48 -112 91c0 42 24 81 58 112l-152 119c-3 2 -4 6 -4 10c-1 1 0 1 0 2c0 2 1 4 2 6c3 3 7 5 10 5s6 -1 9 -3l152 -125c41 29 91 48 138 48
c62 0 112 -33 112 -92c0 -40 -23 -80 -58 -111z" />
    <glyph glyph-name="noteheadSlashedHalf1" unicode="&#xe0d1;" 
d="M39 -68c3 -4 6 -8 9 -11l108 85l95 78c-48 0 -165 -66 -199 -100c-11 -11 -18 -24 -18 -35c0 -6 2 -12 5 -17zM285 65c-2 5 -6 9 -10 12l-105 -83l-98 -81h2c45 0 167 69 198 100c11 12 17 24 17 35c0 6 -1 12 -4 17zM411 212c7 0 13 -6 13 -13c0 -4 -2 -8 -5 -10
l-116 -91c15 -15 22 -38 22 -58c0 -99 -122 -173 -213 -173c-28 0 -53 7 -73 19l-116 -96c-2 -2 -5 -3 -8 -3c-4 0 -8 2 -10 5c-2 2 -3 5 -3 8c0 4 2 8 5 10l115 91c-4 5 -8 10 -12 16c-7 13 -10 27 -10 41c0 97 123 174 213 174c28 0 53 -7 73 -19l117 96c2 2 5 3 8 3z" />
    <glyph glyph-name="noteheadSlashedHalf2" unicode="&#xe0d2;" 
d="M185 -45c4 2 7 4 11 6l-40 33l-43 33c-26 -15 -48 -30 -61 -43c-11 -11 -18 -24 -18 -35c0 -22 19 -36 40 -36c29 0 86 28 111 42zM138 42c-2 -2 -5 -3 -7 -4l39 -33l44 -34c24 15 46 29 58 42c11 12 17 24 17 35c0 23 -18 36 -40 36c-29 0 -86 -28 -111 -42zM268 -71
l151 -119c3 -2 5 -6 5 -10c0 -7 -6 -13 -13 -13c-3 0 -6 1 -8 3l-152 125c-41 -29 -88 -48 -139 -48c-57 0 -112 29 -112 91c0 37 22 79 59 112l-152 119c-3 2 -5 6 -5 10c0 3 1 6 3 8c2 3 6 5 10 5c3 0 6 -1 8 -3l152 -126c41 29 87 49 138 49c57 0 112 -30 112 -92
c0 -37 -21 -78 -57 -111z" />
    <glyph glyph-name="noteheadSlashedWhole1" unicode="&#xe0d3;" horiz-adv-x="373" 
d="M103 47c1 -18 10 -55 20 -85l120 98c-1 4 -3 8 -5 11c-14 27 -32 33 -60 33c-42 0 -75 -7 -75 -57zM270 -45c0 18 -9 56 -19 85l-57 -44l-64 -53c2 -5 3 -9 5 -12c13 -25 32 -33 60 -33c41 0 75 8 75 57zM445 209c2 -3 2 -6 3 -8c0 -4 -2 -8 -5 -11l-118 -92
c34 -26 48 -62 48 -97c0 -65 -48 -135 -186 -135c-52 0 -91 10 -119 25l-121 -100c-3 -2 -6 -2 -8 -2c-4 0 -8 1 -11 4c-2 3 -2 5 -3 8c0 4 2 8 5 11l118 92c-34 26 -48 62 -48 97c0 65 49 135 187 135c51 0 90 -10 118 -25l121 100c3 2 5 2 8 3c4 0 8 -2 11 -5z" />
    <glyph glyph-name="noteheadSlashedWhole2" unicode="&#xe0d4;" horiz-adv-x="373" 
d="M195 -102c23 0 58 4 70 27l-86 71l-76 60c0 -34 16 -95 32 -125c13 -25 32 -33 60 -33zM178 104c-23 0 -58 -4 -70 -26l86 -71l76 -60c0 35 -16 93 -32 124c-14 27 -32 33 -60 33zM325 -96l118 -92c3 -3 5 -7 5 -11c-1 -3 -1 -5 -3 -8c-3 -3 -7 -5 -11 -5c-2 0 -5 1 -8 3
l-120 100c-29 -15 -68 -25 -119 -25c-138 0 -187 70 -187 135c0 35 14 71 48 97l-118 92c-3 3 -5 7 -5 11c1 2 1 5 3 8c3 3 7 5 11 5c3 -1 5 -1 8 -3l121 -100c29 15 68 25 119 25c138 0 186 -70 186 -135c0 -35 -14 -71 -48 -97z" />
    <glyph glyph-name="noteheadSlashedDoubleWhole1" unicode="&#xe0d5;" horiz-adv-x="390" 
d="M37 -113l16 13c-6 4 -11 9 -16 14v-27zM187 103c-42 0 -76 -8 -76 -57c1 -18 10 -56 20 -85l121 98c-2 4 -4 8 -5 11c-15 27 -32 33 -60 33zM279 -47c0 19 -9 56 -20 86l-121 -97c2 -5 4 -9 6 -12c12 -24 29 -33 55 -33c41 0 80 5 80 56zM354 86v27l-17 -13
c6 -5 12 -9 17 -14zM453 207c2 -2 3 -5 3 -7c0 -4 -1 -8 -5 -11l-60 -47v-307c0 -12 -14 -14 -23 -14c-8 0 -14 7 -14 14v79c-31 -29 -81 -50 -159 -50c-52 0 -92 9 -121 24l-37 -31v-22c-1 -12 -14 -14 -23 -14c-6 0 -10 3 -12 7l-47 -38c-2 -2 -5 -3 -8 -3
c-4 0 -7 2 -10 5c-2 3 -3 6 -3 8c0 4 2 8 5 11l61 47v306c0 13 10 14 20 14c9 0 17 -2 17 -14v-78c30 29 80 49 158 49c52 0 92 -9 121 -23l38 30v22c0 8 6 14 14 14h9c5 0 10 -2 12 -6l46 37c2 2 5 3 8 3c4 0 8 -1 10 -5z" />
    <glyph glyph-name="noteheadSlashedDoubleWhole2" unicode="&#xe0d6;" horiz-adv-x="390" 
d="M54 100l-17 13v-27c5 5 11 9 17 14zM247 -98c13 5 22 12 27 22l-86 70l-76 60c-1 -1 -1 -2 -1 -4c0 -28 20 -95 33 -120s32 -33 60 -33c15 0 31 2 43 5zM144 97c-13 -4 -22 -11 -27 -21l86 -70l76 -60c0 35 -16 93 -32 124c-14 27 -32 33 -60 33c-15 0 -31 -3 -43 -6z
M337 -100l17 -13v27c-5 -5 -11 -10 -17 -14zM391 -142l61 -47c3 -3 4 -7 4 -11c0 -3 -1 -5 -2 -8c-3 -3 -6 -5 -11 -5c-3 0 -5 1 -8 3l-46 39c-3 -4 -8 -8 -12 -8h-9c-8 0 -14 7 -14 14v22l-37 31c-30 -15 -70 -24 -122 -24c-77 0 -128 21 -158 50v-79c0 -6 -7 -14 -14 -14
h-9c-8 0 -14 7 -14 14v307l-61 47c-3 3 -5 6 -5 10c0 3 1 6 3 8c3 4 7 5 10 5s6 -1 9 -3l46 -38c2 5 6 7 12 7h9c8 0 14 -5 14 -14v-22l37 -30c30 14 70 23 121 23c78 0 129 -20 159 -49v78c0 8 6 14 14 14h9c8 0 14 -5 14 -14v-306z" />
    <glyph glyph-name="noteheadDiamondDoubleWhole" unicode="&#xe0d7;" horiz-adv-x="373" 
d="M153 -80l149 104l-82 57l-149 -104zM350 179h9c8 0 14 -7 14 -14v-329c0 -8 -6 -14 -14 -14h-9c-7 0 -14 6 -14 14v134c-49 -35 -138 -98 -140 -99c-2 -2 -6 -3 -10 -3c-3 0 -7 1 -13 6l-137 95v-133c0 -8 -6 -14 -13 -14h-9c-8 0 -14 6 -14 14v329c0 7 6 14 14 14h9
c7 0 13 -7 13 -14v-134l141 99c2 2 5 3 9 3c5 0 8 -1 10 -3c2 -1 92 -64 140 -98v133c0 7 7 14 14 14z" />
    <glyph glyph-name="noteheadDiamondWhole" unicode="&#xe0d8;" horiz-adv-x="373" 
d="M153 -81l149 104l-82 57l-149 -104zM196 -130c-2 -2 -6 -3 -10 -3c-3 0 -7 1 -13 6l-170 118c-2 2 -3 5 -3 8c0 4 2 7 5 9l172 121c2 2 5 3 9 3c5 0 8 -1 10 -3c3 -2 155 -108 172 -120c3 -2 5 -6 5 -9c0 -4 -2 -7 -5 -9c-17 -12 -170 -120 -172 -121z" />
    <glyph glyph-name="noteheadDiamondHalf" unicode="&#xe0d9;" horiz-adv-x="335" 
d="M197 -80l74 57l-133 104l-74 -58zM330 -9l-154 -120c-2 -2 -5 -3 -9 -3c-3 0 -6 1 -8 3l-154 120c-3 2 -5 6 -5 9c0 4 2 7 5 9l154 121c2 2 5 3 8 3c4 0 7 -1 9 -3l154 -121c3 -2 5 -6 5 -9c0 -4 -2 -7 -5 -9z" />
    <glyph glyph-name="noteheadDiamondBlack" unicode="&#xe0db;" horiz-adv-x="335" 
d="M330 -10l-154 -119c-2 -2 -5 -3 -9 -3c-3 0 -6 1 -8 3l-154 119c-3 3 -5 6 -5 10c0 3 2 7 5 9l154 121c2 2 5 3 8 3c4 0 7 -1 9 -3l154 -121c3 -2 5 -6 5 -10c0 -3 -2 -6 -5 -9z" />
    <glyph glyph-name="noteheadCircledXLarge" unicode="&#xe0ec;" horiz-adv-x="460" 
d="M230 230c127 0 230 -103 230 -230s-103 -230 -230 -230s-230 103 -230 230s103 230 230 230zM230 -206c115 0 206 92 206 206c0 113 -92 206 -206 206c-113 0 -206 -92 -206 -206c0 -113 92 -206 206 -206zM388 96l-122 -96l122 -96c3 -2 5 -6 5 -10c0 -3 -2 -7 -4 -9
l-12 -13c-2 -3 -6 -4 -10 -4c-3 0 -7 1 -9 3l-127 101l-128 -101c-2 -2 -6 -3 -9 -3c-4 0 -8 1 -10 4l-12 13c-2 2 -4 6 -4 9c0 4 2 8 5 10l122 96l-122 96c-3 2 -5 6 -5 10s2 8 4 10l13 12c3 2 5 4 9 4c3 0 7 -1 9 -3l128 -101l127 101c2 2 6 3 9 3c4 0 7 -2 10 -4l12 -12
c2 -2 4 -5 4 -9v-1c0 -4 -2 -8 -5 -10z" />
    <glyph glyph-name="noteheadParenthesisLeft" unicode="&#xe0f5;" horiz-adv-x="98" 
d="M85 -207c-3 4 -85 57 -85 207s83 204 85 208c2 2 4 3 7 3s6 -4 6 -7c0 -2 0 -4 -1 -5c-41 -70 -55 -142 -55 -199c0 -105 46 -176 55 -198c1 -3 1 -4 1 -5c0 -3 -3 -7 -6 -7s-6 2 -7 3z" />
    <glyph glyph-name="noteheadParenthesisRight" unicode="&#xe0f6;" horiz-adv-x="98" 
d="M13 -207c-1 -1 -4 -3 -7 -3s-6 4 -6 7c0 1 0 2 1 5c9 22 55 93 55 198c0 57 -14 129 -55 199c-1 1 -1 3 -1 5c0 3 3 7 6 7s5 -1 7 -3c2 -4 85 -58 85 -208s-82 -203 -85 -207z" />
    <glyph glyph-name="noteheadWholeFilled" unicode="&#xe0fa;" horiz-adv-x="373" 
d="M187 136c138 0 186 -70 186 -135s-48 -135 -186 -135s-187 70 -187 135s49 135 187 135z" />
    <glyph glyph-name="noteheadHalfFilled" unicode="&#xe0fb;" 
d="M213 132c62 0 112 -33 112 -92c0 -88 -109 -173 -213 -173c-81 0 -112 48 -112 91c0 93 116 174 213 174z" />
    <glyph glyph-name="noteheadRoundBlackDoubleSlashed" unicode="&#xe11c;" horiz-adv-x="265" 
d="M337 204c2 -2 3 -5 3 -8s-1 -6 -3 -9l-92 -92l85 -85c2 -2 4 -5 4 -8s-2 -6 -4 -9c-2 -2 -5 -3 -8 -3c-4 0 -7 1 -9 3l-58 59c6 -16 10 -34 10 -52c0 -73 -59 -133 -132 -133c-19 0 -36 4 -52 11l58 -59c3 -2 4 -5 4 -8c0 -7 -5 -12 -12 -12c-3 0 -6 1 -9 3l-85 86
l-92 -92c-2 -3 -5 -4 -8 -4s-7 1 -9 4c-2 2 -3 5 -3 8s1 6 3 9l92 92l-85 85c-2 2 -4 5 -4 8s2 6 4 9c2 2 5 3 8 3c4 0 7 -1 9 -3l58 -59c-6 16 -10 34 -10 52c0 73 59 133 132 133c19 0 36 -4 52 -11l-58 59c-3 2 -4 5 -4 8c0 7 5 12 12 12c3 0 6 -1 9 -3l85 -86l92 92
c2 3 5 4 8 4s7 -1 9 -4z" />
    <glyph glyph-name="noteheadRoundWhiteDoubleSlashed" unicode="&#xe11d;" horiz-adv-x="265" 
d="M133 101c-56 0 -101 -46 -101 -101c0 -23 8 -45 21 -62l142 141c-18 13 -39 22 -62 22zM133 -101c55 0 100 46 100 101c0 23 -8 45 -21 62l-142 -141c18 -13 39 -22 63 -22zM337 204c2 -2 3 -5 3 -8s-1 -6 -3 -9l-92 -92l85 -85c2 -2 4 -5 4 -8s-2 -6 -4 -9
c-2 -2 -5 -3 -8 -3c-4 0 -7 1 -9 3l-58 59c6 -16 10 -34 10 -52c0 -73 -59 -133 -132 -133c-19 0 -36 4 -52 11l58 -59c3 -2 4 -5 4 -8c0 -7 -5 -12 -12 -12c-3 0 -6 1 -9 3l-85 86l-92 -92c-2 -3 -5 -4 -8 -4s-7 1 -9 4c-2 2 -3 5 -3 8s1 6 3 9l92 92l-85 85
c-2 2 -4 5 -4 8s2 6 4 9c2 2 5 3 8 3c4 0 7 -1 9 -3l58 -59c-6 16 -10 34 -10 52c0 73 59 133 133 133c18 0 35 -4 51 -11l-58 59c-3 2 -4 5 -4 8c0 7 5 12 12 12c3 0 6 -1 9 -3l85 -86l92 92c2 3 5 4 8 4s7 -1 9 -4z" />
    </font>
</defs>
</svg>
